ISO-10303-21;
HEADER;
FILE_DESCRIPTION(('FreeCAD Model'),'2;1');
FILE_NAME('Open CASCADE Shape Model','2025-12-30T14:27:35',('Author'),(
    ''),'Open CASCADE STEP processor 7.8','FreeCAD','Unknown');
FILE_SCHEMA(('AUTOMOTIVE_DESIGN { 1 0 10303 214 1 1 1 1 }'));
ENDSEC;
DATA;
#1 = APPLICATION_PROTOCOL_DEFINITION('international standard',
  'automotive_design',2000,#2);
#2 = APPLICATION_CONTEXT(
  'core data for automotive mechanical design processes');
#3 = SHAPE_DEFINITION_REPRESENTATION(#4,#10);
#4 = PRODUCT_DEFINITION_SHAPE('','',#5);
#5 = PRODUCT_DEFINITION('design','',#6,#9);
#6 = PRODUCT_DEFINITION_FORMATION('','',#7);
#7 = PRODUCT('Fusion001','Fusion001','',(#8));
#8 = PRODUCT_CONTEXT('',#2,'mechanical');
#9 = PRODUCT_DEFINITION_CONTEXT('part definition',#2,'design');
#10 = ADVANCED_BREP_SHAPE_REPRESENTATION('',(#11,#15),#2212);
#11 = AXIS2_PLACEMENT_3D('',#12,#13,#14);
#12 = CARTESIAN_POINT('',(0.,0.,0.));
#13 = DIRECTION('',(0.,0.,1.));
#14 = DIRECTION('',(1.,0.,-0.));
#15 = MANIFOLD_SOLID_BREP('',#16);
#16 = CLOSED_SHELL('',(#17,#97,#242,#273,#304,#335,#373,#486,#508,#525,
    #566,#620,#652,#676,#701,#748,#780,#804,#829,#860,#884,#908,#925,
    #951,#974,#1000,#1012,#1036,#1067,#1091,#1115,#1132,#1149,#1194,
    #1218,#1256,#1273,#1290,#1307,#1319,#1336,#1354,#1366,#1383,#1429,
    #1475,#1487,#1518,#1542,#1566,#1583,#1595,#1653,#1677,#1728,#1745,
    #1803,#1827,#1878,#1895,#1941,#1958,#1975,#1987,#2004,#2021,#2038,
    #2050,#2067,#2108,#2132,#2166,#2183,#2200));
#17 = ADVANCED_FACE('',(#18),#92,.F.);
#18 = FACE_BOUND('',#19,.F.);
#19 = EDGE_LOOP('',(#20,#30,#38,#46,#54,#62,#70,#78,#86));
#20 = ORIENTED_EDGE('',*,*,#21,.F.);
#21 = EDGE_CURVE('',#22,#24,#26,.T.);
#22 = VERTEX_POINT('',#23);
#23 = CARTESIAN_POINT('',(0.,0.,0.));
#24 = VERTEX_POINT('',#25);
#25 = CARTESIAN_POINT('',(3.,0.,0.));
#26 = LINE('',#27,#28);
#27 = CARTESIAN_POINT('',(0.,0.,0.));
#28 = VECTOR('',#29,1.);
#29 = DIRECTION('',(1.,0.,0.));
#30 = ORIENTED_EDGE('',*,*,#31,.T.);
#31 = EDGE_CURVE('',#22,#32,#34,.T.);
#32 = VERTEX_POINT('',#33);
#33 = CARTESIAN_POINT('',(0.,0.,11.));
#34 = LINE('',#35,#36);
#35 = CARTESIAN_POINT('',(0.,0.,0.));
#36 = VECTOR('',#37,1.);
#37 = DIRECTION('',(0.,0.,1.));
#38 = ORIENTED_EDGE('',*,*,#39,.T.);
#39 = EDGE_CURVE('',#32,#40,#42,.T.);
#40 = VERTEX_POINT('',#41);
#41 = CARTESIAN_POINT('',(3.,0.,11.));
#42 = LINE('',#43,#44);
#43 = CARTESIAN_POINT('',(0.,0.,11.));
#44 = VECTOR('',#45,1.);
#45 = DIRECTION('',(1.,0.,0.));
#46 = ORIENTED_EDGE('',*,*,#47,.T.);
#47 = EDGE_CURVE('',#40,#48,#50,.T.);
#48 = VERTEX_POINT('',#49);
#49 = CARTESIAN_POINT('',(9.,0.,11.));
#50 = LINE('',#51,#52);
#51 = CARTESIAN_POINT('',(0.,0.,11.));
#52 = VECTOR('',#53,1.);
#53 = DIRECTION('',(1.,0.,0.));
#54 = ORIENTED_EDGE('',*,*,#55,.T.);
#55 = EDGE_CURVE('',#48,#56,#58,.T.);
#56 = VERTEX_POINT('',#57);
#57 = CARTESIAN_POINT('',(12.,0.,11.));
#58 = LINE('',#59,#60);
#59 = CARTESIAN_POINT('',(0.,0.,11.));
#60 = VECTOR('',#61,1.);
#61 = DIRECTION('',(1.,0.,0.));
#62 = ORIENTED_EDGE('',*,*,#63,.F.);
#63 = EDGE_CURVE('',#64,#56,#66,.T.);
#64 = VERTEX_POINT('',#65);
#65 = CARTESIAN_POINT('',(12.,1.E-15,3.));
#66 = LINE('',#67,#68);
#67 = CARTESIAN_POINT('',(12.,0.,0.));
#68 = VECTOR('',#69,1.);
#69 = DIRECTION('',(0.,0.,1.));
#70 = ORIENTED_EDGE('',*,*,#71,.T.);
#71 = EDGE_CURVE('',#64,#72,#74,.T.);
#72 = VERTEX_POINT('',#73);
#73 = CARTESIAN_POINT('',(9.,1.E-15,3.));
#74 = LINE('',#75,#76);
#75 = CARTESIAN_POINT('',(12.,0.,3.));
#76 = VECTOR('',#77,1.);
#77 = DIRECTION('',(-1.,0.,0.));
#78 = ORIENTED_EDGE('',*,*,#79,.T.);
#79 = EDGE_CURVE('',#72,#80,#82,.T.);
#80 = VERTEX_POINT('',#81);
#81 = CARTESIAN_POINT('',(3.,1.E-15,3.));
#82 = LINE('',#83,#84);
#83 = CARTESIAN_POINT('',(12.,0.,3.));
#84 = VECTOR('',#85,1.);
#85 = DIRECTION('',(-1.,0.,0.));
#86 = ORIENTED_EDGE('',*,*,#87,.T.);
#87 = EDGE_CURVE('',#80,#24,#88,.T.);
#88 = LINE('',#89,#90);
#89 = CARTESIAN_POINT('',(3.,0.,3.));
#90 = VECTOR('',#91,1.);
#91 = DIRECTION('',(0.,0.,-1.));
#92 = PLANE('',#93);
#93 = AXIS2_PLACEMENT_3D('',#94,#95,#96);
#94 = CARTESIAN_POINT('',(0.,0.,0.));
#95 = DIRECTION('',(0.,1.,0.));
#96 = DIRECTION('',(1.,0.,0.));
#97 = ADVANCED_FACE('',(#98,#203),#237,.F.);
#98 = FACE_BOUND('',#99,.F.);
#99 = EDGE_LOOP('',(#100,#108,#109,#117,#125,#133,#141,#149,#157,#165,
    #173,#181,#189,#197));
#100 = ORIENTED_EDGE('',*,*,#101,.T.);
#101 = EDGE_CURVE('',#102,#22,#104,.T.);
#102 = VERTEX_POINT('',#103);
#103 = CARTESIAN_POINT('',(0.,17.2,0.));
#104 = LINE('',#105,#106);
#105 = CARTESIAN_POINT('',(0.,17.2,0.));
#106 = VECTOR('',#107,1.);
#107 = DIRECTION('',(0.,-1.,0.));
#108 = ORIENTED_EDGE('',*,*,#21,.T.);
#109 = ORIENTED_EDGE('',*,*,#110,.T.);
#110 = EDGE_CURVE('',#24,#111,#113,.T.);
#111 = VERTEX_POINT('',#112);
#112 = CARTESIAN_POINT('',(3.5,0.,0.));
#113 = LINE('',#114,#115);
#114 = CARTESIAN_POINT('',(0.,0.,0.));
#115 = VECTOR('',#116,1.);
#116 = DIRECTION('',(1.,0.,0.));
#117 = ORIENTED_EDGE('',*,*,#118,.T.);
#118 = EDGE_CURVE('',#111,#119,#121,.T.);
#119 = VERTEX_POINT('',#120);
#120 = CARTESIAN_POINT('',(3.5,3.85,0.));
#121 = LINE('',#122,#123);
#122 = CARTESIAN_POINT('',(3.5,-0.25,0.));
#123 = VECTOR('',#124,1.);
#124 = DIRECTION('',(0.,1.,0.));
#125 = ORIENTED_EDGE('',*,*,#126,.T.);
#126 = EDGE_CURVE('',#119,#127,#129,.T.);
#127 = VERTEX_POINT('',#128);
#128 = CARTESIAN_POINT('',(8.5,3.85,0.));
#129 = LINE('',#130,#131);
#130 = CARTESIAN_POINT('',(3.5,3.85,0.));
#131 = VECTOR('',#132,1.);
#132 = DIRECTION('',(1.,0.,0.));
#133 = ORIENTED_EDGE('',*,*,#134,.T.);
#134 = EDGE_CURVE('',#127,#135,#137,.T.);
#135 = VERTEX_POINT('',#136);
#136 = CARTESIAN_POINT('',(8.5,0.,0.));
#137 = LINE('',#138,#139);
#138 = CARTESIAN_POINT('',(8.5,3.85,0.));
#139 = VECTOR('',#140,1.);
#140 = DIRECTION('',(0.,-1.,0.));
#141 = ORIENTED_EDGE('',*,*,#142,.T.);
#142 = EDGE_CURVE('',#135,#143,#145,.T.);
#143 = VERTEX_POINT('',#144);
#144 = CARTESIAN_POINT('',(12.,0.,0.));
#145 = LINE('',#146,#147);
#146 = CARTESIAN_POINT('',(0.,0.,0.));
#147 = VECTOR('',#148,1.);
#148 = DIRECTION('',(1.,0.,0.));
#149 = ORIENTED_EDGE('',*,*,#150,.T.);
#150 = EDGE_CURVE('',#143,#151,#153,.T.);
#151 = VERTEX_POINT('',#152);
#152 = CARTESIAN_POINT('',(12.,17.2,0.));
#153 = LINE('',#154,#155);
#154 = CARTESIAN_POINT('',(12.,0.,0.));
#155 = VECTOR('',#156,1.);
#156 = DIRECTION('',(0.,1.,0.));
#157 = ORIENTED_EDGE('',*,*,#158,.T.);
#158 = EDGE_CURVE('',#151,#159,#161,.T.);
#159 = VERTEX_POINT('',#160);
#160 = CARTESIAN_POINT('',(8.5,17.2,0.));
#161 = LINE('',#162,#163);
#162 = CARTESIAN_POINT('',(12.,17.2,0.));
#163 = VECTOR('',#164,1.);
#164 = DIRECTION('',(-1.,0.,0.));
#165 = ORIENTED_EDGE('',*,*,#166,.T.);
#166 = EDGE_CURVE('',#159,#167,#169,.T.);
#167 = VERTEX_POINT('',#168);
#168 = CARTESIAN_POINT('',(8.5,13.349999999884,0.));
#169 = LINE('',#170,#171);
#170 = CARTESIAN_POINT('',(8.5,17.450000000035,0.));
#171 = VECTOR('',#172,1.);
#172 = DIRECTION('',(0.,-1.,0.));
#173 = ORIENTED_EDGE('',*,*,#174,.T.);
#174 = EDGE_CURVE('',#167,#175,#177,.T.);
#175 = VERTEX_POINT('',#176);
#176 = CARTESIAN_POINT('',(3.5,13.349999999884,0.));
#177 = LINE('',#178,#179);
#178 = CARTESIAN_POINT('',(8.5,13.349999999884,0.));
#179 = VECTOR('',#180,1.);
#180 = DIRECTION('',(-1.,0.,0.));
#181 = ORIENTED_EDGE('',*,*,#182,.T.);
#182 = EDGE_CURVE('',#175,#183,#185,.T.);
#183 = VERTEX_POINT('',#184);
#184 = CARTESIAN_POINT('',(3.5,17.2,0.));
#185 = LINE('',#186,#187);
#186 = CARTESIAN_POINT('',(3.5,13.349999999884,0.));
#187 = VECTOR('',#188,1.);
#188 = DIRECTION('',(0.,1.,0.));
#189 = ORIENTED_EDGE('',*,*,#190,.T.);
#190 = EDGE_CURVE('',#183,#191,#193,.T.);
#191 = VERTEX_POINT('',#192);
#192 = CARTESIAN_POINT('',(3.,17.2,0.));
#193 = LINE('',#194,#195);
#194 = CARTESIAN_POINT('',(12.,17.2,0.));
#195 = VECTOR('',#196,1.);
#196 = DIRECTION('',(-1.,0.,0.));
#197 = ORIENTED_EDGE('',*,*,#198,.T.);
#198 = EDGE_CURVE('',#191,#102,#199,.T.);
#199 = LINE('',#200,#201);
#200 = CARTESIAN_POINT('',(12.,17.2,0.));
#201 = VECTOR('',#202,1.);
#202 = DIRECTION('',(-1.,0.,0.));
#203 = FACE_BOUND('',#204,.F.);
#204 = EDGE_LOOP('',(#205,#215,#223,#231));
#205 = ORIENTED_EDGE('',*,*,#206,.T.);
#206 = EDGE_CURVE('',#207,#209,#211,.T.);
#207 = VERTEX_POINT('',#208);
#208 = CARTESIAN_POINT('',(8.5,6.549999999966,0.));
#209 = VERTEX_POINT('',#210);
#210 = CARTESIAN_POINT('',(3.5,6.549999999966,0.));
#211 = LINE('',#212,#213);
#212 = CARTESIAN_POINT('',(8.5,6.549999999966,0.));
#213 = VECTOR('',#214,1.);
#214 = DIRECTION('',(-1.,0.,0.));
#215 = ORIENTED_EDGE('',*,*,#216,.T.);
#216 = EDGE_CURVE('',#209,#217,#219,.T.);
#217 = VERTEX_POINT('',#218);
#218 = CARTESIAN_POINT('',(3.5,10.650000000034,0.));
#219 = LINE('',#220,#221);
#220 = CARTESIAN_POINT('',(3.5,6.549999999966,0.));
#221 = VECTOR('',#222,1.);
#222 = DIRECTION('',(0.,1.,0.));
#223 = ORIENTED_EDGE('',*,*,#224,.T.);
#224 = EDGE_CURVE('',#217,#225,#227,.T.);
#225 = VERTEX_POINT('',#226);
#226 = CARTESIAN_POINT('',(8.5,10.650000000034,0.));
#227 = LINE('',#228,#229);
#228 = CARTESIAN_POINT('',(3.5,10.650000000034,0.));
#229 = VECTOR('',#230,1.);
#230 = DIRECTION('',(1.,0.,0.));
#231 = ORIENTED_EDGE('',*,*,#232,.T.);
#232 = EDGE_CURVE('',#225,#207,#233,.T.);
#233 = LINE('',#234,#235);
#234 = CARTESIAN_POINT('',(8.5,10.650000000034,0.));
#235 = VECTOR('',#236,1.);
#236 = DIRECTION('',(0.,-1.,0.));
#237 = PLANE('',#238);
#238 = AXIS2_PLACEMENT_3D('',#239,#240,#241);
#239 = CARTESIAN_POINT('',(6.,8.6,0.));
#240 = DIRECTION('',(0.,0.,1.));
#241 = DIRECTION('',(1.,0.,0.));
#242 = ADVANCED_FACE('',(#243),#268,.F.);
#243 = FACE_BOUND('',#244,.F.);
#244 = EDGE_LOOP('',(#245,#253,#261,#267));
#245 = ORIENTED_EDGE('',*,*,#246,.T.);
#246 = EDGE_CURVE('',#80,#247,#249,.T.);
#247 = VERTEX_POINT('',#248);
#248 = CARTESIAN_POINT('',(3.,-0.8,3.));
#249 = LINE('',#250,#251);
#250 = CARTESIAN_POINT('',(3.,6.7E-16,3.));
#251 = VECTOR('',#252,1.);
#252 = DIRECTION('',(0.,-1.,2.2E-16));
#253 = ORIENTED_EDGE('',*,*,#254,.T.);
#254 = EDGE_CURVE('',#247,#255,#257,.T.);
#255 = VERTEX_POINT('',#256);
#256 = CARTESIAN_POINT('',(3.,-0.8,0.));
#257 = LINE('',#258,#259);
#258 = CARTESIAN_POINT('',(3.,-0.8,3.));
#259 = VECTOR('',#260,1.);
#260 = DIRECTION('',(0.,0.,-1.));
#261 = ORIENTED_EDGE('',*,*,#262,.F.);
#262 = EDGE_CURVE('',#24,#255,#263,.T.);
#263 = LINE('',#264,#265);
#264 = CARTESIAN_POINT('',(3.,0.,0.));
#265 = VECTOR('',#266,1.);
#266 = DIRECTION('',(0.,-1.,2.2E-16));
#267 = ORIENTED_EDGE('',*,*,#87,.F.);
#268 = PLANE('',#269);
#269 = AXIS2_PLACEMENT_3D('',#270,#271,#272);
#270 = CARTESIAN_POINT('',(3.,6.7E-16,3.));
#271 = DIRECTION('',(1.,0.,0.));
#272 = DIRECTION('',(0.,-2.2E-16,-1.));
#273 = ADVANCED_FACE('',(#274),#299,.T.);
#274 = FACE_BOUND('',#275,.T.);
#275 = EDGE_LOOP('',(#276,#286,#292,#293));
#276 = ORIENTED_EDGE('',*,*,#277,.T.);
#277 = EDGE_CURVE('',#278,#280,#282,.T.);
#278 = VERTEX_POINT('',#279);
#279 = CARTESIAN_POINT('',(3.,-1.,7.6));
#280 = VERTEX_POINT('',#281);
#281 = CARTESIAN_POINT('',(9.,-1.,7.6));
#282 = LINE('',#283,#284);
#283 = CARTESIAN_POINT('',(3.,-1.,7.6));
#284 = VECTOR('',#285,1.);
#285 = DIRECTION('',(1.,0.,0.));
#286 = ORIENTED_EDGE('',*,*,#287,.T.);
#287 = EDGE_CURVE('',#280,#72,#288,.T.);
#288 = LINE('',#289,#290);
#289 = CARTESIAN_POINT('',(9.,-1.,7.6));
#290 = VECTOR('',#291,1.);
#291 = DIRECTION('',(0.,0.212429644331,-0.977176363923));
#292 = ORIENTED_EDGE('',*,*,#79,.T.);
#293 = ORIENTED_EDGE('',*,*,#294,.F.);
#294 = EDGE_CURVE('',#278,#80,#295,.T.);
#295 = LINE('',#296,#297);
#296 = CARTESIAN_POINT('',(3.,-1.,7.6));
#297 = VECTOR('',#298,1.);
#298 = DIRECTION('',(0.,0.212429644331,-0.977176363923));
#299 = PLANE('',#300);
#300 = AXIS2_PLACEMENT_3D('',#301,#302,#303);
#301 = CARTESIAN_POINT('',(3.,-1.,7.6));
#302 = DIRECTION('',(0.,0.977176363923,0.212429644331));
#303 = DIRECTION('',(0.,0.212429644331,-0.977176363923));
#304 = ADVANCED_FACE('',(#305),#330,.F.);
#305 = FACE_BOUND('',#306,.F.);
#306 = EDGE_LOOP('',(#307,#308,#316,#324));
#307 = ORIENTED_EDGE('',*,*,#71,.F.);
#308 = ORIENTED_EDGE('',*,*,#309,.T.);
#309 = EDGE_CURVE('',#64,#310,#312,.T.);
#310 = VERTEX_POINT('',#311);
#311 = CARTESIAN_POINT('',(12.,-0.8,3.));
#312 = LINE('',#313,#314);
#313 = CARTESIAN_POINT('',(12.,6.7E-16,3.));
#314 = VECTOR('',#315,1.);
#315 = DIRECTION('',(0.,-1.,2.2E-16));
#316 = ORIENTED_EDGE('',*,*,#317,.T.);
#317 = EDGE_CURVE('',#310,#318,#320,.T.);
#318 = VERTEX_POINT('',#319);
#319 = CARTESIAN_POINT('',(9.,-0.8,3.));
#320 = LINE('',#321,#322);
#321 = CARTESIAN_POINT('',(12.,-0.8,3.));
#322 = VECTOR('',#323,1.);
#323 = DIRECTION('',(-1.,0.,0.));
#324 = ORIENTED_EDGE('',*,*,#325,.F.);
#325 = EDGE_CURVE('',#72,#318,#326,.T.);
#326 = LINE('',#327,#328);
#327 = CARTESIAN_POINT('',(9.,5.6E-16,3.));
#328 = VECTOR('',#329,1.);
#329 = DIRECTION('',(0.,-1.,0.));
#330 = PLANE('',#331);
#331 = AXIS2_PLACEMENT_3D('',#332,#333,#334);
#332 = CARTESIAN_POINT('',(12.,6.7E-16,3.));
#333 = DIRECTION('',(-0.,-2.2E-16,-1.));
#334 = DIRECTION('',(-1.,0.,0.));
#335 = ADVANCED_FACE('',(#336),#368,.F.);
#336 = FACE_BOUND('',#337,.F.);
#337 = EDGE_LOOP('',(#338,#344,#345,#353,#361,#367));
#338 = ORIENTED_EDGE('',*,*,#339,.T.);
#339 = EDGE_CURVE('',#143,#64,#340,.T.);
#340 = LINE('',#341,#342);
#341 = CARTESIAN_POINT('',(12.,0.,0.));
#342 = VECTOR('',#343,1.);
#343 = DIRECTION('',(0.,0.,1.));
#344 = ORIENTED_EDGE('',*,*,#63,.T.);
#345 = ORIENTED_EDGE('',*,*,#346,.T.);
#346 = EDGE_CURVE('',#56,#347,#349,.T.);
#347 = VERTEX_POINT('',#348);
#348 = CARTESIAN_POINT('',(12.,17.2,11.));
#349 = LINE('',#350,#351);
#350 = CARTESIAN_POINT('',(12.,0.,11.));
#351 = VECTOR('',#352,1.);
#352 = DIRECTION('',(0.,1.,0.));
#353 = ORIENTED_EDGE('',*,*,#354,.F.);
#354 = EDGE_CURVE('',#355,#347,#357,.T.);
#355 = VERTEX_POINT('',#356);
#356 = CARTESIAN_POINT('',(12.,17.2,3.));
#357 = LINE('',#358,#359);
#358 = CARTESIAN_POINT('',(12.,17.2,0.));
#359 = VECTOR('',#360,1.);
#360 = DIRECTION('',(0.,0.,1.));
#361 = ORIENTED_EDGE('',*,*,#362,.F.);
#362 = EDGE_CURVE('',#151,#355,#363,.T.);
#363 = LINE('',#364,#365);
#364 = CARTESIAN_POINT('',(12.,17.2,0.));
#365 = VECTOR('',#366,1.);
#366 = DIRECTION('',(0.,0.,1.));
#367 = ORIENTED_EDGE('',*,*,#150,.F.);
#368 = PLANE('',#369);
#369 = AXIS2_PLACEMENT_3D('',#370,#371,#372);
#370 = CARTESIAN_POINT('',(12.,0.,0.));
#371 = DIRECTION('',(-1.,0.,0.));
#372 = DIRECTION('',(0.,1.,0.));
#373 = ADVANCED_FACE('',(#374,#408),#481,.F.);
#374 = FACE_BOUND('',#375,.F.);
#375 = EDGE_LOOP('',(#376,#386,#394,#402));
#376 = ORIENTED_EDGE('',*,*,#377,.T.);
#377 = EDGE_CURVE('',#378,#380,#382,.T.);
#378 = VERTEX_POINT('',#379);
#379 = CARTESIAN_POINT('',(-1.575,19.24,11.));
#380 = VERTEX_POINT('',#381);
#381 = CARTESIAN_POINT('',(-1.575,-2.04,11.));
#382 = LINE('',#383,#384);
#383 = CARTESIAN_POINT('',(-1.575,19.24,11.));
#384 = VECTOR('',#385,1.);
#385 = DIRECTION('',(0.,-1.,0.));
#386 = ORIENTED_EDGE('',*,*,#387,.T.);
#387 = EDGE_CURVE('',#380,#388,#390,.T.);
#388 = VERTEX_POINT('',#389);
#389 = CARTESIAN_POINT('',(13.575,-2.04,11.));
#390 = LINE('',#391,#392);
#391 = CARTESIAN_POINT('',(-1.575,-2.04,11.));
#392 = VECTOR('',#393,1.);
#393 = DIRECTION('',(1.,0.,0.));
#394 = ORIENTED_EDGE('',*,*,#395,.T.);
#395 = EDGE_CURVE('',#388,#396,#398,.T.);
#396 = VERTEX_POINT('',#397);
#397 = CARTESIAN_POINT('',(13.575,19.24,11.));
#398 = LINE('',#399,#400);
#399 = CARTESIAN_POINT('',(13.575,-2.04,11.));
#400 = VECTOR('',#401,1.);
#401 = DIRECTION('',(0.,1.,0.));
#402 = ORIENTED_EDGE('',*,*,#403,.T.);
#403 = EDGE_CURVE('',#396,#378,#404,.T.);
#404 = LINE('',#405,#406);
#405 = CARTESIAN_POINT('',(13.575,19.24,11.));
#406 = VECTOR('',#407,1.);
#407 = DIRECTION('',(-1.,0.,0.));
#408 = FACE_BOUND('',#409,.F.);
#409 = EDGE_LOOP('',(#410,#411,#419,#427,#435,#443,#451,#457,#458,#459,
    #467,#475));
#410 = ORIENTED_EDGE('',*,*,#39,.F.);
#411 = ORIENTED_EDGE('',*,*,#412,.F.);
#412 = EDGE_CURVE('',#413,#32,#415,.T.);
#413 = VERTEX_POINT('',#414);
#414 = CARTESIAN_POINT('',(0.,17.2,11.));
#415 = LINE('',#416,#417);
#416 = CARTESIAN_POINT('',(0.,17.2,11.));
#417 = VECTOR('',#418,1.);
#418 = DIRECTION('',(0.,-1.,0.));
#419 = ORIENTED_EDGE('',*,*,#420,.F.);
#420 = EDGE_CURVE('',#421,#413,#423,.T.);
#421 = VERTEX_POINT('',#422);
#422 = CARTESIAN_POINT('',(3.,17.2,11.));
#423 = LINE('',#424,#425);
#424 = CARTESIAN_POINT('',(12.,17.2,11.));
#425 = VECTOR('',#426,1.);
#426 = DIRECTION('',(-1.,0.,0.));
#427 = ORIENTED_EDGE('',*,*,#428,.F.);
#428 = EDGE_CURVE('',#429,#421,#431,.T.);
#429 = VERTEX_POINT('',#430);
#430 = CARTESIAN_POINT('',(3.,18.,11.));
#431 = LINE('',#432,#433);
#432 = CARTESIAN_POINT('',(3.,18.,11.));
#433 = VECTOR('',#434,1.);
#434 = DIRECTION('',(0.,-1.,0.));
#435 = ORIENTED_EDGE('',*,*,#436,.T.);
#436 = EDGE_CURVE('',#429,#437,#439,.T.);
#437 = VERTEX_POINT('',#438);
#438 = CARTESIAN_POINT('',(9.,18.,11.));
#439 = LINE('',#440,#441);
#440 = CARTESIAN_POINT('',(3.,18.,11.));
#441 = VECTOR('',#442,1.);
#442 = DIRECTION('',(1.,0.,0.));
#443 = ORIENTED_EDGE('',*,*,#444,.T.);
#444 = EDGE_CURVE('',#437,#445,#447,.T.);
#445 = VERTEX_POINT('',#446);
#446 = CARTESIAN_POINT('',(9.,17.2,11.));
#447 = LINE('',#448,#449);
#448 = CARTESIAN_POINT('',(9.,18.,11.));
#449 = VECTOR('',#450,1.);
#450 = DIRECTION('',(0.,-1.,0.));
#451 = ORIENTED_EDGE('',*,*,#452,.F.);
#452 = EDGE_CURVE('',#347,#445,#453,.T.);
#453 = LINE('',#454,#455);
#454 = CARTESIAN_POINT('',(12.,17.2,11.));
#455 = VECTOR('',#456,1.);
#456 = DIRECTION('',(-1.,0.,0.));
#457 = ORIENTED_EDGE('',*,*,#346,.F.);
#458 = ORIENTED_EDGE('',*,*,#55,.F.);
#459 = ORIENTED_EDGE('',*,*,#460,.F.);
#460 = EDGE_CURVE('',#461,#48,#463,.T.);
#461 = VERTEX_POINT('',#462);
#462 = CARTESIAN_POINT('',(9.,-0.8,11.));
#463 = LINE('',#464,#465);
#464 = CARTESIAN_POINT('',(9.,-0.8,11.));
#465 = VECTOR('',#466,1.);
#466 = DIRECTION('',(0.,1.,0.));
#467 = ORIENTED_EDGE('',*,*,#468,.F.);
#468 = EDGE_CURVE('',#469,#461,#471,.T.);
#469 = VERTEX_POINT('',#470);
#470 = CARTESIAN_POINT('',(3.,-0.8,11.));
#471 = LINE('',#472,#473);
#472 = CARTESIAN_POINT('',(3.,-0.8,11.));
#473 = VECTOR('',#474,1.);
#474 = DIRECTION('',(1.,0.,0.));
#475 = ORIENTED_EDGE('',*,*,#476,.T.);
#476 = EDGE_CURVE('',#469,#40,#477,.T.);
#477 = LINE('',#478,#479);
#478 = CARTESIAN_POINT('',(3.,-0.8,11.));
#479 = VECTOR('',#480,1.);
#480 = DIRECTION('',(0.,1.,0.));
#481 = PLANE('',#482);
#482 = AXIS2_PLACEMENT_3D('',#483,#484,#485);
#483 = CARTESIAN_POINT('',(6.,8.6,11.));
#484 = DIRECTION('',(0.,0.,1.));
#485 = DIRECTION('',(1.,0.,0.));
#486 = ADVANCED_FACE('',(#487),#503,.T.);
#487 = FACE_BOUND('',#488,.T.);
#488 = EDGE_LOOP('',(#489,#490,#496,#497));
#489 = ORIENTED_EDGE('',*,*,#47,.T.);
#490 = ORIENTED_EDGE('',*,*,#491,.T.);
#491 = EDGE_CURVE('',#48,#280,#492,.T.);
#492 = LINE('',#493,#494);
#493 = CARTESIAN_POINT('',(9.,0.,11.));
#494 = VECTOR('',#495,1.);
#495 = DIRECTION('',(0.,-0.282166323992,-0.959365501571));
#496 = ORIENTED_EDGE('',*,*,#277,.F.);
#497 = ORIENTED_EDGE('',*,*,#498,.F.);
#498 = EDGE_CURVE('',#40,#278,#499,.T.);
#499 = LINE('',#500,#501);
#500 = CARTESIAN_POINT('',(3.,0.,11.));
#501 = VECTOR('',#502,1.);
#502 = DIRECTION('',(0.,-0.282166323992,-0.959365501571));
#503 = PLANE('',#504);
#504 = AXIS2_PLACEMENT_3D('',#505,#506,#507);
#505 = CARTESIAN_POINT('',(3.,0.,11.));
#506 = DIRECTION('',(0.,0.959365501571,-0.282166323992));
#507 = DIRECTION('',(0.,-0.282166323992,-0.959365501571));
#508 = ADVANCED_FACE('',(#509),#520,.F.);
#509 = FACE_BOUND('',#510,.F.);
#510 = EDGE_LOOP('',(#511,#517,#518,#519));
#511 = ORIENTED_EDGE('',*,*,#512,.T.);
#512 = EDGE_CURVE('',#102,#413,#513,.T.);
#513 = LINE('',#514,#515);
#514 = CARTESIAN_POINT('',(0.,17.2,0.));
#515 = VECTOR('',#516,1.);
#516 = DIRECTION('',(0.,0.,1.));
#517 = ORIENTED_EDGE('',*,*,#412,.T.);
#518 = ORIENTED_EDGE('',*,*,#31,.F.);
#519 = ORIENTED_EDGE('',*,*,#101,.F.);
#520 = PLANE('',#521);
#521 = AXIS2_PLACEMENT_3D('',#522,#523,#524);
#522 = CARTESIAN_POINT('',(0.,17.2,0.));
#523 = DIRECTION('',(1.,0.,0.));
#524 = DIRECTION('',(0.,-1.,0.));
#525 = ADVANCED_FACE('',(#526),#561,.F.);
#526 = FACE_BOUND('',#527,.F.);
#527 = EDGE_LOOP('',(#528,#536,#537,#538,#544,#545,#546,#547,#555));
#528 = ORIENTED_EDGE('',*,*,#529,.T.);
#529 = EDGE_CURVE('',#530,#355,#532,.T.);
#530 = VERTEX_POINT('',#531);
#531 = CARTESIAN_POINT('',(9.,17.2,3.));
#532 = LINE('',#533,#534);
#533 = CARTESIAN_POINT('',(3.,17.2,3.));
#534 = VECTOR('',#535,1.);
#535 = DIRECTION('',(1.,0.,0.));
#536 = ORIENTED_EDGE('',*,*,#354,.T.);
#537 = ORIENTED_EDGE('',*,*,#452,.T.);
#538 = ORIENTED_EDGE('',*,*,#539,.T.);
#539 = EDGE_CURVE('',#445,#421,#540,.T.);
#540 = LINE('',#541,#542);
#541 = CARTESIAN_POINT('',(12.,17.2,11.));
#542 = VECTOR('',#543,1.);
#543 = DIRECTION('',(-1.,0.,0.));
#544 = ORIENTED_EDGE('',*,*,#420,.T.);
#545 = ORIENTED_EDGE('',*,*,#512,.F.);
#546 = ORIENTED_EDGE('',*,*,#198,.F.);
#547 = ORIENTED_EDGE('',*,*,#548,.T.);
#548 = EDGE_CURVE('',#191,#549,#551,.T.);
#549 = VERTEX_POINT('',#550);
#550 = CARTESIAN_POINT('',(3.,17.2,3.));
#551 = LINE('',#552,#553);
#552 = CARTESIAN_POINT('',(3.,17.2,0.));
#553 = VECTOR('',#554,1.);
#554 = DIRECTION('',(0.,0.,1.));
#555 = ORIENTED_EDGE('',*,*,#556,.T.);
#556 = EDGE_CURVE('',#549,#530,#557,.T.);
#557 = LINE('',#558,#559);
#558 = CARTESIAN_POINT('',(3.,17.2,3.));
#559 = VECTOR('',#560,1.);
#560 = DIRECTION('',(1.,0.,0.));
#561 = PLANE('',#562);
#562 = AXIS2_PLACEMENT_3D('',#563,#564,#565);
#563 = CARTESIAN_POINT('',(12.,17.2,0.));
#564 = DIRECTION('',(0.,-1.,0.));
#565 = DIRECTION('',(-1.,0.,0.));
#566 = ADVANCED_FACE('',(#567),#615,.F.);
#567 = FACE_BOUND('',#568,.F.);
#568 = EDGE_LOOP('',(#569,#570,#578,#586,#592,#593,#601,#609));
#569 = ORIENTED_EDGE('',*,*,#158,.F.);
#570 = ORIENTED_EDGE('',*,*,#571,.T.);
#571 = EDGE_CURVE('',#151,#572,#574,.T.);
#572 = VERTEX_POINT('',#573);
#573 = CARTESIAN_POINT('',(12.,18.,0.));
#574 = LINE('',#575,#576);
#575 = CARTESIAN_POINT('',(12.,17.2,0.));
#576 = VECTOR('',#577,1.);
#577 = DIRECTION('',(0.,1.,-2.2E-16));
#578 = ORIENTED_EDGE('',*,*,#579,.T.);
#579 = EDGE_CURVE('',#572,#580,#582,.T.);
#580 = VERTEX_POINT('',#581);
#581 = CARTESIAN_POINT('',(3.,18.,0.));
#582 = LINE('',#583,#584);
#583 = CARTESIAN_POINT('',(12.,18.,0.));
#584 = VECTOR('',#585,1.);
#585 = DIRECTION('',(-1.,0.,0.));
#586 = ORIENTED_EDGE('',*,*,#587,.F.);
#587 = EDGE_CURVE('',#191,#580,#588,.T.);
#588 = LINE('',#589,#590);
#589 = CARTESIAN_POINT('',(3.,17.2,0.));
#590 = VECTOR('',#591,1.);
#591 = DIRECTION('',(0.,1.,-2.2E-16));
#592 = ORIENTED_EDGE('',*,*,#190,.F.);
#593 = ORIENTED_EDGE('',*,*,#594,.T.);
#594 = EDGE_CURVE('',#183,#595,#597,.T.);
#595 = VERTEX_POINT('',#596);
#596 = CARTESIAN_POINT('',(3.5,17.450000000035,0.));
#597 = LINE('',#598,#599);
#598 = CARTESIAN_POINT('',(3.5,13.349999999884,0.));
#599 = VECTOR('',#600,1.);
#600 = DIRECTION('',(0.,1.,0.));
#601 = ORIENTED_EDGE('',*,*,#602,.T.);
#602 = EDGE_CURVE('',#595,#603,#605,.T.);
#603 = VERTEX_POINT('',#604);
#604 = CARTESIAN_POINT('',(8.5,17.450000000035,0.));
#605 = LINE('',#606,#607);
#606 = CARTESIAN_POINT('',(3.5,17.450000000035,0.));
#607 = VECTOR('',#608,1.);
#608 = DIRECTION('',(1.,0.,0.));
#609 = ORIENTED_EDGE('',*,*,#610,.T.);
#610 = EDGE_CURVE('',#603,#159,#611,.T.);
#611 = LINE('',#612,#613);
#612 = CARTESIAN_POINT('',(8.5,17.450000000035,0.));
#613 = VECTOR('',#614,1.);
#614 = DIRECTION('',(0.,-1.,0.));
#615 = PLANE('',#616);
#616 = AXIS2_PLACEMENT_3D('',#617,#618,#619);
#617 = CARTESIAN_POINT('',(12.,17.2,0.));
#618 = DIRECTION('',(0.,2.2E-16,1.));
#619 = DIRECTION('',(-1.,0.,0.));
#620 = ADVANCED_FACE('',(#621),#647,.F.);
#621 = FACE_BOUND('',#622,.F.);
#622 = EDGE_LOOP('',(#623,#631,#639,#645,#646));
#623 = ORIENTED_EDGE('',*,*,#624,.T.);
#624 = EDGE_CURVE('',#175,#625,#627,.T.);
#625 = VERTEX_POINT('',#626);
#626 = CARTESIAN_POINT('',(3.5,13.349999999884,-1.8));
#627 = LINE('',#628,#629);
#628 = CARTESIAN_POINT('',(3.5,13.349999999884,0.));
#629 = VECTOR('',#630,1.);
#630 = DIRECTION('',(0.,0.,-1.));
#631 = ORIENTED_EDGE('',*,*,#632,.T.);
#632 = EDGE_CURVE('',#625,#633,#635,.T.);
#633 = VERTEX_POINT('',#634);
#634 = CARTESIAN_POINT('',(3.5,17.450000000035,-1.8));
#635 = LINE('',#636,#637);
#636 = CARTESIAN_POINT('',(3.5,13.349999999884,-1.8));
#637 = VECTOR('',#638,1.);
#638 = DIRECTION('',(0.,1.,0.));
#639 = ORIENTED_EDGE('',*,*,#640,.F.);
#640 = EDGE_CURVE('',#595,#633,#641,.T.);
#641 = LINE('',#642,#643);
#642 = CARTESIAN_POINT('',(3.5,17.450000000035,0.));
#643 = VECTOR('',#644,1.);
#644 = DIRECTION('',(0.,0.,-1.));
#645 = ORIENTED_EDGE('',*,*,#594,.F.);
#646 = ORIENTED_EDGE('',*,*,#182,.F.);
#647 = PLANE('',#648);
#648 = AXIS2_PLACEMENT_3D('',#649,#650,#651);
#649 = CARTESIAN_POINT('',(3.5,13.349999999884,0.));
#650 = DIRECTION('',(1.,0.,0.));
#651 = DIRECTION('',(0.,1.,0.));
#652 = ADVANCED_FACE('',(#653),#671,.F.);
#653 = FACE_BOUND('',#654,.F.);
#654 = EDGE_LOOP('',(#655,#663,#669,#670));
#655 = ORIENTED_EDGE('',*,*,#656,.T.);
#656 = EDGE_CURVE('',#167,#657,#659,.T.);
#657 = VERTEX_POINT('',#658);
#658 = CARTESIAN_POINT('',(8.5,13.349999999884,-1.8));
#659 = LINE('',#660,#661);
#660 = CARTESIAN_POINT('',(8.5,13.349999999884,0.));
#661 = VECTOR('',#662,1.);
#662 = DIRECTION('',(0.,0.,-1.));
#663 = ORIENTED_EDGE('',*,*,#664,.T.);
#664 = EDGE_CURVE('',#657,#625,#665,.T.);
#665 = LINE('',#666,#667);
#666 = CARTESIAN_POINT('',(8.5,13.349999999884,-1.8));
#667 = VECTOR('',#668,1.);
#668 = DIRECTION('',(-1.,0.,0.));
#669 = ORIENTED_EDGE('',*,*,#624,.F.);
#670 = ORIENTED_EDGE('',*,*,#174,.F.);
#671 = PLANE('',#672);
#672 = AXIS2_PLACEMENT_3D('',#673,#674,#675);
#673 = CARTESIAN_POINT('',(8.5,13.349999999884,0.));
#674 = DIRECTION('',(0.,1.,0.));
#675 = DIRECTION('',(-1.,0.,0.));
#676 = ADVANCED_FACE('',(#677),#696,.F.);
#677 = FACE_BOUND('',#678,.F.);
#678 = EDGE_LOOP('',(#679,#687,#693,#694,#695));
#679 = ORIENTED_EDGE('',*,*,#680,.T.);
#680 = EDGE_CURVE('',#603,#681,#683,.T.);
#681 = VERTEX_POINT('',#682);
#682 = CARTESIAN_POINT('',(8.5,17.450000000035,-1.8));
#683 = LINE('',#684,#685);
#684 = CARTESIAN_POINT('',(8.5,17.450000000035,0.));
#685 = VECTOR('',#686,1.);
#686 = DIRECTION('',(0.,0.,-1.));
#687 = ORIENTED_EDGE('',*,*,#688,.T.);
#688 = EDGE_CURVE('',#681,#657,#689,.T.);
#689 = LINE('',#690,#691);
#690 = CARTESIAN_POINT('',(8.5,17.450000000035,-1.8));
#691 = VECTOR('',#692,1.);
#692 = DIRECTION('',(0.,-1.,0.));
#693 = ORIENTED_EDGE('',*,*,#656,.F.);
#694 = ORIENTED_EDGE('',*,*,#166,.F.);
#695 = ORIENTED_EDGE('',*,*,#610,.F.);
#696 = PLANE('',#697);
#697 = AXIS2_PLACEMENT_3D('',#698,#699,#700);
#698 = CARTESIAN_POINT('',(8.5,17.450000000035,0.));
#699 = DIRECTION('',(-1.,-0.,-0.));
#700 = DIRECTION('',(0.,-1.,0.));
#701 = ADVANCED_FACE('',(#702),#743,.F.);
#702 = FACE_BOUND('',#703,.F.);
#703 = EDGE_LOOP('',(#704,#705,#706,#714,#720,#721,#729,#737));
#704 = ORIENTED_EDGE('',*,*,#110,.F.);
#705 = ORIENTED_EDGE('',*,*,#262,.T.);
#706 = ORIENTED_EDGE('',*,*,#707,.T.);
#707 = EDGE_CURVE('',#255,#708,#710,.T.);
#708 = VERTEX_POINT('',#709);
#709 = CARTESIAN_POINT('',(12.,-0.8,0.));
#710 = LINE('',#711,#712);
#711 = CARTESIAN_POINT('',(3.,-0.8,0.));
#712 = VECTOR('',#713,1.);
#713 = DIRECTION('',(1.,0.,0.));
#714 = ORIENTED_EDGE('',*,*,#715,.F.);
#715 = EDGE_CURVE('',#143,#708,#716,.T.);
#716 = LINE('',#717,#718);
#717 = CARTESIAN_POINT('',(12.,0.,0.));
#718 = VECTOR('',#719,1.);
#719 = DIRECTION('',(0.,-1.,2.2E-16));
#720 = ORIENTED_EDGE('',*,*,#142,.F.);
#721 = ORIENTED_EDGE('',*,*,#722,.T.);
#722 = EDGE_CURVE('',#135,#723,#725,.T.);
#723 = VERTEX_POINT('',#724);
#724 = CARTESIAN_POINT('',(8.5,-0.25,0.));
#725 = LINE('',#726,#727);
#726 = CARTESIAN_POINT('',(8.5,3.85,0.));
#727 = VECTOR('',#728,1.);
#728 = DIRECTION('',(0.,-1.,0.));
#729 = ORIENTED_EDGE('',*,*,#730,.T.);
#730 = EDGE_CURVE('',#723,#731,#733,.T.);
#731 = VERTEX_POINT('',#732);
#732 = CARTESIAN_POINT('',(3.5,-0.25,0.));
#733 = LINE('',#734,#735);
#734 = CARTESIAN_POINT('',(8.5,-0.25,0.));
#735 = VECTOR('',#736,1.);
#736 = DIRECTION('',(-1.,0.,0.));
#737 = ORIENTED_EDGE('',*,*,#738,.T.);
#738 = EDGE_CURVE('',#731,#111,#739,.T.);
#739 = LINE('',#740,#741);
#740 = CARTESIAN_POINT('',(3.5,-0.25,0.));
#741 = VECTOR('',#742,1.);
#742 = DIRECTION('',(0.,1.,0.));
#743 = PLANE('',#744);
#744 = AXIS2_PLACEMENT_3D('',#745,#746,#747);
#745 = CARTESIAN_POINT('',(3.,0.,0.));
#746 = DIRECTION('',(0.,2.2E-16,1.));
#747 = DIRECTION('',(1.,0.,0.));
#748 = ADVANCED_FACE('',(#749),#775,.F.);
#749 = FACE_BOUND('',#750,.F.);
#750 = EDGE_LOOP('',(#751,#759,#767,#773,#774));
#751 = ORIENTED_EDGE('',*,*,#752,.T.);
#752 = EDGE_CURVE('',#127,#753,#755,.T.);
#753 = VERTEX_POINT('',#754);
#754 = CARTESIAN_POINT('',(8.5,3.85,-1.8));
#755 = LINE('',#756,#757);
#756 = CARTESIAN_POINT('',(8.5,3.85,0.));
#757 = VECTOR('',#758,1.);
#758 = DIRECTION('',(0.,0.,-1.));
#759 = ORIENTED_EDGE('',*,*,#760,.T.);
#760 = EDGE_CURVE('',#753,#761,#763,.T.);
#761 = VERTEX_POINT('',#762);
#762 = CARTESIAN_POINT('',(8.5,-0.25,-1.8));
#763 = LINE('',#764,#765);
#764 = CARTESIAN_POINT('',(8.5,3.85,-1.8));
#765 = VECTOR('',#766,1.);
#766 = DIRECTION('',(0.,-1.,0.));
#767 = ORIENTED_EDGE('',*,*,#768,.F.);
#768 = EDGE_CURVE('',#723,#761,#769,.T.);
#769 = LINE('',#770,#771);
#770 = CARTESIAN_POINT('',(8.5,-0.25,0.));
#771 = VECTOR('',#772,1.);
#772 = DIRECTION('',(0.,0.,-1.));
#773 = ORIENTED_EDGE('',*,*,#722,.F.);
#774 = ORIENTED_EDGE('',*,*,#134,.F.);
#775 = PLANE('',#776);
#776 = AXIS2_PLACEMENT_3D('',#777,#778,#779);
#777 = CARTESIAN_POINT('',(8.5,3.85,0.));
#778 = DIRECTION('',(-1.,-0.,-0.));
#779 = DIRECTION('',(0.,-1.,0.));
#780 = ADVANCED_FACE('',(#781),#799,.F.);
#781 = FACE_BOUND('',#782,.F.);
#782 = EDGE_LOOP('',(#783,#791,#797,#798));
#783 = ORIENTED_EDGE('',*,*,#784,.T.);
#784 = EDGE_CURVE('',#119,#785,#787,.T.);
#785 = VERTEX_POINT('',#786);
#786 = CARTESIAN_POINT('',(3.5,3.85,-1.8));
#787 = LINE('',#788,#789);
#788 = CARTESIAN_POINT('',(3.5,3.85,0.));
#789 = VECTOR('',#790,1.);
#790 = DIRECTION('',(0.,0.,-1.));
#791 = ORIENTED_EDGE('',*,*,#792,.T.);
#792 = EDGE_CURVE('',#785,#753,#793,.T.);
#793 = LINE('',#794,#795);
#794 = CARTESIAN_POINT('',(3.5,3.85,-1.8));
#795 = VECTOR('',#796,1.);
#796 = DIRECTION('',(1.,0.,0.));
#797 = ORIENTED_EDGE('',*,*,#752,.F.);
#798 = ORIENTED_EDGE('',*,*,#126,.F.);
#799 = PLANE('',#800);
#800 = AXIS2_PLACEMENT_3D('',#801,#802,#803);
#801 = CARTESIAN_POINT('',(3.5,3.85,0.));
#802 = DIRECTION('',(0.,-1.,0.));
#803 = DIRECTION('',(1.,0.,0.));
#804 = ADVANCED_FACE('',(#805),#824,.F.);
#805 = FACE_BOUND('',#806,.F.);
#806 = EDGE_LOOP('',(#807,#815,#821,#822,#823));
#807 = ORIENTED_EDGE('',*,*,#808,.T.);
#808 = EDGE_CURVE('',#731,#809,#811,.T.);
#809 = VERTEX_POINT('',#810);
#810 = CARTESIAN_POINT('',(3.5,-0.25,-1.8));
#811 = LINE('',#812,#813);
#812 = CARTESIAN_POINT('',(3.5,-0.25,0.));
#813 = VECTOR('',#814,1.);
#814 = DIRECTION('',(0.,0.,-1.));
#815 = ORIENTED_EDGE('',*,*,#816,.T.);
#816 = EDGE_CURVE('',#809,#785,#817,.T.);
#817 = LINE('',#818,#819);
#818 = CARTESIAN_POINT('',(3.5,-0.25,-1.8));
#819 = VECTOR('',#820,1.);
#820 = DIRECTION('',(0.,1.,0.));
#821 = ORIENTED_EDGE('',*,*,#784,.F.);
#822 = ORIENTED_EDGE('',*,*,#118,.F.);
#823 = ORIENTED_EDGE('',*,*,#738,.F.);
#824 = PLANE('',#825);
#825 = AXIS2_PLACEMENT_3D('',#826,#827,#828);
#826 = CARTESIAN_POINT('',(3.5,-0.25,0.));
#827 = DIRECTION('',(1.,0.,0.));
#828 = DIRECTION('',(0.,1.,0.));
#829 = ADVANCED_FACE('',(#830),#855,.F.);
#830 = FACE_BOUND('',#831,.F.);
#831 = EDGE_LOOP('',(#832,#840,#848,#854));
#832 = ORIENTED_EDGE('',*,*,#833,.T.);
#833 = EDGE_CURVE('',#207,#834,#836,.T.);
#834 = VERTEX_POINT('',#835);
#835 = CARTESIAN_POINT('',(8.5,6.549999999966,-1.8));
#836 = LINE('',#837,#838);
#837 = CARTESIAN_POINT('',(8.5,6.549999999966,0.));
#838 = VECTOR('',#839,1.);
#839 = DIRECTION('',(0.,0.,-1.));
#840 = ORIENTED_EDGE('',*,*,#841,.T.);
#841 = EDGE_CURVE('',#834,#842,#844,.T.);
#842 = VERTEX_POINT('',#843);
#843 = CARTESIAN_POINT('',(3.5,6.549999999966,-1.8));
#844 = LINE('',#845,#846);
#845 = CARTESIAN_POINT('',(8.5,6.549999999966,-1.8));
#846 = VECTOR('',#847,1.);
#847 = DIRECTION('',(-1.,0.,0.));
#848 = ORIENTED_EDGE('',*,*,#849,.F.);
#849 = EDGE_CURVE('',#209,#842,#850,.T.);
#850 = LINE('',#851,#852);
#851 = CARTESIAN_POINT('',(3.5,6.549999999966,0.));
#852 = VECTOR('',#853,1.);
#853 = DIRECTION('',(0.,0.,-1.));
#854 = ORIENTED_EDGE('',*,*,#206,.F.);
#855 = PLANE('',#856);
#856 = AXIS2_PLACEMENT_3D('',#857,#858,#859);
#857 = CARTESIAN_POINT('',(8.5,6.549999999966,0.));
#858 = DIRECTION('',(0.,1.,0.));
#859 = DIRECTION('',(-1.,0.,0.));
#860 = ADVANCED_FACE('',(#861),#879,.F.);
#861 = FACE_BOUND('',#862,.F.);
#862 = EDGE_LOOP('',(#863,#871,#877,#878));
#863 = ORIENTED_EDGE('',*,*,#864,.T.);
#864 = EDGE_CURVE('',#225,#865,#867,.T.);
#865 = VERTEX_POINT('',#866);
#866 = CARTESIAN_POINT('',(8.5,10.650000000034,-1.8));
#867 = LINE('',#868,#869);
#868 = CARTESIAN_POINT('',(8.5,10.650000000034,0.));
#869 = VECTOR('',#870,1.);
#870 = DIRECTION('',(0.,0.,-1.));
#871 = ORIENTED_EDGE('',*,*,#872,.T.);
#872 = EDGE_CURVE('',#865,#834,#873,.T.);
#873 = LINE('',#874,#875);
#874 = CARTESIAN_POINT('',(8.5,10.650000000034,-1.8));
#875 = VECTOR('',#876,1.);
#876 = DIRECTION('',(0.,-1.,0.));
#877 = ORIENTED_EDGE('',*,*,#833,.F.);
#878 = ORIENTED_EDGE('',*,*,#232,.F.);
#879 = PLANE('',#880);
#880 = AXIS2_PLACEMENT_3D('',#881,#882,#883);
#881 = CARTESIAN_POINT('',(8.5,10.650000000034,0.));
#882 = DIRECTION('',(-1.,-0.,-0.));
#883 = DIRECTION('',(0.,-1.,0.));
#884 = ADVANCED_FACE('',(#885),#903,.F.);
#885 = FACE_BOUND('',#886,.F.);
#886 = EDGE_LOOP('',(#887,#895,#901,#902));
#887 = ORIENTED_EDGE('',*,*,#888,.T.);
#888 = EDGE_CURVE('',#217,#889,#891,.T.);
#889 = VERTEX_POINT('',#890);
#890 = CARTESIAN_POINT('',(3.5,10.650000000034,-1.8));
#891 = LINE('',#892,#893);
#892 = CARTESIAN_POINT('',(3.5,10.650000000034,0.));
#893 = VECTOR('',#894,1.);
#894 = DIRECTION('',(0.,0.,-1.));
#895 = ORIENTED_EDGE('',*,*,#896,.T.);
#896 = EDGE_CURVE('',#889,#865,#897,.T.);
#897 = LINE('',#898,#899);
#898 = CARTESIAN_POINT('',(3.5,10.650000000034,-1.8));
#899 = VECTOR('',#900,1.);
#900 = DIRECTION('',(1.,0.,0.));
#901 = ORIENTED_EDGE('',*,*,#864,.F.);
#902 = ORIENTED_EDGE('',*,*,#224,.F.);
#903 = PLANE('',#904);
#904 = AXIS2_PLACEMENT_3D('',#905,#906,#907);
#905 = CARTESIAN_POINT('',(3.5,10.650000000034,0.));
#906 = DIRECTION('',(0.,-1.,0.));
#907 = DIRECTION('',(1.,0.,0.));
#908 = ADVANCED_FACE('',(#909),#920,.F.);
#909 = FACE_BOUND('',#910,.F.);
#910 = EDGE_LOOP('',(#911,#912,#918,#919));
#911 = ORIENTED_EDGE('',*,*,#849,.T.);
#912 = ORIENTED_EDGE('',*,*,#913,.T.);
#913 = EDGE_CURVE('',#842,#889,#914,.T.);
#914 = LINE('',#915,#916);
#915 = CARTESIAN_POINT('',(3.5,6.549999999966,-1.8));
#916 = VECTOR('',#917,1.);
#917 = DIRECTION('',(0.,1.,0.));
#918 = ORIENTED_EDGE('',*,*,#888,.F.);
#919 = ORIENTED_EDGE('',*,*,#216,.F.);
#920 = PLANE('',#921);
#921 = AXIS2_PLACEMENT_3D('',#922,#923,#924);
#922 = CARTESIAN_POINT('',(3.5,6.549999999966,0.));
#923 = DIRECTION('',(1.,0.,0.));
#924 = DIRECTION('',(0.,1.,0.));
#925 = ADVANCED_FACE('',(#926),#946,.F.);
#926 = FACE_BOUND('',#927,.T.);
#927 = EDGE_LOOP('',(#928,#936,#942,#943,#944,#945));
#928 = ORIENTED_EDGE('',*,*,#929,.T.);
#929 = EDGE_CURVE('',#247,#930,#932,.T.);
#930 = VERTEX_POINT('',#931);
#931 = CARTESIAN_POINT('',(3.,-1.8,7.6));
#932 = LINE('',#933,#934);
#933 = CARTESIAN_POINT('',(3.,-0.8,3.));
#934 = VECTOR('',#935,1.);
#935 = DIRECTION('',(0.,-0.212429644331,0.977176363923));
#936 = ORIENTED_EDGE('',*,*,#937,.T.);
#937 = EDGE_CURVE('',#930,#469,#938,.T.);
#938 = LINE('',#939,#940);
#939 = CARTESIAN_POINT('',(3.,-1.8,7.6));
#940 = VECTOR('',#941,1.);
#941 = DIRECTION('',(0.,0.282166323992,0.959365501571));
#942 = ORIENTED_EDGE('',*,*,#476,.T.);
#943 = ORIENTED_EDGE('',*,*,#498,.T.);
#944 = ORIENTED_EDGE('',*,*,#294,.T.);
#945 = ORIENTED_EDGE('',*,*,#246,.T.);
#946 = PLANE('',#947);
#947 = AXIS2_PLACEMENT_3D('',#948,#949,#950);
#948 = CARTESIAN_POINT('',(3.,8.6,7.016414078086));
#949 = DIRECTION('',(1.,0.,0.));
#950 = DIRECTION('',(0.,0.,1.));
#951 = ADVANCED_FACE('',(#952),#969,.F.);
#952 = FACE_BOUND('',#953,.T.);
#953 = EDGE_LOOP('',(#954,#960,#961,#967,#968));
#954 = ORIENTED_EDGE('',*,*,#955,.T.);
#955 = EDGE_CURVE('',#708,#310,#956,.T.);
#956 = LINE('',#957,#958);
#957 = CARTESIAN_POINT('',(12.,-0.8,0.));
#958 = VECTOR('',#959,1.);
#959 = DIRECTION('',(0.,0.,1.));
#960 = ORIENTED_EDGE('',*,*,#317,.T.);
#961 = ORIENTED_EDGE('',*,*,#962,.T.);
#962 = EDGE_CURVE('',#318,#247,#963,.T.);
#963 = LINE('',#964,#965);
#964 = CARTESIAN_POINT('',(12.,-0.8,3.));
#965 = VECTOR('',#966,1.);
#966 = DIRECTION('',(-1.,0.,0.));
#967 = ORIENTED_EDGE('',*,*,#254,.T.);
#968 = ORIENTED_EDGE('',*,*,#707,.T.);
#969 = PLANE('',#970);
#970 = AXIS2_PLACEMENT_3D('',#971,#972,#973);
#971 = CARTESIAN_POINT('',(7.5,-0.8,1.5));
#972 = DIRECTION('',(0.,1.,0.));
#973 = DIRECTION('',(0.,0.,1.));
#974 = ADVANCED_FACE('',(#975),#995,.T.);
#975 = FACE_BOUND('',#976,.F.);
#976 = EDGE_LOOP('',(#977,#985,#991,#992,#993,#994));
#977 = ORIENTED_EDGE('',*,*,#978,.T.);
#978 = EDGE_CURVE('',#318,#979,#981,.T.);
#979 = VERTEX_POINT('',#980);
#980 = CARTESIAN_POINT('',(9.,-1.8,7.6));
#981 = LINE('',#982,#983);
#982 = CARTESIAN_POINT('',(9.,-0.8,3.));
#983 = VECTOR('',#984,1.);
#984 = DIRECTION('',(0.,-0.212429644331,0.977176363923));
#985 = ORIENTED_EDGE('',*,*,#986,.T.);
#986 = EDGE_CURVE('',#979,#461,#987,.T.);
#987 = LINE('',#988,#989);
#988 = CARTESIAN_POINT('',(9.,-1.8,7.6));
#989 = VECTOR('',#990,1.);
#990 = DIRECTION('',(0.,0.282166323992,0.959365501571));
#991 = ORIENTED_EDGE('',*,*,#460,.T.);
#992 = ORIENTED_EDGE('',*,*,#491,.T.);
#993 = ORIENTED_EDGE('',*,*,#287,.T.);
#994 = ORIENTED_EDGE('',*,*,#325,.T.);
#995 = PLANE('',#996);
#996 = AXIS2_PLACEMENT_3D('',#997,#998,#999);
#997 = CARTESIAN_POINT('',(9.,8.6,7.016414078086));
#998 = DIRECTION('',(1.,0.,0.));
#999 = DIRECTION('',(0.,0.,1.));
#1000 = ADVANCED_FACE('',(#1001),#1007,.F.);
#1001 = FACE_BOUND('',#1002,.F.);
#1002 = EDGE_LOOP('',(#1003,#1004,#1005,#1006));
#1003 = ORIENTED_EDGE('',*,*,#715,.T.);
#1004 = ORIENTED_EDGE('',*,*,#955,.T.);
#1005 = ORIENTED_EDGE('',*,*,#309,.F.);
#1006 = ORIENTED_EDGE('',*,*,#339,.F.);
#1007 = PLANE('',#1008);
#1008 = AXIS2_PLACEMENT_3D('',#1009,#1010,#1011);
#1009 = CARTESIAN_POINT('',(12.,0.,0.));
#1010 = DIRECTION('',(-1.,0.,0.));
#1011 = DIRECTION('',(0.,2.2E-16,1.));
#1012 = ADVANCED_FACE('',(#1013),#1031,.F.);
#1013 = FACE_BOUND('',#1014,.F.);
#1014 = EDGE_LOOP('',(#1015,#1023,#1029,#1030));
#1015 = ORIENTED_EDGE('',*,*,#1016,.T.);
#1016 = EDGE_CURVE('',#355,#1017,#1019,.T.);
#1017 = VERTEX_POINT('',#1018);
#1018 = CARTESIAN_POINT('',(12.,18.,3.));
#1019 = LINE('',#1020,#1021);
#1020 = CARTESIAN_POINT('',(12.,17.2,3.));
#1021 = VECTOR('',#1022,1.);
#1022 = DIRECTION('',(0.,1.,-2.2E-16));
#1023 = ORIENTED_EDGE('',*,*,#1024,.T.);
#1024 = EDGE_CURVE('',#1017,#572,#1025,.T.);
#1025 = LINE('',#1026,#1027);
#1026 = CARTESIAN_POINT('',(12.,18.,3.));
#1027 = VECTOR('',#1028,1.);
#1028 = DIRECTION('',(0.,0.,-1.));
#1029 = ORIENTED_EDGE('',*,*,#571,.F.);
#1030 = ORIENTED_EDGE('',*,*,#362,.T.);
#1031 = PLANE('',#1032);
#1032 = AXIS2_PLACEMENT_3D('',#1033,#1034,#1035);
#1033 = CARTESIAN_POINT('',(12.,17.2,3.));
#1034 = DIRECTION('',(-1.,0.,0.));
#1035 = DIRECTION('',(0.,-2.2E-16,-1.));
#1036 = ADVANCED_FACE('',(#1037),#1062,.F.);
#1037 = FACE_BOUND('',#1038,.F.);
#1038 = EDGE_LOOP('',(#1039,#1040,#1048,#1056));
#1039 = ORIENTED_EDGE('',*,*,#377,.F.);
#1040 = ORIENTED_EDGE('',*,*,#1041,.T.);
#1041 = EDGE_CURVE('',#378,#1042,#1044,.T.);
#1042 = VERTEX_POINT('',#1043);
#1043 = CARTESIAN_POINT('',(-1.575,19.24,12.5));
#1044 = LINE('',#1045,#1046);
#1045 = CARTESIAN_POINT('',(-1.575,19.24,11.));
#1046 = VECTOR('',#1047,1.);
#1047 = DIRECTION('',(0.,0.,1.));
#1048 = ORIENTED_EDGE('',*,*,#1049,.T.);
#1049 = EDGE_CURVE('',#1042,#1050,#1052,.T.);
#1050 = VERTEX_POINT('',#1051);
#1051 = CARTESIAN_POINT('',(-1.575,-2.04,12.5));
#1052 = LINE('',#1053,#1054);
#1053 = CARTESIAN_POINT('',(-1.575,19.24,12.5));
#1054 = VECTOR('',#1055,1.);
#1055 = DIRECTION('',(0.,-1.,0.));
#1056 = ORIENTED_EDGE('',*,*,#1057,.F.);
#1057 = EDGE_CURVE('',#380,#1050,#1058,.T.);
#1058 = LINE('',#1059,#1060);
#1059 = CARTESIAN_POINT('',(-1.575,-2.04,11.));
#1060 = VECTOR('',#1061,1.);
#1061 = DIRECTION('',(0.,0.,1.));
#1062 = PLANE('',#1063);
#1063 = AXIS2_PLACEMENT_3D('',#1064,#1065,#1066);
#1064 = CARTESIAN_POINT('',(-1.575,19.24,11.));
#1065 = DIRECTION('',(1.,0.,0.));
#1066 = DIRECTION('',(0.,-1.,0.));
#1067 = ADVANCED_FACE('',(#1068),#1086,.F.);
#1068 = FACE_BOUND('',#1069,.F.);
#1069 = EDGE_LOOP('',(#1070,#1071,#1079,#1085));
#1070 = ORIENTED_EDGE('',*,*,#403,.F.);
#1071 = ORIENTED_EDGE('',*,*,#1072,.T.);
#1072 = EDGE_CURVE('',#396,#1073,#1075,.T.);
#1073 = VERTEX_POINT('',#1074);
#1074 = CARTESIAN_POINT('',(13.575,19.24,12.5));
#1075 = LINE('',#1076,#1077);
#1076 = CARTESIAN_POINT('',(13.575,19.24,11.));
#1077 = VECTOR('',#1078,1.);
#1078 = DIRECTION('',(0.,0.,1.));
#1079 = ORIENTED_EDGE('',*,*,#1080,.T.);
#1080 = EDGE_CURVE('',#1073,#1042,#1081,.T.);
#1081 = LINE('',#1082,#1083);
#1082 = CARTESIAN_POINT('',(13.575,19.24,12.5));
#1083 = VECTOR('',#1084,1.);
#1084 = DIRECTION('',(-1.,-0.,-0.));
#1085 = ORIENTED_EDGE('',*,*,#1041,.F.);
#1086 = PLANE('',#1087);
#1087 = AXIS2_PLACEMENT_3D('',#1088,#1089,#1090);
#1088 = CARTESIAN_POINT('',(13.575,19.24,11.));
#1089 = DIRECTION('',(0.,-1.,0.));
#1090 = DIRECTION('',(-1.,0.,0.));
#1091 = ADVANCED_FACE('',(#1092),#1110,.F.);
#1092 = FACE_BOUND('',#1093,.F.);
#1093 = EDGE_LOOP('',(#1094,#1095,#1096,#1104));
#1094 = ORIENTED_EDGE('',*,*,#387,.F.);
#1095 = ORIENTED_EDGE('',*,*,#1057,.T.);
#1096 = ORIENTED_EDGE('',*,*,#1097,.F.);
#1097 = EDGE_CURVE('',#1098,#1050,#1100,.T.);
#1098 = VERTEX_POINT('',#1099);
#1099 = CARTESIAN_POINT('',(13.575,-2.04,12.5));
#1100 = LINE('',#1101,#1102);
#1101 = CARTESIAN_POINT('',(13.575,-2.04,12.5));
#1102 = VECTOR('',#1103,1.);
#1103 = DIRECTION('',(-1.,-0.,-0.));
#1104 = ORIENTED_EDGE('',*,*,#1105,.F.);
#1105 = EDGE_CURVE('',#388,#1098,#1106,.T.);
#1106 = LINE('',#1107,#1108);
#1107 = CARTESIAN_POINT('',(13.575,-2.04,11.));
#1108 = VECTOR('',#1109,1.);
#1109 = DIRECTION('',(0.,0.,1.));
#1110 = PLANE('',#1111);
#1111 = AXIS2_PLACEMENT_3D('',#1112,#1113,#1114);
#1112 = CARTESIAN_POINT('',(-1.575,-2.04,11.));
#1113 = DIRECTION('',(0.,1.,0.));
#1114 = DIRECTION('',(1.,0.,0.));
#1115 = ADVANCED_FACE('',(#1116),#1127,.F.);
#1116 = FACE_BOUND('',#1117,.F.);
#1117 = EDGE_LOOP('',(#1118,#1119,#1120,#1126));
#1118 = ORIENTED_EDGE('',*,*,#395,.F.);
#1119 = ORIENTED_EDGE('',*,*,#1105,.T.);
#1120 = ORIENTED_EDGE('',*,*,#1121,.F.);
#1121 = EDGE_CURVE('',#1073,#1098,#1122,.T.);
#1122 = LINE('',#1123,#1124);
#1123 = CARTESIAN_POINT('',(13.575,19.24,12.5));
#1124 = VECTOR('',#1125,1.);
#1125 = DIRECTION('',(0.,-1.,0.));
#1126 = ORIENTED_EDGE('',*,*,#1072,.F.);
#1127 = PLANE('',#1128);
#1128 = AXIS2_PLACEMENT_3D('',#1129,#1130,#1131);
#1129 = CARTESIAN_POINT('',(13.575,-2.04,11.));
#1130 = DIRECTION('',(-1.,0.,0.));
#1131 = DIRECTION('',(0.,1.,0.));
#1132 = ADVANCED_FACE('',(#1133),#1144,.T.);
#1133 = FACE_BOUND('',#1134,.T.);
#1134 = EDGE_LOOP('',(#1135,#1141,#1142,#1143));
#1135 = ORIENTED_EDGE('',*,*,#1136,.T.);
#1136 = EDGE_CURVE('',#930,#979,#1137,.T.);
#1137 = LINE('',#1138,#1139);
#1138 = CARTESIAN_POINT('',(3.,-1.8,7.6));
#1139 = VECTOR('',#1140,1.);
#1140 = DIRECTION('',(1.,0.,0.));
#1141 = ORIENTED_EDGE('',*,*,#986,.T.);
#1142 = ORIENTED_EDGE('',*,*,#468,.F.);
#1143 = ORIENTED_EDGE('',*,*,#937,.F.);
#1144 = PLANE('',#1145);
#1145 = AXIS2_PLACEMENT_3D('',#1146,#1147,#1148);
#1146 = CARTESIAN_POINT('',(3.,-1.8,7.6));
#1147 = DIRECTION('',(0.,-0.959365501571,0.282166323992));
#1148 = DIRECTION('',(0.,0.282166323992,0.959365501571));
#1149 = ADVANCED_FACE('',(#1150),#1189,.T.);
#1150 = FACE_BOUND('',#1151,.F.);
#1151 = EDGE_LOOP('',(#1152,#1160,#1166,#1167,#1175,#1183));
#1152 = ORIENTED_EDGE('',*,*,#1153,.T.);
#1153 = EDGE_CURVE('',#530,#1154,#1156,.T.);
#1154 = VERTEX_POINT('',#1155);
#1155 = CARTESIAN_POINT('',(9.,18.2,7.6));
#1156 = LINE('',#1157,#1158);
#1157 = CARTESIAN_POINT('',(9.,17.2,3.));
#1158 = VECTOR('',#1159,1.);
#1159 = DIRECTION('',(0.,0.212429644331,0.977176363923));
#1160 = ORIENTED_EDGE('',*,*,#1161,.T.);
#1161 = EDGE_CURVE('',#1154,#445,#1162,.T.);
#1162 = LINE('',#1163,#1164);
#1163 = CARTESIAN_POINT('',(9.,18.2,7.6));
#1164 = VECTOR('',#1165,1.);
#1165 = DIRECTION('',(0.,-0.282166323992,0.959365501571));
#1166 = ORIENTED_EDGE('',*,*,#444,.F.);
#1167 = ORIENTED_EDGE('',*,*,#1168,.F.);
#1168 = EDGE_CURVE('',#1169,#437,#1171,.T.);
#1169 = VERTEX_POINT('',#1170);
#1170 = CARTESIAN_POINT('',(9.,19.,7.6));
#1171 = LINE('',#1172,#1173);
#1172 = CARTESIAN_POINT('',(9.,19.,7.6));
#1173 = VECTOR('',#1174,1.);
#1174 = DIRECTION('',(0.,-0.282166323992,0.959365501571));
#1175 = ORIENTED_EDGE('',*,*,#1176,.F.);
#1176 = EDGE_CURVE('',#1177,#1169,#1179,.T.);
#1177 = VERTEX_POINT('',#1178);
#1178 = CARTESIAN_POINT('',(9.,18.,3.));
#1179 = LINE('',#1180,#1181);
#1180 = CARTESIAN_POINT('',(9.,18.,3.));
#1181 = VECTOR('',#1182,1.);
#1182 = DIRECTION('',(0.,0.212429644331,0.977176363923));
#1183 = ORIENTED_EDGE('',*,*,#1184,.F.);
#1184 = EDGE_CURVE('',#530,#1177,#1185,.T.);
#1185 = LINE('',#1186,#1187);
#1186 = CARTESIAN_POINT('',(9.,17.2,3.));
#1187 = VECTOR('',#1188,1.);
#1188 = DIRECTION('',(0.,1.,0.));
#1189 = PLANE('',#1190);
#1190 = AXIS2_PLACEMENT_3D('',#1191,#1192,#1193);
#1191 = CARTESIAN_POINT('',(9.,8.6,7.016414078086));
#1192 = DIRECTION('',(1.,0.,0.));
#1193 = DIRECTION('',(0.,0.,1.));
#1194 = ADVANCED_FACE('',(#1195),#1213,.F.);
#1195 = FACE_BOUND('',#1196,.F.);
#1196 = EDGE_LOOP('',(#1197,#1205,#1206,#1207));
#1197 = ORIENTED_EDGE('',*,*,#1198,.T.);
#1198 = EDGE_CURVE('',#1199,#1169,#1201,.T.);
#1199 = VERTEX_POINT('',#1200);
#1200 = CARTESIAN_POINT('',(3.,19.,7.6));
#1201 = LINE('',#1202,#1203);
#1202 = CARTESIAN_POINT('',(3.,19.,7.6));
#1203 = VECTOR('',#1204,1.);
#1204 = DIRECTION('',(1.,0.,0.));
#1205 = ORIENTED_EDGE('',*,*,#1168,.T.);
#1206 = ORIENTED_EDGE('',*,*,#436,.F.);
#1207 = ORIENTED_EDGE('',*,*,#1208,.F.);
#1208 = EDGE_CURVE('',#1199,#429,#1209,.T.);
#1209 = LINE('',#1210,#1211);
#1210 = CARTESIAN_POINT('',(3.,19.,7.6));
#1211 = VECTOR('',#1212,1.);
#1212 = DIRECTION('',(0.,-0.282166323992,0.959365501571));
#1213 = PLANE('',#1214);
#1214 = AXIS2_PLACEMENT_3D('',#1215,#1216,#1217);
#1215 = CARTESIAN_POINT('',(3.,19.,7.6));
#1216 = DIRECTION('',(0.,-0.959365501571,-0.282166323992));
#1217 = DIRECTION('',(0.,-0.282166323992,0.959365501571));
#1218 = ADVANCED_FACE('',(#1219),#1251,.F.);
#1219 = FACE_BOUND('',#1220,.T.);
#1220 = EDGE_LOOP('',(#1221,#1229,#1235,#1236,#1237,#1245));
#1221 = ORIENTED_EDGE('',*,*,#1222,.T.);
#1222 = EDGE_CURVE('',#549,#1223,#1225,.T.);
#1223 = VERTEX_POINT('',#1224);
#1224 = CARTESIAN_POINT('',(3.,18.2,7.6));
#1225 = LINE('',#1226,#1227);
#1226 = CARTESIAN_POINT('',(3.,17.2,3.));
#1227 = VECTOR('',#1228,1.);
#1228 = DIRECTION('',(0.,0.212429644331,0.977176363923));
#1229 = ORIENTED_EDGE('',*,*,#1230,.T.);
#1230 = EDGE_CURVE('',#1223,#421,#1231,.T.);
#1231 = LINE('',#1232,#1233);
#1232 = CARTESIAN_POINT('',(3.,18.2,7.6));
#1233 = VECTOR('',#1234,1.);
#1234 = DIRECTION('',(0.,-0.282166323992,0.959365501571));
#1235 = ORIENTED_EDGE('',*,*,#428,.F.);
#1236 = ORIENTED_EDGE('',*,*,#1208,.F.);
#1237 = ORIENTED_EDGE('',*,*,#1238,.F.);
#1238 = EDGE_CURVE('',#1239,#1199,#1241,.T.);
#1239 = VERTEX_POINT('',#1240);
#1240 = CARTESIAN_POINT('',(3.,18.,3.));
#1241 = LINE('',#1242,#1243);
#1242 = CARTESIAN_POINT('',(3.,18.,3.));
#1243 = VECTOR('',#1244,1.);
#1244 = DIRECTION('',(0.,0.212429644331,0.977176363923));
#1245 = ORIENTED_EDGE('',*,*,#1246,.F.);
#1246 = EDGE_CURVE('',#549,#1239,#1247,.T.);
#1247 = LINE('',#1248,#1249);
#1248 = CARTESIAN_POINT('',(3.,17.2,3.));
#1249 = VECTOR('',#1250,1.);
#1250 = DIRECTION('',(0.,1.,-2.2E-16));
#1251 = PLANE('',#1252);
#1252 = AXIS2_PLACEMENT_3D('',#1253,#1254,#1255);
#1253 = CARTESIAN_POINT('',(3.,8.6,7.016414078086));
#1254 = DIRECTION('',(1.,0.,0.));
#1255 = DIRECTION('',(0.,0.,1.));
#1256 = ADVANCED_FACE('',(#1257),#1268,.F.);
#1257 = FACE_BOUND('',#1258,.F.);
#1258 = EDGE_LOOP('',(#1259,#1260,#1261,#1267));
#1259 = ORIENTED_EDGE('',*,*,#529,.F.);
#1260 = ORIENTED_EDGE('',*,*,#1184,.T.);
#1261 = ORIENTED_EDGE('',*,*,#1262,.T.);
#1262 = EDGE_CURVE('',#1177,#1017,#1263,.T.);
#1263 = LINE('',#1264,#1265);
#1264 = CARTESIAN_POINT('',(3.,18.,3.));
#1265 = VECTOR('',#1266,1.);
#1266 = DIRECTION('',(1.,0.,0.));
#1267 = ORIENTED_EDGE('',*,*,#1016,.F.);
#1268 = PLANE('',#1269);
#1269 = AXIS2_PLACEMENT_3D('',#1270,#1271,#1272);
#1270 = CARTESIAN_POINT('',(3.,17.2,3.));
#1271 = DIRECTION('',(0.,-2.2E-16,-1.));
#1272 = DIRECTION('',(1.,0.,0.));
#1273 = ADVANCED_FACE('',(#1274),#1285,.T.);
#1274 = FACE_BOUND('',#1275,.T.);
#1275 = EDGE_LOOP('',(#1276,#1277,#1278,#1284));
#1276 = ORIENTED_EDGE('',*,*,#556,.T.);
#1277 = ORIENTED_EDGE('',*,*,#1153,.T.);
#1278 = ORIENTED_EDGE('',*,*,#1279,.F.);
#1279 = EDGE_CURVE('',#1223,#1154,#1280,.T.);
#1280 = LINE('',#1281,#1282);
#1281 = CARTESIAN_POINT('',(3.,18.2,7.6));
#1282 = VECTOR('',#1283,1.);
#1283 = DIRECTION('',(1.,0.,0.));
#1284 = ORIENTED_EDGE('',*,*,#1222,.F.);
#1285 = PLANE('',#1286);
#1286 = AXIS2_PLACEMENT_3D('',#1287,#1288,#1289);
#1287 = CARTESIAN_POINT('',(3.,17.2,3.));
#1288 = DIRECTION('',(0.,-0.977176363923,0.212429644331));
#1289 = DIRECTION('',(0.,0.212429644331,0.977176363923));
#1290 = ADVANCED_FACE('',(#1291),#1302,.F.);
#1291 = FACE_BOUND('',#1292,.F.);
#1292 = EDGE_LOOP('',(#1293,#1294,#1300,#1301));
#1293 = ORIENTED_EDGE('',*,*,#587,.T.);
#1294 = ORIENTED_EDGE('',*,*,#1295,.T.);
#1295 = EDGE_CURVE('',#580,#1239,#1296,.T.);
#1296 = LINE('',#1297,#1298);
#1297 = CARTESIAN_POINT('',(3.,18.,0.));
#1298 = VECTOR('',#1299,1.);
#1299 = DIRECTION('',(0.,0.,1.));
#1300 = ORIENTED_EDGE('',*,*,#1246,.F.);
#1301 = ORIENTED_EDGE('',*,*,#548,.F.);
#1302 = PLANE('',#1303);
#1303 = AXIS2_PLACEMENT_3D('',#1304,#1305,#1306);
#1304 = CARTESIAN_POINT('',(3.,17.2,0.));
#1305 = DIRECTION('',(1.,0.,0.));
#1306 = DIRECTION('',(0.,2.2E-16,1.));
#1307 = ADVANCED_FACE('',(#1308),#1314,.T.);
#1308 = FACE_BOUND('',#1309,.T.);
#1309 = EDGE_LOOP('',(#1310,#1311,#1312,#1313));
#1310 = ORIENTED_EDGE('',*,*,#1279,.T.);
#1311 = ORIENTED_EDGE('',*,*,#1161,.T.);
#1312 = ORIENTED_EDGE('',*,*,#539,.T.);
#1313 = ORIENTED_EDGE('',*,*,#1230,.F.);
#1314 = PLANE('',#1315);
#1315 = AXIS2_PLACEMENT_3D('',#1316,#1317,#1318);
#1316 = CARTESIAN_POINT('',(3.,18.2,7.6));
#1317 = DIRECTION('',(0.,-0.959365501571,-0.282166323992));
#1318 = DIRECTION('',(0.,-0.282166323992,0.959365501571));
#1319 = ADVANCED_FACE('',(#1320),#1331,.F.);
#1320 = FACE_BOUND('',#1321,.F.);
#1321 = EDGE_LOOP('',(#1322,#1323,#1329,#1330));
#1322 = ORIENTED_EDGE('',*,*,#640,.T.);
#1323 = ORIENTED_EDGE('',*,*,#1324,.T.);
#1324 = EDGE_CURVE('',#633,#681,#1325,.T.);
#1325 = LINE('',#1326,#1327);
#1326 = CARTESIAN_POINT('',(3.5,17.450000000035,-1.8));
#1327 = VECTOR('',#1328,1.);
#1328 = DIRECTION('',(1.,0.,0.));
#1329 = ORIENTED_EDGE('',*,*,#680,.F.);
#1330 = ORIENTED_EDGE('',*,*,#602,.F.);
#1331 = PLANE('',#1332);
#1332 = AXIS2_PLACEMENT_3D('',#1333,#1334,#1335);
#1333 = CARTESIAN_POINT('',(3.5,17.450000000035,0.));
#1334 = DIRECTION('',(0.,-1.,0.));
#1335 = DIRECTION('',(1.,0.,0.));
#1336 = ADVANCED_FACE('',(#1337),#1349,.T.);
#1337 = FACE_BOUND('',#1338,.T.);
#1338 = EDGE_LOOP('',(#1339,#1340,#1341,#1347,#1348));
#1339 = ORIENTED_EDGE('',*,*,#579,.T.);
#1340 = ORIENTED_EDGE('',*,*,#1295,.T.);
#1341 = ORIENTED_EDGE('',*,*,#1342,.T.);
#1342 = EDGE_CURVE('',#1239,#1177,#1343,.T.);
#1343 = LINE('',#1344,#1345);
#1344 = CARTESIAN_POINT('',(3.,18.,3.));
#1345 = VECTOR('',#1346,1.);
#1346 = DIRECTION('',(1.,0.,0.));
#1347 = ORIENTED_EDGE('',*,*,#1262,.T.);
#1348 = ORIENTED_EDGE('',*,*,#1024,.T.);
#1349 = PLANE('',#1350);
#1350 = AXIS2_PLACEMENT_3D('',#1351,#1352,#1353);
#1351 = CARTESIAN_POINT('',(7.5,18.,1.5));
#1352 = DIRECTION('',(0.,1.,0.));
#1353 = DIRECTION('',(0.,0.,1.));
#1354 = ADVANCED_FACE('',(#1355),#1361,.F.);
#1355 = FACE_BOUND('',#1356,.T.);
#1356 = EDGE_LOOP('',(#1357,#1358,#1359,#1360));
#1357 = ORIENTED_EDGE('',*,*,#632,.T.);
#1358 = ORIENTED_EDGE('',*,*,#1324,.T.);
#1359 = ORIENTED_EDGE('',*,*,#688,.T.);
#1360 = ORIENTED_EDGE('',*,*,#664,.T.);
#1361 = PLANE('',#1362);
#1362 = AXIS2_PLACEMENT_3D('',#1363,#1364,#1365);
#1363 = CARTESIAN_POINT('',(6.,8.600000000024,-1.8));
#1364 = DIRECTION('',(0.,0.,1.));
#1365 = DIRECTION('',(1.,0.,0.));
#1366 = ADVANCED_FACE('',(#1367),#1378,.F.);
#1367 = FACE_BOUND('',#1368,.F.);
#1368 = EDGE_LOOP('',(#1369,#1370,#1376,#1377));
#1369 = ORIENTED_EDGE('',*,*,#768,.T.);
#1370 = ORIENTED_EDGE('',*,*,#1371,.T.);
#1371 = EDGE_CURVE('',#761,#809,#1372,.T.);
#1372 = LINE('',#1373,#1374);
#1373 = CARTESIAN_POINT('',(8.5,-0.25,-1.8));
#1374 = VECTOR('',#1375,1.);
#1375 = DIRECTION('',(-1.,0.,0.));
#1376 = ORIENTED_EDGE('',*,*,#808,.F.);
#1377 = ORIENTED_EDGE('',*,*,#730,.F.);
#1378 = PLANE('',#1379);
#1379 = AXIS2_PLACEMENT_3D('',#1380,#1381,#1382);
#1380 = CARTESIAN_POINT('',(8.5,-0.25,0.));
#1381 = DIRECTION('',(0.,1.,0.));
#1382 = DIRECTION('',(-1.,0.,0.));
#1383 = ADVANCED_FACE('',(#1384,#1390),#1424,.F.);
#1384 = FACE_BOUND('',#1385,.F.);
#1385 = EDGE_LOOP('',(#1386,#1387,#1388,#1389));
#1386 = ORIENTED_EDGE('',*,*,#816,.F.);
#1387 = ORIENTED_EDGE('',*,*,#1371,.F.);
#1388 = ORIENTED_EDGE('',*,*,#760,.F.);
#1389 = ORIENTED_EDGE('',*,*,#792,.F.);
#1390 = FACE_BOUND('',#1391,.F.);
#1391 = EDGE_LOOP('',(#1392,#1402,#1410,#1418));
#1392 = ORIENTED_EDGE('',*,*,#1393,.T.);
#1393 = EDGE_CURVE('',#1394,#1396,#1398,.T.);
#1394 = VERTEX_POINT('',#1395);
#1395 = CARTESIAN_POINT('',(8.4,1.48,-1.8));
#1396 = VERTEX_POINT('',#1397);
#1397 = CARTESIAN_POINT('',(3.6,1.48,-1.8));
#1398 = LINE('',#1399,#1400);
#1399 = CARTESIAN_POINT('',(8.4,1.48,-1.8));
#1400 = VECTOR('',#1401,1.);
#1401 = DIRECTION('',(-1.,0.,0.));
#1402 = ORIENTED_EDGE('',*,*,#1403,.T.);
#1403 = EDGE_CURVE('',#1396,#1404,#1406,.T.);
#1404 = VERTEX_POINT('',#1405);
#1405 = CARTESIAN_POINT('',(3.6,2.12,-1.8));
#1406 = LINE('',#1407,#1408);
#1407 = CARTESIAN_POINT('',(3.6,1.48,-1.8));
#1408 = VECTOR('',#1409,1.);
#1409 = DIRECTION('',(0.,1.,0.));
#1410 = ORIENTED_EDGE('',*,*,#1411,.T.);
#1411 = EDGE_CURVE('',#1404,#1412,#1414,.T.);
#1412 = VERTEX_POINT('',#1413);
#1413 = CARTESIAN_POINT('',(8.4,2.12,-1.8));
#1414 = LINE('',#1415,#1416);
#1415 = CARTESIAN_POINT('',(3.6,2.12,-1.8));
#1416 = VECTOR('',#1417,1.);
#1417 = DIRECTION('',(1.,0.,0.));
#1418 = ORIENTED_EDGE('',*,*,#1419,.T.);
#1419 = EDGE_CURVE('',#1412,#1394,#1420,.T.);
#1420 = LINE('',#1421,#1422);
#1421 = CARTESIAN_POINT('',(8.4,2.12,-1.8));
#1422 = VECTOR('',#1423,1.);
#1423 = DIRECTION('',(0.,-1.,0.));
#1424 = PLANE('',#1425);
#1425 = AXIS2_PLACEMENT_3D('',#1426,#1427,#1428);
#1426 = CARTESIAN_POINT('',(6.,8.600000000024,-1.8));
#1427 = DIRECTION('',(0.,0.,1.));
#1428 = DIRECTION('',(1.,0.,0.));
#1429 = ADVANCED_FACE('',(#1430,#1436),#1470,.F.);
#1430 = FACE_BOUND('',#1431,.F.);
#1431 = EDGE_LOOP('',(#1432,#1433,#1434,#1435));
#1432 = ORIENTED_EDGE('',*,*,#913,.F.);
#1433 = ORIENTED_EDGE('',*,*,#841,.F.);
#1434 = ORIENTED_EDGE('',*,*,#872,.F.);
#1435 = ORIENTED_EDGE('',*,*,#896,.F.);
#1436 = FACE_BOUND('',#1437,.F.);
#1437 = EDGE_LOOP('',(#1438,#1448,#1456,#1464));
#1438 = ORIENTED_EDGE('',*,*,#1439,.T.);
#1439 = EDGE_CURVE('',#1440,#1442,#1444,.T.);
#1440 = VERTEX_POINT('',#1441);
#1441 = CARTESIAN_POINT('',(8.4,8.280000000009,-1.8));
#1442 = VERTEX_POINT('',#1443);
#1443 = CARTESIAN_POINT('',(3.599999999994,8.280000000009,-1.8));
#1444 = LINE('',#1445,#1446);
#1445 = CARTESIAN_POINT('',(8.4,8.280000000009,-1.8));
#1446 = VECTOR('',#1447,1.);
#1447 = DIRECTION('',(-1.,0.,0.));
#1448 = ORIENTED_EDGE('',*,*,#1449,.T.);
#1449 = EDGE_CURVE('',#1442,#1450,#1452,.T.);
#1450 = VERTEX_POINT('',#1451);
#1451 = CARTESIAN_POINT('',(3.599999999994,8.919999999991,-1.8));
#1452 = LINE('',#1453,#1454);
#1453 = CARTESIAN_POINT('',(3.599999999994,8.280000000009,-1.8));
#1454 = VECTOR('',#1455,1.);
#1455 = DIRECTION('',(0.,1.,0.));
#1456 = ORIENTED_EDGE('',*,*,#1457,.T.);
#1457 = EDGE_CURVE('',#1450,#1458,#1460,.T.);
#1458 = VERTEX_POINT('',#1459);
#1459 = CARTESIAN_POINT('',(8.4,8.919999999991,-1.8));
#1460 = LINE('',#1461,#1462);
#1461 = CARTESIAN_POINT('',(3.599999999994,8.919999999991,-1.8));
#1462 = VECTOR('',#1463,1.);
#1463 = DIRECTION('',(1.,0.,0.));
#1464 = ORIENTED_EDGE('',*,*,#1465,.T.);
#1465 = EDGE_CURVE('',#1458,#1440,#1466,.T.);
#1466 = LINE('',#1467,#1468);
#1467 = CARTESIAN_POINT('',(8.4,8.919999999991,-1.8));
#1468 = VECTOR('',#1469,1.);
#1469 = DIRECTION('',(0.,-1.,0.));
#1470 = PLANE('',#1471);
#1471 = AXIS2_PLACEMENT_3D('',#1472,#1473,#1474);
#1472 = CARTESIAN_POINT('',(6.,8.600000000024,-1.8));
#1473 = DIRECTION('',(0.,0.,1.));
#1474 = DIRECTION('',(1.,0.,0.));
#1475 = ADVANCED_FACE('',(#1476),#1482,.T.);
#1476 = FACE_BOUND('',#1477,.T.);
#1477 = EDGE_LOOP('',(#1478,#1479,#1480,#1481));
#1478 = ORIENTED_EDGE('',*,*,#962,.F.);
#1479 = ORIENTED_EDGE('',*,*,#978,.T.);
#1480 = ORIENTED_EDGE('',*,*,#1136,.F.);
#1481 = ORIENTED_EDGE('',*,*,#929,.F.);
#1482 = PLANE('',#1483);
#1483 = AXIS2_PLACEMENT_3D('',#1484,#1485,#1486);
#1484 = CARTESIAN_POINT('',(3.,-0.8,3.));
#1485 = DIRECTION('',(0.,-0.977176363923,-0.212429644331));
#1486 = DIRECTION('',(0.,-0.212429644331,0.977176363923));
#1487 = ADVANCED_FACE('',(#1488),#1513,.T.);
#1488 = FACE_BOUND('',#1489,.T.);
#1489 = EDGE_LOOP('',(#1490,#1498,#1499,#1507));
#1490 = ORIENTED_EDGE('',*,*,#1491,.T.);
#1491 = EDGE_CURVE('',#1492,#1042,#1494,.T.);
#1492 = VERTEX_POINT('',#1493);
#1493 = CARTESIAN_POINT('',(-7.5E-02,17.74,13.15));
#1494 = LINE('',#1495,#1496);
#1495 = CARTESIAN_POINT('',(1.887417470797,15.777582529203,
    14.000380904012));
#1496 = VECTOR('',#1497,1.);
#1497 = DIRECTION('',(-0.676080479401,0.676080479401,-0.29296820774));
#1498 = ORIENTED_EDGE('',*,*,#1049,.T.);
#1499 = ORIENTED_EDGE('',*,*,#1500,.F.);
#1500 = EDGE_CURVE('',#1501,#1050,#1503,.T.);
#1501 = VERTEX_POINT('',#1502);
#1502 = CARTESIAN_POINT('',(-7.5E-02,-0.54,13.15));
#1503 = LINE('',#1504,#1505);
#1504 = CARTESIAN_POINT('',(6.750799898426,6.285799898426,
    16.107846622651));
#1505 = VECTOR('',#1506,1.);
#1506 = DIRECTION('',(-0.676080479401,-0.676080479401,-0.29296820774));
#1507 = ORIENTED_EDGE('',*,*,#1508,.F.);
#1508 = EDGE_CURVE('',#1492,#1501,#1509,.T.);
#1509 = LINE('',#1510,#1511);
#1510 = CARTESIAN_POINT('',(-7.5E-02,19.24,13.15));
#1511 = VECTOR('',#1512,1.);
#1512 = DIRECTION('',(0.,-1.,0.));
#1513 = PLANE('',#1514);
#1514 = AXIS2_PLACEMENT_3D('',#1515,#1516,#1517);
#1515 = CARTESIAN_POINT('',(-1.575,19.24,12.5));
#1516 = DIRECTION('',(-0.397607437634,0.,0.91755562531));
#1517 = DIRECTION('',(0.91755562531,9.E-17,0.397607437634));
#1518 = ADVANCED_FACE('',(#1519),#1537,.T.);
#1519 = FACE_BOUND('',#1520,.T.);
#1520 = EDGE_LOOP('',(#1521,#1529,#1530,#1531));
#1521 = ORIENTED_EDGE('',*,*,#1522,.F.);
#1522 = EDGE_CURVE('',#1073,#1523,#1525,.T.);
#1523 = VERTEX_POINT('',#1524);
#1524 = CARTESIAN_POINT('',(12.075,17.74,13.15));
#1525 = LINE('',#1526,#1527);
#1526 = CARTESIAN_POINT('',(13.16781361097,18.83281361097,
    12.676447435246));
#1527 = VECTOR('',#1528,1.);
#1528 = DIRECTION('',(-0.676080479401,-0.676080479401,0.29296820774));
#1529 = ORIENTED_EDGE('',*,*,#1080,.T.);
#1530 = ORIENTED_EDGE('',*,*,#1491,.F.);
#1531 = ORIENTED_EDGE('',*,*,#1532,.F.);
#1532 = EDGE_CURVE('',#1523,#1492,#1533,.T.);
#1533 = LINE('',#1534,#1535);
#1534 = CARTESIAN_POINT('',(13.575,17.74,13.15));
#1535 = VECTOR('',#1536,1.);
#1536 = DIRECTION('',(-1.,-0.,-0.));
#1537 = PLANE('',#1538);
#1538 = AXIS2_PLACEMENT_3D('',#1539,#1540,#1541);
#1539 = CARTESIAN_POINT('',(13.575,19.24,12.5));
#1540 = DIRECTION('',(0.,0.397607437634,0.91755562531));
#1541 = DIRECTION('',(0.,-0.91755562531,0.397607437634));
#1542 = ADVANCED_FACE('',(#1543),#1561,.F.);
#1543 = FACE_BOUND('',#1544,.F.);
#1544 = EDGE_LOOP('',(#1545,#1553,#1554,#1555));
#1545 = ORIENTED_EDGE('',*,*,#1546,.F.);
#1546 = EDGE_CURVE('',#1098,#1547,#1549,.T.);
#1547 = VERTEX_POINT('',#1548);
#1548 = CARTESIAN_POINT('',(12.075,-0.54,13.15));
#1549 = LINE('',#1550,#1551);
#1550 = CARTESIAN_POINT('',(8.304431183342,3.230568816658,
    14.783913153885));
#1551 = VECTOR('',#1552,1.);
#1552 = DIRECTION('',(-0.676080479401,0.676080479401,0.29296820774));
#1553 = ORIENTED_EDGE('',*,*,#1097,.T.);
#1554 = ORIENTED_EDGE('',*,*,#1500,.F.);
#1555 = ORIENTED_EDGE('',*,*,#1556,.F.);
#1556 = EDGE_CURVE('',#1547,#1501,#1557,.T.);
#1557 = LINE('',#1558,#1559);
#1558 = CARTESIAN_POINT('',(13.575,-0.54,13.15));
#1559 = VECTOR('',#1560,1.);
#1560 = DIRECTION('',(-1.,-0.,-0.));
#1561 = PLANE('',#1562);
#1562 = AXIS2_PLACEMENT_3D('',#1563,#1564,#1565);
#1563 = CARTESIAN_POINT('',(13.575,-2.04,12.5));
#1564 = DIRECTION('',(0.,0.397607437634,-0.91755562531));
#1565 = DIRECTION('',(0.,0.91755562531,0.397607437634));
#1566 = ADVANCED_FACE('',(#1567),#1578,.T.);
#1567 = FACE_BOUND('',#1568,.T.);
#1568 = EDGE_LOOP('',(#1569,#1570,#1576,#1577));
#1569 = ORIENTED_EDGE('',*,*,#1522,.T.);
#1570 = ORIENTED_EDGE('',*,*,#1571,.T.);
#1571 = EDGE_CURVE('',#1523,#1547,#1572,.T.);
#1572 = LINE('',#1573,#1574);
#1573 = CARTESIAN_POINT('',(12.075,19.24,13.15));
#1574 = VECTOR('',#1575,1.);
#1575 = DIRECTION('',(0.,-1.,0.));
#1576 = ORIENTED_EDGE('',*,*,#1546,.F.);
#1577 = ORIENTED_EDGE('',*,*,#1121,.F.);
#1578 = PLANE('',#1579);
#1579 = AXIS2_PLACEMENT_3D('',#1580,#1581,#1582);
#1580 = CARTESIAN_POINT('',(12.075,19.24,13.15));
#1581 = DIRECTION('',(0.397607437634,0.,0.91755562531));
#1582 = DIRECTION('',(0.91755562531,-9.E-17,-0.397607437634));
#1583 = ADVANCED_FACE('',(#1584),#1590,.F.);
#1584 = FACE_BOUND('',#1585,.F.);
#1585 = EDGE_LOOP('',(#1586,#1587,#1588,#1589));
#1586 = ORIENTED_EDGE('',*,*,#1342,.T.);
#1587 = ORIENTED_EDGE('',*,*,#1176,.T.);
#1588 = ORIENTED_EDGE('',*,*,#1198,.F.);
#1589 = ORIENTED_EDGE('',*,*,#1238,.F.);
#1590 = PLANE('',#1591);
#1591 = AXIS2_PLACEMENT_3D('',#1592,#1593,#1594);
#1592 = CARTESIAN_POINT('',(3.,18.,3.));
#1593 = DIRECTION('',(0.,-0.977176363923,0.212429644331));
#1594 = DIRECTION('',(0.,0.212429644331,0.977176363923));
#1595 = ADVANCED_FACE('',(#1596,#1637),#1648,.F.);
#1596 = FACE_BOUND('',#1597,.F.);
#1597 = EDGE_LOOP('',(#1598,#1599,#1607,#1615,#1623,#1631));
#1598 = ORIENTED_EDGE('',*,*,#1393,.F.);
#1599 = ORIENTED_EDGE('',*,*,#1600,.T.);
#1600 = EDGE_CURVE('',#1394,#1601,#1603,.T.);
#1601 = VERTEX_POINT('',#1602);
#1602 = CARTESIAN_POINT('',(8.4,1.48,-8.399999999992));
#1603 = LINE('',#1604,#1605);
#1604 = CARTESIAN_POINT('',(8.4,1.48,-1.8));
#1605 = VECTOR('',#1606,1.);
#1606 = DIRECTION('',(0.,0.,-1.));
#1607 = ORIENTED_EDGE('',*,*,#1608,.F.);
#1608 = EDGE_CURVE('',#1609,#1601,#1611,.T.);
#1609 = VERTEX_POINT('',#1610);
#1610 = CARTESIAN_POINT('',(7.799999999992,1.48,-9.));
#1611 = LINE('',#1612,#1613);
#1612 = CARTESIAN_POINT('',(7.799999999992,1.48,-9.));
#1613 = VECTOR('',#1614,1.);
#1614 = DIRECTION('',(0.707106781187,1.570092458684E-16,0.707106781187)
  );
#1615 = ORIENTED_EDGE('',*,*,#1616,.T.);
#1616 = EDGE_CURVE('',#1609,#1617,#1619,.T.);
#1617 = VERTEX_POINT('',#1618);
#1618 = CARTESIAN_POINT('',(4.2,1.48,-9.));
#1619 = LINE('',#1620,#1621);
#1620 = CARTESIAN_POINT('',(8.4,1.48,-9.));
#1621 = VECTOR('',#1622,1.);
#1622 = DIRECTION('',(-1.,0.,0.));
#1623 = ORIENTED_EDGE('',*,*,#1624,.T.);
#1624 = EDGE_CURVE('',#1617,#1625,#1627,.T.);
#1625 = VERTEX_POINT('',#1626);
#1626 = CARTESIAN_POINT('',(3.6,1.48,-8.4));
#1627 = LINE('',#1628,#1629);
#1628 = CARTESIAN_POINT('',(4.2,1.48,-9.));
#1629 = VECTOR('',#1630,1.);
#1630 = DIRECTION('',(-0.707106781187,1.570092458684E-16,0.707106781187)
  );
#1631 = ORIENTED_EDGE('',*,*,#1632,.F.);
#1632 = EDGE_CURVE('',#1396,#1625,#1633,.T.);
#1633 = LINE('',#1634,#1635);
#1634 = CARTESIAN_POINT('',(3.6,1.48,-1.8));
#1635 = VECTOR('',#1636,1.);
#1636 = DIRECTION('',(0.,0.,-1.));
#1637 = FACE_BOUND('',#1638,.F.);
#1638 = EDGE_LOOP('',(#1639));
#1639 = ORIENTED_EDGE('',*,*,#1640,.T.);
#1640 = EDGE_CURVE('',#1641,#1641,#1643,.T.);
#1641 = VERTEX_POINT('',#1642);
#1642 = CARTESIAN_POINT('',(7.,1.48,-5.4));
#1643 = CIRCLE('',#1644,1.);
#1644 = AXIS2_PLACEMENT_3D('',#1645,#1646,#1647);
#1645 = CARTESIAN_POINT('',(6.,1.48,-5.4));
#1646 = DIRECTION('',(0.,-1.,2.22044604925E-16));
#1647 = DIRECTION('',(1.,0.,0.));
#1648 = PLANE('',#1649);
#1649 = AXIS2_PLACEMENT_3D('',#1650,#1651,#1652);
#1650 = CARTESIAN_POINT('',(8.4,1.48,-1.8));
#1651 = DIRECTION('',(0.,1.,0.));
#1652 = DIRECTION('',(-1.,0.,0.));
#1653 = ADVANCED_FACE('',(#1654),#1672,.F.);
#1654 = FACE_BOUND('',#1655,.F.);
#1655 = EDGE_LOOP('',(#1656,#1657,#1665,#1671));
#1656 = ORIENTED_EDGE('',*,*,#1419,.F.);
#1657 = ORIENTED_EDGE('',*,*,#1658,.T.);
#1658 = EDGE_CURVE('',#1412,#1659,#1661,.T.);
#1659 = VERTEX_POINT('',#1660);
#1660 = CARTESIAN_POINT('',(8.4,2.12,-8.399999999992));
#1661 = LINE('',#1662,#1663);
#1662 = CARTESIAN_POINT('',(8.4,2.12,-1.8));
#1663 = VECTOR('',#1664,1.);
#1664 = DIRECTION('',(0.,0.,-1.));
#1665 = ORIENTED_EDGE('',*,*,#1666,.T.);
#1666 = EDGE_CURVE('',#1659,#1601,#1667,.T.);
#1667 = LINE('',#1668,#1669);
#1668 = CARTESIAN_POINT('',(8.4,9.48,-8.399999999992));
#1669 = VECTOR('',#1670,1.);
#1670 = DIRECTION('',(0.,-1.,2.22044604925E-16));
#1671 = ORIENTED_EDGE('',*,*,#1600,.F.);
#1672 = PLANE('',#1673);
#1673 = AXIS2_PLACEMENT_3D('',#1674,#1675,#1676);
#1674 = CARTESIAN_POINT('',(8.4,2.12,-1.8));
#1675 = DIRECTION('',(-1.,-0.,-0.));
#1676 = DIRECTION('',(0.,-1.,0.));
#1677 = ADVANCED_FACE('',(#1678,#1712),#1723,.F.);
#1678 = FACE_BOUND('',#1679,.F.);
#1679 = EDGE_LOOP('',(#1680,#1681,#1689,#1697,#1705,#1711));
#1680 = ORIENTED_EDGE('',*,*,#1411,.F.);
#1681 = ORIENTED_EDGE('',*,*,#1682,.T.);
#1682 = EDGE_CURVE('',#1404,#1683,#1685,.T.);
#1683 = VERTEX_POINT('',#1684);
#1684 = CARTESIAN_POINT('',(3.6,2.12,-8.4));
#1685 = LINE('',#1686,#1687);
#1686 = CARTESIAN_POINT('',(3.6,2.12,-1.8));
#1687 = VECTOR('',#1688,1.);
#1688 = DIRECTION('',(0.,0.,-1.));
#1689 = ORIENTED_EDGE('',*,*,#1690,.T.);
#1690 = EDGE_CURVE('',#1683,#1691,#1693,.T.);
#1691 = VERTEX_POINT('',#1692);
#1692 = CARTESIAN_POINT('',(4.2,2.12,-9.));
#1693 = LINE('',#1694,#1695);
#1694 = CARTESIAN_POINT('',(2.25,2.12,-7.05));
#1695 = VECTOR('',#1696,1.);
#1696 = DIRECTION('',(0.707106781187,0.,-0.707106781187));
#1697 = ORIENTED_EDGE('',*,*,#1698,.T.);
#1698 = EDGE_CURVE('',#1691,#1699,#1701,.T.);
#1699 = VERTEX_POINT('',#1700);
#1700 = CARTESIAN_POINT('',(7.799999999992,2.12,-9.));
#1701 = LINE('',#1702,#1703);
#1702 = CARTESIAN_POINT('',(3.6,2.12,-9.));
#1703 = VECTOR('',#1704,1.);
#1704 = DIRECTION('',(1.,0.,0.));
#1705 = ORIENTED_EDGE('',*,*,#1706,.F.);
#1706 = EDGE_CURVE('',#1659,#1699,#1707,.T.);
#1707 = LINE('',#1708,#1709);
#1708 = CARTESIAN_POINT('',(8.549999999994,2.12,-8.249999999998));
#1709 = VECTOR('',#1710,1.);
#1710 = DIRECTION('',(-0.707106781187,-0.,-0.707106781187));
#1711 = ORIENTED_EDGE('',*,*,#1658,.F.);
#1712 = FACE_BOUND('',#1713,.F.);
#1713 = EDGE_LOOP('',(#1714));
#1714 = ORIENTED_EDGE('',*,*,#1715,.T.);
#1715 = EDGE_CURVE('',#1716,#1716,#1718,.T.);
#1716 = VERTEX_POINT('',#1717);
#1717 = CARTESIAN_POINT('',(7.,2.12,-5.4));
#1718 = CIRCLE('',#1719,1.);
#1719 = AXIS2_PLACEMENT_3D('',#1720,#1721,#1722);
#1720 = CARTESIAN_POINT('',(6.,2.12,-5.4));
#1721 = DIRECTION('',(0.,1.,-2.22044604925E-16));
#1722 = DIRECTION('',(1.,0.,0.));
#1723 = PLANE('',#1724);
#1724 = AXIS2_PLACEMENT_3D('',#1725,#1726,#1727);
#1725 = CARTESIAN_POINT('',(3.6,2.12,-1.8));
#1726 = DIRECTION('',(0.,-1.,0.));
#1727 = DIRECTION('',(1.,0.,0.));
#1728 = ADVANCED_FACE('',(#1729),#1740,.F.);
#1729 = FACE_BOUND('',#1730,.F.);
#1730 = EDGE_LOOP('',(#1731,#1732,#1733,#1739));
#1731 = ORIENTED_EDGE('',*,*,#1403,.F.);
#1732 = ORIENTED_EDGE('',*,*,#1632,.T.);
#1733 = ORIENTED_EDGE('',*,*,#1734,.F.);
#1734 = EDGE_CURVE('',#1683,#1625,#1735,.T.);
#1735 = LINE('',#1736,#1737);
#1736 = CARTESIAN_POINT('',(3.6,9.48,-8.4));
#1737 = VECTOR('',#1738,1.);
#1738 = DIRECTION('',(0.,-1.,2.22044604925E-16));
#1739 = ORIENTED_EDGE('',*,*,#1682,.F.);
#1740 = PLANE('',#1741);
#1741 = AXIS2_PLACEMENT_3D('',#1742,#1743,#1744);
#1742 = CARTESIAN_POINT('',(3.6,1.48,-1.8));
#1743 = DIRECTION('',(1.,0.,0.));
#1744 = DIRECTION('',(0.,1.,0.));
#1745 = ADVANCED_FACE('',(#1746,#1787),#1798,.F.);
#1746 = FACE_BOUND('',#1747,.F.);
#1747 = EDGE_LOOP('',(#1748,#1749,#1757,#1765,#1773,#1781));
#1748 = ORIENTED_EDGE('',*,*,#1439,.F.);
#1749 = ORIENTED_EDGE('',*,*,#1750,.T.);
#1750 = EDGE_CURVE('',#1440,#1751,#1753,.T.);
#1751 = VERTEX_POINT('',#1752);
#1752 = CARTESIAN_POINT('',(8.4,8.280000000009,-8.399999999992));
#1753 = LINE('',#1754,#1755);
#1754 = CARTESIAN_POINT('',(8.4,8.280000000009,-1.8));
#1755 = VECTOR('',#1756,1.);
#1756 = DIRECTION('',(0.,0.,-1.));
#1757 = ORIENTED_EDGE('',*,*,#1758,.F.);
#1758 = EDGE_CURVE('',#1759,#1751,#1761,.T.);
#1759 = VERTEX_POINT('',#1760);
#1760 = CARTESIAN_POINT('',(7.799999999992,8.280000000009,-9.));
#1761 = LINE('',#1762,#1763);
#1762 = CARTESIAN_POINT('',(9.749999999994,8.280000000009,
    -7.049999999998));
#1763 = VECTOR('',#1764,1.);
#1764 = DIRECTION('',(0.707106781187,0.,0.707106781187));
#1765 = ORIENTED_EDGE('',*,*,#1766,.T.);
#1766 = EDGE_CURVE('',#1759,#1767,#1769,.T.);
#1767 = VERTEX_POINT('',#1768);
#1768 = CARTESIAN_POINT('',(4.2,8.280000000009,-9.));
#1769 = LINE('',#1770,#1771);
#1770 = CARTESIAN_POINT('',(8.4,8.280000000009,-9.));
#1771 = VECTOR('',#1772,1.);
#1772 = DIRECTION('',(-1.,0.,0.));
#1773 = ORIENTED_EDGE('',*,*,#1774,.T.);
#1774 = EDGE_CURVE('',#1767,#1775,#1777,.T.);
#1775 = VERTEX_POINT('',#1776);
#1776 = CARTESIAN_POINT('',(3.599999999997,8.280000000009,-8.4));
#1777 = LINE('',#1778,#1779);
#1778 = CARTESIAN_POINT('',(3.45,8.280000000009,-8.25));
#1779 = VECTOR('',#1780,1.);
#1780 = DIRECTION('',(-0.707106781187,0.,0.707106781187));
#1781 = ORIENTED_EDGE('',*,*,#1782,.F.);
#1782 = EDGE_CURVE('',#1442,#1775,#1783,.T.);
#1783 = LINE('',#1784,#1785);
#1784 = CARTESIAN_POINT('',(3.599999999994,8.280000000009,-1.8));
#1785 = VECTOR('',#1786,1.);
#1786 = DIRECTION('',(0.,0.,-1.));
#1787 = FACE_BOUND('',#1788,.F.);
#1788 = EDGE_LOOP('',(#1789));
#1789 = ORIENTED_EDGE('',*,*,#1790,.F.);
#1790 = EDGE_CURVE('',#1791,#1791,#1793,.T.);
#1791 = VERTEX_POINT('',#1792);
#1792 = CARTESIAN_POINT('',(7.,8.280000000009,-5.4));
#1793 = CIRCLE('',#1794,1.);
#1794 = AXIS2_PLACEMENT_3D('',#1795,#1796,#1797);
#1795 = CARTESIAN_POINT('',(6.,8.280000000009,-5.4));
#1796 = DIRECTION('',(0.,1.,-2.22044604925E-16));
#1797 = DIRECTION('',(1.,0.,0.));
#1798 = PLANE('',#1799);
#1799 = AXIS2_PLACEMENT_3D('',#1800,#1801,#1802);
#1800 = CARTESIAN_POINT('',(8.4,8.280000000009,-1.8));
#1801 = DIRECTION('',(0.,1.,0.));
#1802 = DIRECTION('',(-1.,0.,0.));
#1803 = ADVANCED_FACE('',(#1804),#1822,.F.);
#1804 = FACE_BOUND('',#1805,.F.);
#1805 = EDGE_LOOP('',(#1806,#1807,#1815,#1821));
#1806 = ORIENTED_EDGE('',*,*,#1465,.F.);
#1807 = ORIENTED_EDGE('',*,*,#1808,.T.);
#1808 = EDGE_CURVE('',#1458,#1809,#1811,.T.);
#1809 = VERTEX_POINT('',#1810);
#1810 = CARTESIAN_POINT('',(8.4,8.919999999991,-8.399999999992));
#1811 = LINE('',#1812,#1813);
#1812 = CARTESIAN_POINT('',(8.4,8.919999999991,-1.8));
#1813 = VECTOR('',#1814,1.);
#1814 = DIRECTION('',(0.,0.,-1.));
#1815 = ORIENTED_EDGE('',*,*,#1816,.T.);
#1816 = EDGE_CURVE('',#1809,#1751,#1817,.T.);
#1817 = LINE('',#1818,#1819);
#1818 = CARTESIAN_POINT('',(8.4,9.48,-8.399999999992));
#1819 = VECTOR('',#1820,1.);
#1820 = DIRECTION('',(0.,-1.,2.22044604925E-16));
#1821 = ORIENTED_EDGE('',*,*,#1750,.F.);
#1822 = PLANE('',#1823);
#1823 = AXIS2_PLACEMENT_3D('',#1824,#1825,#1826);
#1824 = CARTESIAN_POINT('',(8.4,8.919999999991,-1.8));
#1825 = DIRECTION('',(-1.,-0.,-0.));
#1826 = DIRECTION('',(0.,-1.,0.));
#1827 = ADVANCED_FACE('',(#1828,#1862),#1873,.F.);
#1828 = FACE_BOUND('',#1829,.F.);
#1829 = EDGE_LOOP('',(#1830,#1831,#1839,#1847,#1855,#1861));
#1830 = ORIENTED_EDGE('',*,*,#1457,.F.);
#1831 = ORIENTED_EDGE('',*,*,#1832,.T.);
#1832 = EDGE_CURVE('',#1450,#1833,#1835,.T.);
#1833 = VERTEX_POINT('',#1834);
#1834 = CARTESIAN_POINT('',(3.599999999997,8.919999999991,-8.4));
#1835 = LINE('',#1836,#1837);
#1836 = CARTESIAN_POINT('',(3.599999999994,8.919999999991,-1.8));
#1837 = VECTOR('',#1838,1.);
#1838 = DIRECTION('',(0.,0.,-1.));
#1839 = ORIENTED_EDGE('',*,*,#1840,.T.);
#1840 = EDGE_CURVE('',#1833,#1841,#1843,.T.);
#1841 = VERTEX_POINT('',#1842);
#1842 = CARTESIAN_POINT('',(4.2,8.919999999991,-9.));
#1843 = LINE('',#1844,#1845);
#1844 = CARTESIAN_POINT('',(2.249999999998,8.919999999991,
    -7.049999999998));
#1845 = VECTOR('',#1846,1.);
#1846 = DIRECTION('',(0.707106781187,0.,-0.707106781187));
#1847 = ORIENTED_EDGE('',*,*,#1848,.T.);
#1848 = EDGE_CURVE('',#1841,#1849,#1851,.T.);
#1849 = VERTEX_POINT('',#1850);
#1850 = CARTESIAN_POINT('',(7.799999999992,8.919999999991,-9.));
#1851 = LINE('',#1852,#1853);
#1852 = CARTESIAN_POINT('',(3.599999999994,8.919999999991,-9.));
#1853 = VECTOR('',#1854,1.);
#1854 = DIRECTION('',(1.,0.,0.));
#1855 = ORIENTED_EDGE('',*,*,#1856,.F.);
#1856 = EDGE_CURVE('',#1809,#1849,#1857,.T.);
#1857 = LINE('',#1858,#1859);
#1858 = CARTESIAN_POINT('',(8.549999999992,8.919999999991,
    -8.249999999999));
#1859 = VECTOR('',#1860,1.);
#1860 = DIRECTION('',(-0.707106781187,-0.,-0.707106781187));
#1861 = ORIENTED_EDGE('',*,*,#1808,.F.);
#1862 = FACE_BOUND('',#1863,.F.);
#1863 = EDGE_LOOP('',(#1864));
#1864 = ORIENTED_EDGE('',*,*,#1865,.T.);
#1865 = EDGE_CURVE('',#1866,#1866,#1868,.T.);
#1866 = VERTEX_POINT('',#1867);
#1867 = CARTESIAN_POINT('',(7.,8.919999999991,-5.4));
#1868 = CIRCLE('',#1869,1.);
#1869 = AXIS2_PLACEMENT_3D('',#1870,#1871,#1872);
#1870 = CARTESIAN_POINT('',(6.,8.919999999991,-5.4));
#1871 = DIRECTION('',(0.,1.,-2.22044604925E-16));
#1872 = DIRECTION('',(1.,0.,0.));
#1873 = PLANE('',#1874);
#1874 = AXIS2_PLACEMENT_3D('',#1875,#1876,#1877);
#1875 = CARTESIAN_POINT('',(3.599999999994,8.919999999991,-1.8));
#1876 = DIRECTION('',(0.,-1.,0.));
#1877 = DIRECTION('',(1.,0.,0.));
#1878 = ADVANCED_FACE('',(#1879),#1890,.F.);
#1879 = FACE_BOUND('',#1880,.F.);
#1880 = EDGE_LOOP('',(#1881,#1882,#1883,#1889));
#1881 = ORIENTED_EDGE('',*,*,#1449,.F.);
#1882 = ORIENTED_EDGE('',*,*,#1782,.T.);
#1883 = ORIENTED_EDGE('',*,*,#1884,.F.);
#1884 = EDGE_CURVE('',#1833,#1775,#1885,.T.);
#1885 = LINE('',#1886,#1887);
#1886 = CARTESIAN_POINT('',(3.6,9.48,-8.4));
#1887 = VECTOR('',#1888,1.);
#1888 = DIRECTION('',(0.,-1.,2.22044604925E-16));
#1889 = ORIENTED_EDGE('',*,*,#1832,.F.);
#1890 = PLANE('',#1891);
#1891 = AXIS2_PLACEMENT_3D('',#1892,#1893,#1894);
#1892 = CARTESIAN_POINT('',(3.599999999994,8.280000000009,-1.8));
#1893 = DIRECTION('',(1.,0.,0.));
#1894 = DIRECTION('',(0.,1.,0.));
#1895 = ADVANCED_FACE('',(#1896,#1902),#1936,.T.);
#1896 = FACE_BOUND('',#1897,.T.);
#1897 = EDGE_LOOP('',(#1898,#1899,#1900,#1901));
#1898 = ORIENTED_EDGE('',*,*,#1532,.T.);
#1899 = ORIENTED_EDGE('',*,*,#1508,.T.);
#1900 = ORIENTED_EDGE('',*,*,#1556,.F.);
#1901 = ORIENTED_EDGE('',*,*,#1571,.F.);
#1902 = FACE_BOUND('',#1903,.T.);
#1903 = EDGE_LOOP('',(#1904,#1914,#1922,#1930));
#1904 = ORIENTED_EDGE('',*,*,#1905,.F.);
#1905 = EDGE_CURVE('',#1906,#1908,#1910,.T.);
#1906 = VERTEX_POINT('',#1907);
#1907 = CARTESIAN_POINT('',(10.92,0.7,13.15));
#1908 = VERTEX_POINT('',#1909);
#1909 = CARTESIAN_POINT('',(10.92,16.5,13.15));
#1910 = LINE('',#1911,#1912);
#1911 = CARTESIAN_POINT('',(10.92,8.791518715283,13.15));
#1912 = VECTOR('',#1913,1.);
#1913 = DIRECTION('',(0.,1.,0.));
#1914 = ORIENTED_EDGE('',*,*,#1915,.T.);
#1915 = EDGE_CURVE('',#1906,#1916,#1918,.T.);
#1916 = VERTEX_POINT('',#1917);
#1917 = CARTESIAN_POINT('',(1.08,0.7,13.15));
#1918 = LINE('',#1919,#1920);
#1919 = CARTESIAN_POINT('',(8.46,0.7,13.15));
#1920 = VECTOR('',#1921,1.);
#1921 = DIRECTION('',(-1.,0.,0.));
#1922 = ORIENTED_EDGE('',*,*,#1923,.T.);
#1923 = EDGE_CURVE('',#1916,#1924,#1926,.T.);
#1924 = VERTEX_POINT('',#1925);
#1925 = CARTESIAN_POINT('',(1.08,16.5,13.15));
#1926 = LINE('',#1927,#1928);
#1927 = CARTESIAN_POINT('',(1.08,8.791518715283,13.15));
#1928 = VECTOR('',#1929,1.);
#1929 = DIRECTION('',(0.,1.,0.));
#1930 = ORIENTED_EDGE('',*,*,#1931,.F.);
#1931 = EDGE_CURVE('',#1908,#1924,#1932,.T.);
#1932 = LINE('',#1933,#1934);
#1933 = CARTESIAN_POINT('',(8.46,16.5,13.15));
#1934 = VECTOR('',#1935,1.);
#1935 = DIRECTION('',(-1.,0.,0.));
#1936 = PLANE('',#1937);
#1937 = AXIS2_PLACEMENT_3D('',#1938,#1939,#1940);
#1938 = CARTESIAN_POINT('',(6.,8.6,13.15));
#1939 = DIRECTION('',(0.,0.,1.));
#1940 = DIRECTION('',(1.,0.,0.));
#1941 = ADVANCED_FACE('',(#1942),#1953,.T.);
#1942 = FACE_BOUND('',#1943,.T.);
#1943 = EDGE_LOOP('',(#1944,#1945,#1951,#1952));
#1944 = ORIENTED_EDGE('',*,*,#1690,.T.);
#1945 = ORIENTED_EDGE('',*,*,#1946,.T.);
#1946 = EDGE_CURVE('',#1691,#1617,#1947,.T.);
#1947 = LINE('',#1948,#1949);
#1948 = CARTESIAN_POINT('',(4.2,9.48,-9.));
#1949 = VECTOR('',#1950,1.);
#1950 = DIRECTION('',(0.,-1.,2.22044604925E-16));
#1951 = ORIENTED_EDGE('',*,*,#1624,.T.);
#1952 = ORIENTED_EDGE('',*,*,#1734,.F.);
#1953 = PLANE('',#1954);
#1954 = AXIS2_PLACEMENT_3D('',#1955,#1956,#1957);
#1955 = CARTESIAN_POINT('',(4.2,9.48,-9.));
#1956 = DIRECTION('',(-0.707106781187,-1.570092458684E-16,
    -0.707106781187));
#1957 = DIRECTION('',(-0.707106781187,1.570092458684E-16,0.707106781187)
  );
#1958 = ADVANCED_FACE('',(#1959),#1970,.F.);
#1959 = FACE_BOUND('',#1960,.F.);
#1960 = EDGE_LOOP('',(#1961,#1962,#1963,#1969));
#1961 = ORIENTED_EDGE('',*,*,#1946,.T.);
#1962 = ORIENTED_EDGE('',*,*,#1616,.F.);
#1963 = ORIENTED_EDGE('',*,*,#1964,.F.);
#1964 = EDGE_CURVE('',#1699,#1609,#1965,.T.);
#1965 = LINE('',#1966,#1967);
#1966 = CARTESIAN_POINT('',(7.799999999992,9.48,-9.));
#1967 = VECTOR('',#1968,1.);
#1968 = DIRECTION('',(0.,-1.,2.22044604925E-16));
#1969 = ORIENTED_EDGE('',*,*,#1698,.F.);
#1970 = PLANE('',#1971);
#1971 = AXIS2_PLACEMENT_3D('',#1972,#1973,#1974);
#1972 = CARTESIAN_POINT('',(5.999999999998,5.199999999996,-9.));
#1973 = DIRECTION('',(0.,0.,1.));
#1974 = DIRECTION('',(1.,0.,0.));
#1975 = ADVANCED_FACE('',(#1976),#1982,.F.);
#1976 = FACE_BOUND('',#1977,.F.);
#1977 = EDGE_LOOP('',(#1978,#1979,#1980,#1981));
#1978 = ORIENTED_EDGE('',*,*,#1706,.T.);
#1979 = ORIENTED_EDGE('',*,*,#1964,.T.);
#1980 = ORIENTED_EDGE('',*,*,#1608,.T.);
#1981 = ORIENTED_EDGE('',*,*,#1666,.F.);
#1982 = PLANE('',#1983);
#1983 = AXIS2_PLACEMENT_3D('',#1984,#1985,#1986);
#1984 = CARTESIAN_POINT('',(7.799999999992,9.48,-9.));
#1985 = DIRECTION('',(-0.707106781187,1.570092458684E-16,0.707106781187)
  );
#1986 = DIRECTION('',(0.707106781187,1.570092458684E-16,0.707106781187)
  );
#1987 = ADVANCED_FACE('',(#1988),#1999,.F.);
#1988 = FACE_BOUND('',#1989,.T.);
#1989 = EDGE_LOOP('',(#1990,#1991,#1997,#1998));
#1990 = ORIENTED_EDGE('',*,*,#1715,.T.);
#1991 = ORIENTED_EDGE('',*,*,#1992,.T.);
#1992 = EDGE_CURVE('',#1716,#1641,#1993,.T.);
#1993 = LINE('',#1994,#1995);
#1994 = CARTESIAN_POINT('',(7.,9.48,-5.4));
#1995 = VECTOR('',#1996,1.);
#1996 = DIRECTION('',(0.,-1.,2.22044604925E-16));
#1997 = ORIENTED_EDGE('',*,*,#1640,.T.);
#1998 = ORIENTED_EDGE('',*,*,#1992,.F.);
#1999 = CYLINDRICAL_SURFACE('',#2000,1.);
#2000 = AXIS2_PLACEMENT_3D('',#2001,#2002,#2003);
#2001 = CARTESIAN_POINT('',(6.,9.48,-5.4));
#2002 = DIRECTION('',(0.,1.,-2.22044604925E-16));
#2003 = DIRECTION('',(1.,0.,0.));
#2004 = ADVANCED_FACE('',(#2005),#2016,.T.);
#2005 = FACE_BOUND('',#2006,.T.);
#2006 = EDGE_LOOP('',(#2007,#2008,#2014,#2015));
#2007 = ORIENTED_EDGE('',*,*,#1840,.T.);
#2008 = ORIENTED_EDGE('',*,*,#2009,.T.);
#2009 = EDGE_CURVE('',#1841,#1767,#2010,.T.);
#2010 = LINE('',#2011,#2012);
#2011 = CARTESIAN_POINT('',(4.2,9.48,-9.));
#2012 = VECTOR('',#2013,1.);
#2013 = DIRECTION('',(0.,-1.,2.22044604925E-16));
#2014 = ORIENTED_EDGE('',*,*,#1774,.T.);
#2015 = ORIENTED_EDGE('',*,*,#1884,.F.);
#2016 = PLANE('',#2017);
#2017 = AXIS2_PLACEMENT_3D('',#2018,#2019,#2020);
#2018 = CARTESIAN_POINT('',(4.2,9.48,-9.));
#2019 = DIRECTION('',(-0.707106781187,-1.570092458684E-16,
    -0.707106781187));
#2020 = DIRECTION('',(-0.707106781187,1.570092458684E-16,0.707106781187)
  );
#2021 = ADVANCED_FACE('',(#2022),#2033,.F.);
#2022 = FACE_BOUND('',#2023,.F.);
#2023 = EDGE_LOOP('',(#2024,#2025,#2026,#2032));
#2024 = ORIENTED_EDGE('',*,*,#2009,.T.);
#2025 = ORIENTED_EDGE('',*,*,#1766,.F.);
#2026 = ORIENTED_EDGE('',*,*,#2027,.F.);
#2027 = EDGE_CURVE('',#1849,#1759,#2028,.T.);
#2028 = LINE('',#2029,#2030);
#2029 = CARTESIAN_POINT('',(7.799999999992,9.48,-9.));
#2030 = VECTOR('',#2031,1.);
#2031 = DIRECTION('',(0.,-1.,2.22044604925E-16));
#2032 = ORIENTED_EDGE('',*,*,#1848,.F.);
#2033 = PLANE('',#2034);
#2034 = AXIS2_PLACEMENT_3D('',#2035,#2036,#2037);
#2035 = CARTESIAN_POINT('',(5.999999999998,5.199999999996,-9.));
#2036 = DIRECTION('',(0.,0.,1.));
#2037 = DIRECTION('',(1.,0.,0.));
#2038 = ADVANCED_FACE('',(#2039),#2045,.F.);
#2039 = FACE_BOUND('',#2040,.F.);
#2040 = EDGE_LOOP('',(#2041,#2042,#2043,#2044));
#2041 = ORIENTED_EDGE('',*,*,#1856,.T.);
#2042 = ORIENTED_EDGE('',*,*,#2027,.T.);
#2043 = ORIENTED_EDGE('',*,*,#1758,.T.);
#2044 = ORIENTED_EDGE('',*,*,#1816,.F.);
#2045 = PLANE('',#2046);
#2046 = AXIS2_PLACEMENT_3D('',#2047,#2048,#2049);
#2047 = CARTESIAN_POINT('',(7.799999999992,9.48,-9.));
#2048 = DIRECTION('',(-0.707106781187,1.570092458684E-16,0.707106781187)
  );
#2049 = DIRECTION('',(0.707106781187,1.570092458684E-16,0.707106781187)
  );
#2050 = ADVANCED_FACE('',(#2051),#2062,.F.);
#2051 = FACE_BOUND('',#2052,.T.);
#2052 = EDGE_LOOP('',(#2053,#2054,#2060,#2061));
#2053 = ORIENTED_EDGE('',*,*,#1865,.T.);
#2054 = ORIENTED_EDGE('',*,*,#2055,.T.);
#2055 = EDGE_CURVE('',#1866,#1791,#2056,.T.);
#2056 = LINE('',#2057,#2058);
#2057 = CARTESIAN_POINT('',(7.,9.48,-5.4));
#2058 = VECTOR('',#2059,1.);
#2059 = DIRECTION('',(0.,-1.,2.22044604925E-16));
#2060 = ORIENTED_EDGE('',*,*,#1790,.F.);
#2061 = ORIENTED_EDGE('',*,*,#2055,.F.);
#2062 = CYLINDRICAL_SURFACE('',#2063,1.);
#2063 = AXIS2_PLACEMENT_3D('',#2064,#2065,#2066);
#2064 = CARTESIAN_POINT('',(6.,9.48,-5.4));
#2065 = DIRECTION('',(0.,1.,-2.22044604925E-16));
#2066 = DIRECTION('',(1.,0.,0.));
#2067 = ADVANCED_FACE('',(#2068),#2103,.T.);
#2068 = FACE_BOUND('',#2069,.T.);
#2069 = EDGE_LOOP('',(#2070,#2071,#2079,#2088,#2097));
#2070 = ORIENTED_EDGE('',*,*,#1905,.T.);
#2071 = ORIENTED_EDGE('',*,*,#2072,.T.);
#2072 = EDGE_CURVE('',#1908,#2073,#2075,.T.);
#2073 = VERTEX_POINT('',#2074);
#2074 = CARTESIAN_POINT('',(10.92,16.5,13.3));
#2075 = LINE('',#2076,#2077);
#2076 = CARTESIAN_POINT('',(10.92,16.5,11.));
#2077 = VECTOR('',#2078,1.);
#2078 = DIRECTION('',(0.,0.,1.));
#2079 = ORIENTED_EDGE('',*,*,#2080,.F.);
#2080 = EDGE_CURVE('',#2081,#2073,#2083,.T.);
#2081 = VERTEX_POINT('',#2082);
#2082 = CARTESIAN_POINT('',(10.92,13.9,17.04));
#2083 = CIRCLE('',#2084,11.);
#2084 = AXIS2_PLACEMENT_3D('',#2085,#2086,#2087);
#2085 = CARTESIAN_POINT('',(10.92,6.363780161029,9.027173373976));
#2086 = DIRECTION('',(-1.,0.,0.));
#2087 = DIRECTION('',(0.,-1.,0.));
#2088 = ORIENTED_EDGE('',*,*,#2089,.T.);
#2089 = EDGE_CURVE('',#2081,#2090,#2092,.T.);
#2090 = VERTEX_POINT('',#2091);
#2091 = CARTESIAN_POINT('',(10.92,0.7,13.3));
#2092 = CIRCLE('',#2093,25.164117647059);
#2093 = AXIS2_PLACEMENT_3D('',#2094,#2095,#2096);
#2094 = CARTESIAN_POINT('',(10.92,0.7,38.464117647059));
#2095 = DIRECTION('',(-1.,0.,0.));
#2096 = DIRECTION('',(0.,-1.,0.));
#2097 = ORIENTED_EDGE('',*,*,#2098,.F.);
#2098 = EDGE_CURVE('',#1906,#2090,#2099,.T.);
#2099 = LINE('',#2100,#2101);
#2100 = CARTESIAN_POINT('',(10.92,0.7,11.));
#2101 = VECTOR('',#2102,1.);
#2102 = DIRECTION('',(0.,0.,1.));
#2103 = PLANE('',#2104);
#2104 = AXIS2_PLACEMENT_3D('',#2105,#2106,#2107);
#2105 = CARTESIAN_POINT('',(10.92,8.983037430565,12.93267755305));
#2106 = DIRECTION('',(1.,0.,0.));
#2107 = DIRECTION('',(0.,0.,1.));
#2108 = ADVANCED_FACE('',(#2109),#2127,.T.);
#2109 = FACE_BOUND('',#2110,.T.);
#2110 = EDGE_LOOP('',(#2111,#2112,#2113,#2121));
#2111 = ORIENTED_EDGE('',*,*,#2072,.F.);
#2112 = ORIENTED_EDGE('',*,*,#1931,.T.);
#2113 = ORIENTED_EDGE('',*,*,#2114,.T.);
#2114 = EDGE_CURVE('',#1924,#2115,#2117,.T.);
#2115 = VERTEX_POINT('',#2116);
#2116 = CARTESIAN_POINT('',(1.08,16.5,13.3));
#2117 = LINE('',#2118,#2119);
#2118 = CARTESIAN_POINT('',(1.08,16.5,11.));
#2119 = VECTOR('',#2120,1.);
#2120 = DIRECTION('',(0.,0.,1.));
#2121 = ORIENTED_EDGE('',*,*,#2122,.F.);
#2122 = EDGE_CURVE('',#2073,#2115,#2123,.T.);
#2123 = LINE('',#2124,#2125);
#2124 = CARTESIAN_POINT('',(10.92,16.5,13.3));
#2125 = VECTOR('',#2126,1.);
#2126 = DIRECTION('',(-1.,0.,0.));
#2127 = PLANE('',#2128);
#2128 = AXIS2_PLACEMENT_3D('',#2129,#2130,#2131);
#2129 = CARTESIAN_POINT('',(10.92,16.5,11.));
#2130 = DIRECTION('',(0.,1.,0.));
#2131 = DIRECTION('',(0.,0.,1.));
#2132 = ADVANCED_FACE('',(#2133),#2161,.F.);
#2133 = FACE_BOUND('',#2134,.F.);
#2134 = EDGE_LOOP('',(#2135,#2136,#2137,#2146,#2155));
#2135 = ORIENTED_EDGE('',*,*,#1923,.T.);
#2136 = ORIENTED_EDGE('',*,*,#2114,.T.);
#2137 = ORIENTED_EDGE('',*,*,#2138,.F.);
#2138 = EDGE_CURVE('',#2139,#2115,#2141,.T.);
#2139 = VERTEX_POINT('',#2140);
#2140 = CARTESIAN_POINT('',(1.08,13.9,17.04));
#2141 = CIRCLE('',#2142,11.);
#2142 = AXIS2_PLACEMENT_3D('',#2143,#2144,#2145);
#2143 = CARTESIAN_POINT('',(1.08,6.363780161029,9.027173373976));
#2144 = DIRECTION('',(-1.,0.,0.));
#2145 = DIRECTION('',(0.,-1.,0.));
#2146 = ORIENTED_EDGE('',*,*,#2147,.T.);
#2147 = EDGE_CURVE('',#2139,#2148,#2150,.T.);
#2148 = VERTEX_POINT('',#2149);
#2149 = CARTESIAN_POINT('',(1.08,0.7,13.3));
#2150 = CIRCLE('',#2151,25.164117647059);
#2151 = AXIS2_PLACEMENT_3D('',#2152,#2153,#2154);
#2152 = CARTESIAN_POINT('',(1.08,0.7,38.464117647059));
#2153 = DIRECTION('',(-1.,0.,0.));
#2154 = DIRECTION('',(0.,-1.,0.));
#2155 = ORIENTED_EDGE('',*,*,#2156,.F.);
#2156 = EDGE_CURVE('',#1916,#2148,#2157,.T.);
#2157 = LINE('',#2158,#2159);
#2158 = CARTESIAN_POINT('',(1.08,0.7,11.));
#2159 = VECTOR('',#2160,1.);
#2160 = DIRECTION('',(0.,0.,1.));
#2161 = PLANE('',#2162);
#2162 = AXIS2_PLACEMENT_3D('',#2163,#2164,#2165);
#2163 = CARTESIAN_POINT('',(1.08,8.983037430565,12.93267755305));
#2164 = DIRECTION('',(1.,0.,0.));
#2165 = DIRECTION('',(0.,0.,1.));
#2166 = ADVANCED_FACE('',(#2167),#2178,.F.);
#2167 = FACE_BOUND('',#2168,.F.);
#2168 = EDGE_LOOP('',(#2169,#2170,#2171,#2172));
#2169 = ORIENTED_EDGE('',*,*,#2098,.F.);
#2170 = ORIENTED_EDGE('',*,*,#1915,.T.);
#2171 = ORIENTED_EDGE('',*,*,#2156,.T.);
#2172 = ORIENTED_EDGE('',*,*,#2173,.F.);
#2173 = EDGE_CURVE('',#2090,#2148,#2174,.T.);
#2174 = LINE('',#2175,#2176);
#2175 = CARTESIAN_POINT('',(10.92,0.7,13.3));
#2176 = VECTOR('',#2177,1.);
#2177 = DIRECTION('',(-1.,0.,0.));
#2178 = PLANE('',#2179);
#2179 = AXIS2_PLACEMENT_3D('',#2180,#2181,#2182);
#2180 = CARTESIAN_POINT('',(10.92,0.7,11.));
#2181 = DIRECTION('',(0.,1.,0.));
#2182 = DIRECTION('',(0.,0.,1.));
#2183 = ADVANCED_FACE('',(#2184),#2195,.F.);
#2184 = FACE_BOUND('',#2185,.T.);
#2185 = EDGE_LOOP('',(#2186,#2192,#2193,#2194));
#2186 = ORIENTED_EDGE('',*,*,#2187,.T.);
#2187 = EDGE_CURVE('',#2081,#2139,#2188,.T.);
#2188 = LINE('',#2189,#2190);
#2189 = CARTESIAN_POINT('',(10.92,13.9,17.04));
#2190 = VECTOR('',#2191,1.);
#2191 = DIRECTION('',(-1.,0.,0.));
#2192 = ORIENTED_EDGE('',*,*,#2147,.T.);
#2193 = ORIENTED_EDGE('',*,*,#2173,.F.);
#2194 = ORIENTED_EDGE('',*,*,#2089,.F.);
#2195 = CYLINDRICAL_SURFACE('',#2196,25.164117647059);
#2196 = AXIS2_PLACEMENT_3D('',#2197,#2198,#2199);
#2197 = CARTESIAN_POINT('',(10.92,0.7,38.464117647059));
#2198 = DIRECTION('',(1.,0.,0.));
#2199 = DIRECTION('',(0.,-1.,0.));
#2200 = ADVANCED_FACE('',(#2201),#2207,.T.);
#2201 = FACE_BOUND('',#2202,.F.);
#2202 = EDGE_LOOP('',(#2203,#2204,#2205,#2206));
#2203 = ORIENTED_EDGE('',*,*,#2187,.T.);
#2204 = ORIENTED_EDGE('',*,*,#2138,.T.);
#2205 = ORIENTED_EDGE('',*,*,#2122,.F.);
#2206 = ORIENTED_EDGE('',*,*,#2080,.F.);
#2207 = CYLINDRICAL_SURFACE('',#2208,11.);
#2208 = AXIS2_PLACEMENT_3D('',#2209,#2210,#2211);
#2209 = CARTESIAN_POINT('',(10.92,6.363780161029,9.027173373976));
#2210 = DIRECTION('',(1.,0.,0.));
#2211 = DIRECTION('',(0.,-1.,0.));
#2212 = ( GEOMETRIC_REPRESENTATION_CONTEXT(3) 
GLOBAL_UNCERTAINTY_ASSIGNED_CONTEXT((#2216)) 
GLOBAL_UNIT_ASSIGNED_CONTEXT((#2213,#2214,#2215)) REPRESENTATION_CONTEXT
('Context #1','3D Context with UNIT and UNCERTAINTY') );
#2213 = ( LENGTH_UNIT() NAMED_UNIT(*) SI_UNIT(.MILLI.,.METRE.) );
#2214 = ( NAMED_UNIT(*) PLANE_ANGLE_UNIT() SI_UNIT($,.RADIAN.) );
#2215 = ( NAMED_UNIT(*) SI_UNIT($,.STERADIAN.) SOLID_ANGLE_UNIT() );
#2216 = UNCERTAINTY_MEASURE_WITH_UNIT(LENGTH_MEASURE(2.E-06),#2213,
  'distance_accuracy_value','confusion accuracy');
#2217 = PRODUCT_RELATED_PRODUCT_CATEGORY('part',$,(#7));
#2218 = MECHANICAL_DESIGN_GEOMETRIC_PRESENTATION_REPRESENTATION('',(
    #2219,#2230,#2238,#2245,#2252,#2259,#2266,#2273,#2280,#2287,#2294,
    #2301,#2308,#2315,#2322,#2329,#2336,#2343,#2351,#2358,#2365,#2372,
    #2379),#2212);
#2219 = STYLED_ITEM('color',(#2220),#15);
#2220 = PRESENTATION_STYLE_ASSIGNMENT((#2221,#2227));
#2221 = SURFACE_STYLE_USAGE(.BOTH.,#2222);
#2222 = SURFACE_SIDE_STYLE('',(#2223));
#2223 = SURFACE_STYLE_FILL_AREA(#2224);
#2224 = FILL_AREA_STYLE('',(#2225));
#2225 = FILL_AREA_STYLE_COLOUR('',#2226);
#2226 = COLOUR_RGB('',0.149019617616,0.160784315601,0.160784315601);
#2227 = CURVE_STYLE('',#2228,POSITIVE_LENGTH_MEASURE(0.1),#2229);
#2228 = DRAUGHTING_PRE_DEFINED_CURVE_FONT('continuous');
#2229 = COLOUR_RGB('',9.803921802644E-02,9.803921802644E-02,
  9.803921802644E-02);
#2230 = OVER_RIDING_STYLED_ITEM('overriding color',(#2231),#1595,#2219);
#2231 = PRESENTATION_STYLE_ASSIGNMENT((#2232));
#2232 = SURFACE_STYLE_USAGE(.BOTH.,#2233);
#2233 = SURFACE_SIDE_STYLE('',(#2234));
#2234 = SURFACE_STYLE_FILL_AREA(#2235);
#2235 = FILL_AREA_STYLE('',(#2236));
#2236 = FILL_AREA_STYLE_COLOUR('',#2237);
#2237 = COLOUR_RGB('',0.740000011925,0.730000014984,0.439999992444);
#2238 = OVER_RIDING_STYLED_ITEM('overriding color',(#2239),#1653,#2219);
#2239 = PRESENTATION_STYLE_ASSIGNMENT((#2240));
#2240 = SURFACE_STYLE_USAGE(.BOTH.,#2241);
#2241 = SURFACE_SIDE_STYLE('',(#2242));
#2242 = SURFACE_STYLE_FILL_AREA(#2243);
#2243 = FILL_AREA_STYLE('',(#2244));
#2244 = FILL_AREA_STYLE_COLOUR('',#2237);
#2245 = OVER_RIDING_STYLED_ITEM('overriding color',(#2246),#1677,#2219);
#2246 = PRESENTATION_STYLE_ASSIGNMENT((#2247));
#2247 = SURFACE_STYLE_USAGE(.BOTH.,#2248);
#2248 = SURFACE_SIDE_STYLE('',(#2249));
#2249 = SURFACE_STYLE_FILL_AREA(#2250);
#2250 = FILL_AREA_STYLE('',(#2251));
#2251 = FILL_AREA_STYLE_COLOUR('',#2237);
#2252 = OVER_RIDING_STYLED_ITEM('overriding color',(#2253),#1728,#2219);
#2253 = PRESENTATION_STYLE_ASSIGNMENT((#2254));
#2254 = SURFACE_STYLE_USAGE(.BOTH.,#2255);
#2255 = SURFACE_SIDE_STYLE('',(#2256));
#2256 = SURFACE_STYLE_FILL_AREA(#2257);
#2257 = FILL_AREA_STYLE('',(#2258));
#2258 = FILL_AREA_STYLE_COLOUR('',#2237);
#2259 = OVER_RIDING_STYLED_ITEM('overriding color',(#2260),#1745,#2219);
#2260 = PRESENTATION_STYLE_ASSIGNMENT((#2261));
#2261 = SURFACE_STYLE_USAGE(.BOTH.,#2262);
#2262 = SURFACE_SIDE_STYLE('',(#2263));
#2263 = SURFACE_STYLE_FILL_AREA(#2264);
#2264 = FILL_AREA_STYLE('',(#2265));
#2265 = FILL_AREA_STYLE_COLOUR('',#2237);
#2266 = OVER_RIDING_STYLED_ITEM('overriding color',(#2267),#1803,#2219);
#2267 = PRESENTATION_STYLE_ASSIGNMENT((#2268));
#2268 = SURFACE_STYLE_USAGE(.BOTH.,#2269);
#2269 = SURFACE_SIDE_STYLE('',(#2270));
#2270 = SURFACE_STYLE_FILL_AREA(#2271);
#2271 = FILL_AREA_STYLE('',(#2272));
#2272 = FILL_AREA_STYLE_COLOUR('',#2237);
#2273 = OVER_RIDING_STYLED_ITEM('overriding color',(#2274),#1827,#2219);
#2274 = PRESENTATION_STYLE_ASSIGNMENT((#2275));
#2275 = SURFACE_STYLE_USAGE(.BOTH.,#2276);
#2276 = SURFACE_SIDE_STYLE('',(#2277));
#2277 = SURFACE_STYLE_FILL_AREA(#2278);
#2278 = FILL_AREA_STYLE('',(#2279));
#2279 = FILL_AREA_STYLE_COLOUR('',#2237);
#2280 = OVER_RIDING_STYLED_ITEM('overriding color',(#2281),#1878,#2219);
#2281 = PRESENTATION_STYLE_ASSIGNMENT((#2282));
#2282 = SURFACE_STYLE_USAGE(.BOTH.,#2283);
#2283 = SURFACE_SIDE_STYLE('',(#2284));
#2284 = SURFACE_STYLE_FILL_AREA(#2285);
#2285 = FILL_AREA_STYLE('',(#2286));
#2286 = FILL_AREA_STYLE_COLOUR('',#2237);
#2287 = OVER_RIDING_STYLED_ITEM('overriding color',(#2288),#1941,#2219);
#2288 = PRESENTATION_STYLE_ASSIGNMENT((#2289));
#2289 = SURFACE_STYLE_USAGE(.BOTH.,#2290);
#2290 = SURFACE_SIDE_STYLE('',(#2291));
#2291 = SURFACE_STYLE_FILL_AREA(#2292);
#2292 = FILL_AREA_STYLE('',(#2293));
#2293 = FILL_AREA_STYLE_COLOUR('',#2237);
#2294 = OVER_RIDING_STYLED_ITEM('overriding color',(#2295),#1958,#2219);
#2295 = PRESENTATION_STYLE_ASSIGNMENT((#2296));
#2296 = SURFACE_STYLE_USAGE(.BOTH.,#2297);
#2297 = SURFACE_SIDE_STYLE('',(#2298));
#2298 = SURFACE_STYLE_FILL_AREA(#2299);
#2299 = FILL_AREA_STYLE('',(#2300));
#2300 = FILL_AREA_STYLE_COLOUR('',#2237);
#2301 = OVER_RIDING_STYLED_ITEM('overriding color',(#2302),#1975,#2219);
#2302 = PRESENTATION_STYLE_ASSIGNMENT((#2303));
#2303 = SURFACE_STYLE_USAGE(.BOTH.,#2304);
#2304 = SURFACE_SIDE_STYLE('',(#2305));
#2305 = SURFACE_STYLE_FILL_AREA(#2306);
#2306 = FILL_AREA_STYLE('',(#2307));
#2307 = FILL_AREA_STYLE_COLOUR('',#2237);
#2308 = OVER_RIDING_STYLED_ITEM('overriding color',(#2309),#1987,#2219);
#2309 = PRESENTATION_STYLE_ASSIGNMENT((#2310));
#2310 = SURFACE_STYLE_USAGE(.BOTH.,#2311);
#2311 = SURFACE_SIDE_STYLE('',(#2312));
#2312 = SURFACE_STYLE_FILL_AREA(#2313);
#2313 = FILL_AREA_STYLE('',(#2314));
#2314 = FILL_AREA_STYLE_COLOUR('',#2237);
#2315 = OVER_RIDING_STYLED_ITEM('overriding color',(#2316),#2004,#2219);
#2316 = PRESENTATION_STYLE_ASSIGNMENT((#2317));
#2317 = SURFACE_STYLE_USAGE(.BOTH.,#2318);
#2318 = SURFACE_SIDE_STYLE('',(#2319));
#2319 = SURFACE_STYLE_FILL_AREA(#2320);
#2320 = FILL_AREA_STYLE('',(#2321));
#2321 = FILL_AREA_STYLE_COLOUR('',#2237);
#2322 = OVER_RIDING_STYLED_ITEM('overriding color',(#2323),#2021,#2219);
#2323 = PRESENTATION_STYLE_ASSIGNMENT((#2324));
#2324 = SURFACE_STYLE_USAGE(.BOTH.,#2325);
#2325 = SURFACE_SIDE_STYLE('',(#2326));
#2326 = SURFACE_STYLE_FILL_AREA(#2327);
#2327 = FILL_AREA_STYLE('',(#2328));
#2328 = FILL_AREA_STYLE_COLOUR('',#2237);
#2329 = OVER_RIDING_STYLED_ITEM('overriding color',(#2330),#2038,#2219);
#2330 = PRESENTATION_STYLE_ASSIGNMENT((#2331));
#2331 = SURFACE_STYLE_USAGE(.BOTH.,#2332);
#2332 = SURFACE_SIDE_STYLE('',(#2333));
#2333 = SURFACE_STYLE_FILL_AREA(#2334);
#2334 = FILL_AREA_STYLE('',(#2335));
#2335 = FILL_AREA_STYLE_COLOUR('',#2237);
#2336 = OVER_RIDING_STYLED_ITEM('overriding color',(#2337),#2050,#2219);
#2337 = PRESENTATION_STYLE_ASSIGNMENT((#2338));
#2338 = SURFACE_STYLE_USAGE(.BOTH.,#2339);
#2339 = SURFACE_SIDE_STYLE('',(#2340));
#2340 = SURFACE_STYLE_FILL_AREA(#2341);
#2341 = FILL_AREA_STYLE('',(#2342));
#2342 = FILL_AREA_STYLE_COLOUR('',#2237);
#2343 = OVER_RIDING_STYLED_ITEM('overriding color',(#2344),#2067,#2219);
#2344 = PRESENTATION_STYLE_ASSIGNMENT((#2345));
#2345 = SURFACE_STYLE_USAGE(.BOTH.,#2346);
#2346 = SURFACE_SIDE_STYLE('',(#2347));
#2347 = SURFACE_STYLE_FILL_AREA(#2348);
#2348 = FILL_AREA_STYLE('',(#2349));
#2349 = FILL_AREA_STYLE_COLOUR('',#2350);
#2350 = COLOUR_RGB('',0.741176476869,0.168627456984,0.149019617616);
#2351 = OVER_RIDING_STYLED_ITEM('overriding color',(#2352),#2108,#2219);
#2352 = PRESENTATION_STYLE_ASSIGNMENT((#2353));
#2353 = SURFACE_STYLE_USAGE(.BOTH.,#2354);
#2354 = SURFACE_SIDE_STYLE('',(#2355));
#2355 = SURFACE_STYLE_FILL_AREA(#2356);
#2356 = FILL_AREA_STYLE('',(#2357));
#2357 = FILL_AREA_STYLE_COLOUR('',#2350);
#2358 = OVER_RIDING_STYLED_ITEM('overriding color',(#2359),#2132,#2219);
#2359 = PRESENTATION_STYLE_ASSIGNMENT((#2360));
#2360 = SURFACE_STYLE_USAGE(.BOTH.,#2361);
#2361 = SURFACE_SIDE_STYLE('',(#2362));
#2362 = SURFACE_STYLE_FILL_AREA(#2363);
#2363 = FILL_AREA_STYLE('',(#2364));
#2364 = FILL_AREA_STYLE_COLOUR('',#2350);
#2365 = OVER_RIDING_STYLED_ITEM('overriding color',(#2366),#2166,#2219);
#2366 = PRESENTATION_STYLE_ASSIGNMENT((#2367));
#2367 = SURFACE_STYLE_USAGE(.BOTH.,#2368);
#2368 = SURFACE_SIDE_STYLE('',(#2369));
#2369 = SURFACE_STYLE_FILL_AREA(#2370);
#2370 = FILL_AREA_STYLE('',(#2371));
#2371 = FILL_AREA_STYLE_COLOUR('',#2350);
#2372 = OVER_RIDING_STYLED_ITEM('overriding color',(#2373),#2183,#2219);
#2373 = PRESENTATION_STYLE_ASSIGNMENT((#2374));
#2374 = SURFACE_STYLE_USAGE(.BOTH.,#2375);
#2375 = SURFACE_SIDE_STYLE('',(#2376));
#2376 = SURFACE_STYLE_FILL_AREA(#2377);
#2377 = FILL_AREA_STYLE('',(#2378));
#2378 = FILL_AREA_STYLE_COLOUR('',#2350);
#2379 = OVER_RIDING_STYLED_ITEM('overriding color',(#2380),#2200,#2219);
#2380 = PRESENTATION_STYLE_ASSIGNMENT((#2381));
#2381 = SURFACE_STYLE_USAGE(.BOTH.,#2382);
#2382 = SURFACE_SIDE_STYLE('',(#2383));
#2383 = SURFACE_STYLE_FILL_AREA(#2384);
#2384 = FILL_AREA_STYLE('',(#2385));
#2385 = FILL_AREA_STYLE_COLOUR('',#2350);
ENDSEC;
END-ISO-10303-21;
