ISO-10303-21;
HEADER;
FILE_DESCRIPTION(('FreeCAD Model'),'2;1');
FILE_NAME('Open CASCADE Shape Model','2026-02-08T18:02:57',('Author'),(
    ''),'Open CASCADE STEP processor 7.8','FreeCAD','Unknown');
FILE_SCHEMA(('AUTOMOTIVE_DESIGN { 1 0 10303 214 1 1 1 1 }'));
ENDSEC;
DATA;
#1 = APPLICATION_PROTOCOL_DEFINITION('international standard',
  'automotive_design',2000,#2);
#2 = APPLICATION_CONTEXT(
  'core data for automotive mechanical design processes');
#3 = SHAPE_DEFINITION_REPRESENTATION(#4,#10);
#4 = PRODUCT_DEFINITION_SHAPE('','',#5);
#5 = PRODUCT_DEFINITION('design','',#6,#9);
#6 = PRODUCT_DEFINITION_FORMATION('','',#7);
#7 = PRODUCT('Fusion','Fusion','',(#8));
#8 = PRODUCT_CONTEXT('',#2,'mechanical');
#9 = PRODUCT_DEFINITION_CONTEXT('part definition',#2,'design');
#10 = ADVANCED_BREP_SHAPE_REPRESENTATION('',(#11,#15),#1798);
#11 = AXIS2_PLACEMENT_3D('',#12,#13,#14);
#12 = CARTESIAN_POINT('',(0.,0.,0.));
#13 = DIRECTION('',(0.,0.,1.));
#14 = DIRECTION('',(1.,0.,-0.));
#15 = MANIFOLD_SOLID_BREP('',#16);
#16 = CLOSED_SHELL('',(#17,#57,#88,#119,#246,#277,#294,#318,#342,#367,
    #392,#417,#442,#467,#492,#517,#542,#567,#592,#870,#882,#891,#900,
    #909,#918,#927,#936,#945,#954,#963,#972,#1003,#1027,#1051,#1068,
    #1099,#1123,#1147,#1164,#1189,#1220,#1244,#1268,#1285,#1309,#1333,
    #1357,#1374,#1405,#1429,#1453,#1477,#1501,#1518,#1542,#1566,#1590,
    #1607,#1638,#1662,#1686,#1703,#1715,#1727,#1736,#1748,#1760,#1774,
    #1786));
#17 = ADVANCED_FACE('',(#18),#52,.F.);
#18 = FACE_BOUND('',#19,.F.);
#19 = EDGE_LOOP('',(#20,#30,#38,#46));
#20 = ORIENTED_EDGE('',*,*,#21,.T.);
#21 = EDGE_CURVE('',#22,#24,#26,.T.);
#22 = VERTEX_POINT('',#23);
#23 = CARTESIAN_POINT('',(0.,0.,0.));
#24 = VERTEX_POINT('',#25);
#25 = CARTESIAN_POINT('',(0.,0.,6.9));
#26 = LINE('',#27,#28);
#27 = CARTESIAN_POINT('',(0.,0.,0.));
#28 = VECTOR('',#29,1.);
#29 = DIRECTION('',(0.,0.,1.));
#30 = ORIENTED_EDGE('',*,*,#31,.T.);
#31 = EDGE_CURVE('',#24,#32,#34,.T.);
#32 = VERTEX_POINT('',#33);
#33 = CARTESIAN_POINT('',(10.,0.,6.9));
#34 = LINE('',#35,#36);
#35 = CARTESIAN_POINT('',(0.,0.,6.9));
#36 = VECTOR('',#37,1.);
#37 = DIRECTION('',(1.,0.,0.));
#38 = ORIENTED_EDGE('',*,*,#39,.F.);
#39 = EDGE_CURVE('',#40,#32,#42,.T.);
#40 = VERTEX_POINT('',#41);
#41 = CARTESIAN_POINT('',(10.,0.,0.));
#42 = LINE('',#43,#44);
#43 = CARTESIAN_POINT('',(10.,0.,0.));
#44 = VECTOR('',#45,1.);
#45 = DIRECTION('',(0.,0.,1.));
#46 = ORIENTED_EDGE('',*,*,#47,.F.);
#47 = EDGE_CURVE('',#22,#40,#48,.T.);
#48 = LINE('',#49,#50);
#49 = CARTESIAN_POINT('',(0.,0.,0.));
#50 = VECTOR('',#51,1.);
#51 = DIRECTION('',(1.,0.,0.));
#52 = PLANE('',#53);
#53 = AXIS2_PLACEMENT_3D('',#54,#55,#56);
#54 = CARTESIAN_POINT('',(0.,0.,0.));
#55 = DIRECTION('',(0.,1.,0.));
#56 = DIRECTION('',(1.,0.,0.));
#57 = ADVANCED_FACE('',(#58),#83,.F.);
#58 = FACE_BOUND('',#59,.F.);
#59 = EDGE_LOOP('',(#60,#70,#76,#77));
#60 = ORIENTED_EDGE('',*,*,#61,.T.);
#61 = EDGE_CURVE('',#62,#64,#66,.T.);
#62 = VERTEX_POINT('',#63);
#63 = CARTESIAN_POINT('',(0.,13.,0.));
#64 = VERTEX_POINT('',#65);
#65 = CARTESIAN_POINT('',(0.,13.,6.9));
#66 = LINE('',#67,#68);
#67 = CARTESIAN_POINT('',(0.,13.,0.));
#68 = VECTOR('',#69,1.);
#69 = DIRECTION('',(0.,0.,1.));
#70 = ORIENTED_EDGE('',*,*,#71,.T.);
#71 = EDGE_CURVE('',#64,#24,#72,.T.);
#72 = LINE('',#73,#74);
#73 = CARTESIAN_POINT('',(0.,13.,6.9));
#74 = VECTOR('',#75,1.);
#75 = DIRECTION('',(0.,-1.,0.));
#76 = ORIENTED_EDGE('',*,*,#21,.F.);
#77 = ORIENTED_EDGE('',*,*,#78,.F.);
#78 = EDGE_CURVE('',#62,#22,#79,.T.);
#79 = LINE('',#80,#81);
#80 = CARTESIAN_POINT('',(0.,13.,0.));
#81 = VECTOR('',#82,1.);
#82 = DIRECTION('',(0.,-1.,0.));
#83 = PLANE('',#84);
#84 = AXIS2_PLACEMENT_3D('',#85,#86,#87);
#85 = CARTESIAN_POINT('',(0.,13.,0.));
#86 = DIRECTION('',(1.,0.,0.));
#87 = DIRECTION('',(0.,-1.,0.));
#88 = ADVANCED_FACE('',(#89),#114,.F.);
#89 = FACE_BOUND('',#90,.F.);
#90 = EDGE_LOOP('',(#91,#92,#100,#108));
#91 = ORIENTED_EDGE('',*,*,#39,.T.);
#92 = ORIENTED_EDGE('',*,*,#93,.T.);
#93 = EDGE_CURVE('',#32,#94,#96,.T.);
#94 = VERTEX_POINT('',#95);
#95 = CARTESIAN_POINT('',(10.,13.,6.9));
#96 = LINE('',#97,#98);
#97 = CARTESIAN_POINT('',(10.,0.,6.9));
#98 = VECTOR('',#99,1.);
#99 = DIRECTION('',(0.,1.,0.));
#100 = ORIENTED_EDGE('',*,*,#101,.F.);
#101 = EDGE_CURVE('',#102,#94,#104,.T.);
#102 = VERTEX_POINT('',#103);
#103 = CARTESIAN_POINT('',(10.,13.,0.));
#104 = LINE('',#105,#106);
#105 = CARTESIAN_POINT('',(10.,13.,0.));
#106 = VECTOR('',#107,1.);
#107 = DIRECTION('',(0.,0.,1.));
#108 = ORIENTED_EDGE('',*,*,#109,.F.);
#109 = EDGE_CURVE('',#40,#102,#110,.T.);
#110 = LINE('',#111,#112);
#111 = CARTESIAN_POINT('',(10.,0.,0.));
#112 = VECTOR('',#113,1.);
#113 = DIRECTION('',(0.,1.,0.));
#114 = PLANE('',#115);
#115 = AXIS2_PLACEMENT_3D('',#116,#117,#118);
#116 = CARTESIAN_POINT('',(10.,0.,0.));
#117 = DIRECTION('',(-1.,0.,0.));
#118 = DIRECTION('',(0.,1.,0.));
#119 = ADVANCED_FACE('',(#120,#131,#142,#153,#164,#175,#186,#197,#208,
    #219,#230),#241,.F.);
#120 = FACE_BOUND('',#121,.F.);
#121 = EDGE_LOOP('',(#122,#123,#124,#130));
#122 = ORIENTED_EDGE('',*,*,#47,.T.);
#123 = ORIENTED_EDGE('',*,*,#109,.T.);
#124 = ORIENTED_EDGE('',*,*,#125,.T.);
#125 = EDGE_CURVE('',#102,#62,#126,.T.);
#126 = LINE('',#127,#128);
#127 = CARTESIAN_POINT('',(10.,13.,0.));
#128 = VECTOR('',#129,1.);
#129 = DIRECTION('',(-1.,0.,0.));
#130 = ORIENTED_EDGE('',*,*,#78,.T.);
#131 = FACE_BOUND('',#132,.F.);
#132 = EDGE_LOOP('',(#133));
#133 = ORIENTED_EDGE('',*,*,#134,.T.);
#134 = EDGE_CURVE('',#135,#135,#137,.T.);
#135 = VERTEX_POINT('',#136);
#136 = CARTESIAN_POINT('',(1.44,1.42,0.));
#137 = CIRCLE('',#138,0.25);
#138 = AXIS2_PLACEMENT_3D('',#139,#140,#141);
#139 = CARTESIAN_POINT('',(1.19,1.42,0.));
#140 = DIRECTION('',(0.,0.,-1.));
#141 = DIRECTION('',(1.,0.,0.));
#142 = FACE_BOUND('',#143,.F.);
#143 = EDGE_LOOP('',(#144));
#144 = ORIENTED_EDGE('',*,*,#145,.T.);
#145 = EDGE_CURVE('',#146,#146,#148,.T.);
#146 = VERTEX_POINT('',#147);
#147 = CARTESIAN_POINT('',(1.439999999997,3.96,0.));
#148 = CIRCLE('',#149,0.25);
#149 = AXIS2_PLACEMENT_3D('',#150,#151,#152);
#150 = CARTESIAN_POINT('',(1.189999999997,3.96,0.));
#151 = DIRECTION('',(0.,0.,-1.));
#152 = DIRECTION('',(1.,0.,0.));
#153 = FACE_BOUND('',#154,.F.);
#154 = EDGE_LOOP('',(#155));
#155 = ORIENTED_EDGE('',*,*,#156,.T.);
#156 = EDGE_CURVE('',#157,#157,#159,.T.);
#157 = VERTEX_POINT('',#158);
#158 = CARTESIAN_POINT('',(1.439999999996,6.5,0.));
#159 = CIRCLE('',#160,0.25);
#160 = AXIS2_PLACEMENT_3D('',#161,#162,#163);
#161 = CARTESIAN_POINT('',(1.189999999996,6.5,0.));
#162 = DIRECTION('',(0.,0.,-1.));
#163 = DIRECTION('',(1.,0.,0.));
#164 = FACE_BOUND('',#165,.F.);
#165 = EDGE_LOOP('',(#166));
#166 = ORIENTED_EDGE('',*,*,#167,.T.);
#167 = EDGE_CURVE('',#168,#168,#170,.T.);
#168 = VERTEX_POINT('',#169);
#169 = CARTESIAN_POINT('',(9.06,1.42,0.));
#170 = CIRCLE('',#171,0.25);
#171 = AXIS2_PLACEMENT_3D('',#172,#173,#174);
#172 = CARTESIAN_POINT('',(8.81,1.42,0.));
#173 = DIRECTION('',(0.,0.,-1.));
#174 = DIRECTION('',(1.,0.,0.));
#175 = FACE_BOUND('',#176,.F.);
#176 = EDGE_LOOP('',(#177));
#177 = ORIENTED_EDGE('',*,*,#178,.T.);
#178 = EDGE_CURVE('',#179,#179,#181,.T.);
#179 = VERTEX_POINT('',#180);
#180 = CARTESIAN_POINT('',(9.060000000003,3.96,0.));
#181 = CIRCLE('',#182,0.25);
#182 = AXIS2_PLACEMENT_3D('',#183,#184,#185);
#183 = CARTESIAN_POINT('',(8.810000000003,3.96,0.));
#184 = DIRECTION('',(0.,0.,-1.));
#185 = DIRECTION('',(1.,0.,0.));
#186 = FACE_BOUND('',#187,.F.);
#187 = EDGE_LOOP('',(#188));
#188 = ORIENTED_EDGE('',*,*,#189,.T.);
#189 = EDGE_CURVE('',#190,#190,#192,.T.);
#190 = VERTEX_POINT('',#191);
#191 = CARTESIAN_POINT('',(9.060000000004,6.5,0.));
#192 = CIRCLE('',#193,0.25);
#193 = AXIS2_PLACEMENT_3D('',#194,#195,#196);
#194 = CARTESIAN_POINT('',(8.810000000004,6.5,0.));
#195 = DIRECTION('',(0.,0.,-1.));
#196 = DIRECTION('',(1.,0.,0.));
#197 = FACE_BOUND('',#198,.F.);
#198 = EDGE_LOOP('',(#199));
#199 = ORIENTED_EDGE('',*,*,#200,.T.);
#200 = EDGE_CURVE('',#201,#201,#203,.T.);
#201 = VERTEX_POINT('',#202);
#202 = CARTESIAN_POINT('',(1.439999999994,9.04,0.));
#203 = CIRCLE('',#204,0.25);
#204 = AXIS2_PLACEMENT_3D('',#205,#206,#207);
#205 = CARTESIAN_POINT('',(1.189999999994,9.04,0.));
#206 = DIRECTION('',(0.,0.,-1.));
#207 = DIRECTION('',(1.,0.,0.));
#208 = FACE_BOUND('',#209,.F.);
#209 = EDGE_LOOP('',(#210));
#210 = ORIENTED_EDGE('',*,*,#211,.T.);
#211 = EDGE_CURVE('',#212,#212,#214,.T.);
#212 = VERTEX_POINT('',#213);
#213 = CARTESIAN_POINT('',(1.439999999991,11.58,0.));
#214 = CIRCLE('',#215,0.25);
#215 = AXIS2_PLACEMENT_3D('',#216,#217,#218);
#216 = CARTESIAN_POINT('',(1.189999999991,11.58,0.));
#217 = DIRECTION('',(0.,0.,-1.));
#218 = DIRECTION('',(1.,0.,0.));
#219 = FACE_BOUND('',#220,.F.);
#220 = EDGE_LOOP('',(#221));
#221 = ORIENTED_EDGE('',*,*,#222,.T.);
#222 = EDGE_CURVE('',#223,#223,#225,.T.);
#223 = VERTEX_POINT('',#224);
#224 = CARTESIAN_POINT('',(9.060000000006,9.04,0.));
#225 = CIRCLE('',#226,0.25);
#226 = AXIS2_PLACEMENT_3D('',#227,#228,#229);
#227 = CARTESIAN_POINT('',(8.810000000006,9.04,0.));
#228 = DIRECTION('',(0.,0.,-1.));
#229 = DIRECTION('',(1.,0.,0.));
#230 = FACE_BOUND('',#231,.F.);
#231 = EDGE_LOOP('',(#232));
#232 = ORIENTED_EDGE('',*,*,#233,.T.);
#233 = EDGE_CURVE('',#234,#234,#236,.T.);
#234 = VERTEX_POINT('',#235);
#235 = CARTESIAN_POINT('',(9.060000000009,11.58,0.));
#236 = CIRCLE('',#237,0.25);
#237 = AXIS2_PLACEMENT_3D('',#238,#239,#240);
#238 = CARTESIAN_POINT('',(8.810000000009,11.58,0.));
#239 = DIRECTION('',(0.,0.,-1.));
#240 = DIRECTION('',(1.,0.,0.));
#241 = PLANE('',#242);
#242 = AXIS2_PLACEMENT_3D('',#243,#244,#245);
#243 = CARTESIAN_POINT('',(5.,6.5,0.));
#244 = DIRECTION('',(0.,0.,1.));
#245 = DIRECTION('',(1.,0.,0.));
#246 = ADVANCED_FACE('',(#247),#272,.F.);
#247 = FACE_BOUND('',#248,.F.);
#248 = EDGE_LOOP('',(#249,#257,#265,#271));
#249 = ORIENTED_EDGE('',*,*,#250,.T.);
#250 = EDGE_CURVE('',#24,#251,#253,.T.);
#251 = VERTEX_POINT('',#252);
#252 = CARTESIAN_POINT('',(0.,0.,6.95));
#253 = LINE('',#254,#255);
#254 = CARTESIAN_POINT('',(0.,0.,6.9));
#255 = VECTOR('',#256,1.);
#256 = DIRECTION('',(0.,0.,1.));
#257 = ORIENTED_EDGE('',*,*,#258,.T.);
#258 = EDGE_CURVE('',#251,#259,#261,.T.);
#259 = VERTEX_POINT('',#260);
#260 = CARTESIAN_POINT('',(10.,0.,6.95));
#261 = LINE('',#262,#263);
#262 = CARTESIAN_POINT('',(0.,0.,6.95));
#263 = VECTOR('',#264,1.);
#264 = DIRECTION('',(1.,0.,0.));
#265 = ORIENTED_EDGE('',*,*,#266,.F.);
#266 = EDGE_CURVE('',#32,#259,#267,.T.);
#267 = LINE('',#268,#269);
#268 = CARTESIAN_POINT('',(10.,0.,6.9));
#269 = VECTOR('',#270,1.);
#270 = DIRECTION('',(0.,0.,1.));
#271 = ORIENTED_EDGE('',*,*,#31,.F.);
#272 = PLANE('',#273);
#273 = AXIS2_PLACEMENT_3D('',#274,#275,#276);
#274 = CARTESIAN_POINT('',(0.,0.,6.9));
#275 = DIRECTION('',(0.,1.,0.));
#276 = DIRECTION('',(1.,0.,0.));
#277 = ADVANCED_FACE('',(#278),#289,.F.);
#278 = FACE_BOUND('',#279,.F.);
#279 = EDGE_LOOP('',(#280,#281,#287,#288));
#280 = ORIENTED_EDGE('',*,*,#101,.T.);
#281 = ORIENTED_EDGE('',*,*,#282,.T.);
#282 = EDGE_CURVE('',#94,#64,#283,.T.);
#283 = LINE('',#284,#285);
#284 = CARTESIAN_POINT('',(10.,13.,6.9));
#285 = VECTOR('',#286,1.);
#286 = DIRECTION('',(-1.,0.,0.));
#287 = ORIENTED_EDGE('',*,*,#61,.F.);
#288 = ORIENTED_EDGE('',*,*,#125,.F.);
#289 = PLANE('',#290);
#290 = AXIS2_PLACEMENT_3D('',#291,#292,#293);
#291 = CARTESIAN_POINT('',(10.,13.,0.));
#292 = DIRECTION('',(0.,-1.,0.));
#293 = DIRECTION('',(-1.,0.,0.));
#294 = ADVANCED_FACE('',(#295),#313,.F.);
#295 = FACE_BOUND('',#296,.F.);
#296 = EDGE_LOOP('',(#297,#305,#311,#312));
#297 = ORIENTED_EDGE('',*,*,#298,.T.);
#298 = EDGE_CURVE('',#64,#299,#301,.T.);
#299 = VERTEX_POINT('',#300);
#300 = CARTESIAN_POINT('',(0.,13.,6.95));
#301 = LINE('',#302,#303);
#302 = CARTESIAN_POINT('',(0.,13.,6.9));
#303 = VECTOR('',#304,1.);
#304 = DIRECTION('',(0.,0.,1.));
#305 = ORIENTED_EDGE('',*,*,#306,.T.);
#306 = EDGE_CURVE('',#299,#251,#307,.T.);
#307 = LINE('',#308,#309);
#308 = CARTESIAN_POINT('',(0.,13.,6.95));
#309 = VECTOR('',#310,1.);
#310 = DIRECTION('',(0.,-1.,0.));
#311 = ORIENTED_EDGE('',*,*,#250,.F.);
#312 = ORIENTED_EDGE('',*,*,#71,.F.);
#313 = PLANE('',#314);
#314 = AXIS2_PLACEMENT_3D('',#315,#316,#317);
#315 = CARTESIAN_POINT('',(0.,13.,6.9));
#316 = DIRECTION('',(1.,0.,0.));
#317 = DIRECTION('',(0.,-1.,0.));
#318 = ADVANCED_FACE('',(#319),#337,.F.);
#319 = FACE_BOUND('',#320,.F.);
#320 = EDGE_LOOP('',(#321,#322,#330,#336));
#321 = ORIENTED_EDGE('',*,*,#266,.T.);
#322 = ORIENTED_EDGE('',*,*,#323,.T.);
#323 = EDGE_CURVE('',#259,#324,#326,.T.);
#324 = VERTEX_POINT('',#325);
#325 = CARTESIAN_POINT('',(10.,13.,6.95));
#326 = LINE('',#327,#328);
#327 = CARTESIAN_POINT('',(10.,0.,6.95));
#328 = VECTOR('',#329,1.);
#329 = DIRECTION('',(0.,1.,0.));
#330 = ORIENTED_EDGE('',*,*,#331,.F.);
#331 = EDGE_CURVE('',#94,#324,#332,.T.);
#332 = LINE('',#333,#334);
#333 = CARTESIAN_POINT('',(10.,13.,6.9));
#334 = VECTOR('',#335,1.);
#335 = DIRECTION('',(0.,0.,1.));
#336 = ORIENTED_EDGE('',*,*,#93,.F.);
#337 = PLANE('',#338);
#338 = AXIS2_PLACEMENT_3D('',#339,#340,#341);
#339 = CARTESIAN_POINT('',(10.,0.,6.9));
#340 = DIRECTION('',(-1.,0.,0.));
#341 = DIRECTION('',(0.,1.,0.));
#342 = ADVANCED_FACE('',(#343),#362,.T.);
#343 = FACE_BOUND('',#344,.F.);
#344 = EDGE_LOOP('',(#345,#353,#360,#361));
#345 = ORIENTED_EDGE('',*,*,#346,.T.);
#346 = EDGE_CURVE('',#135,#347,#349,.T.);
#347 = VERTEX_POINT('',#348);
#348 = CARTESIAN_POINT('',(1.44,1.42,-2.6));
#349 = LINE('',#350,#351);
#350 = CARTESIAN_POINT('',(1.44,1.42,0.));
#351 = VECTOR('',#352,1.);
#352 = DIRECTION('',(0.,0.,-1.));
#353 = ORIENTED_EDGE('',*,*,#354,.T.);
#354 = EDGE_CURVE('',#347,#347,#355,.T.);
#355 = CIRCLE('',#356,0.25);
#356 = AXIS2_PLACEMENT_3D('',#357,#358,#359);
#357 = CARTESIAN_POINT('',(1.19,1.42,-2.6));
#358 = DIRECTION('',(0.,0.,-1.));
#359 = DIRECTION('',(1.,0.,0.));
#360 = ORIENTED_EDGE('',*,*,#346,.F.);
#361 = ORIENTED_EDGE('',*,*,#134,.F.);
#362 = CYLINDRICAL_SURFACE('',#363,0.25);
#363 = AXIS2_PLACEMENT_3D('',#364,#365,#366);
#364 = CARTESIAN_POINT('',(1.19,1.42,0.));
#365 = DIRECTION('',(0.,0.,1.));
#366 = DIRECTION('',(1.,0.,0.));
#367 = ADVANCED_FACE('',(#368),#387,.T.);
#368 = FACE_BOUND('',#369,.F.);
#369 = EDGE_LOOP('',(#370,#378,#385,#386));
#370 = ORIENTED_EDGE('',*,*,#371,.T.);
#371 = EDGE_CURVE('',#146,#372,#374,.T.);
#372 = VERTEX_POINT('',#373);
#373 = CARTESIAN_POINT('',(1.439999999997,3.96,-2.6));
#374 = LINE('',#375,#376);
#375 = CARTESIAN_POINT('',(1.439999999997,3.96,0.));
#376 = VECTOR('',#377,1.);
#377 = DIRECTION('',(0.,0.,-1.));
#378 = ORIENTED_EDGE('',*,*,#379,.T.);
#379 = EDGE_CURVE('',#372,#372,#380,.T.);
#380 = CIRCLE('',#381,0.25);
#381 = AXIS2_PLACEMENT_3D('',#382,#383,#384);
#382 = CARTESIAN_POINT('',(1.189999999997,3.96,-2.6));
#383 = DIRECTION('',(0.,0.,-1.));
#384 = DIRECTION('',(1.,0.,0.));
#385 = ORIENTED_EDGE('',*,*,#371,.F.);
#386 = ORIENTED_EDGE('',*,*,#145,.F.);
#387 = CYLINDRICAL_SURFACE('',#388,0.25);
#388 = AXIS2_PLACEMENT_3D('',#389,#390,#391);
#389 = CARTESIAN_POINT('',(1.189999999997,3.96,0.));
#390 = DIRECTION('',(0.,0.,1.));
#391 = DIRECTION('',(1.,0.,0.));
#392 = ADVANCED_FACE('',(#393),#412,.T.);
#393 = FACE_BOUND('',#394,.F.);
#394 = EDGE_LOOP('',(#395,#403,#410,#411));
#395 = ORIENTED_EDGE('',*,*,#396,.T.);
#396 = EDGE_CURVE('',#157,#397,#399,.T.);
#397 = VERTEX_POINT('',#398);
#398 = CARTESIAN_POINT('',(1.439999999996,6.5,-2.6));
#399 = LINE('',#400,#401);
#400 = CARTESIAN_POINT('',(1.439999999996,6.5,0.));
#401 = VECTOR('',#402,1.);
#402 = DIRECTION('',(0.,0.,-1.));
#403 = ORIENTED_EDGE('',*,*,#404,.T.);
#404 = EDGE_CURVE('',#397,#397,#405,.T.);
#405 = CIRCLE('',#406,0.25);
#406 = AXIS2_PLACEMENT_3D('',#407,#408,#409);
#407 = CARTESIAN_POINT('',(1.189999999996,6.5,-2.6));
#408 = DIRECTION('',(0.,0.,-1.));
#409 = DIRECTION('',(1.,0.,0.));
#410 = ORIENTED_EDGE('',*,*,#396,.F.);
#411 = ORIENTED_EDGE('',*,*,#156,.F.);
#412 = CYLINDRICAL_SURFACE('',#413,0.25);
#413 = AXIS2_PLACEMENT_3D('',#414,#415,#416);
#414 = CARTESIAN_POINT('',(1.189999999996,6.5,0.));
#415 = DIRECTION('',(0.,0.,1.));
#416 = DIRECTION('',(1.,0.,0.));
#417 = ADVANCED_FACE('',(#418),#437,.T.);
#418 = FACE_BOUND('',#419,.F.);
#419 = EDGE_LOOP('',(#420,#428,#435,#436));
#420 = ORIENTED_EDGE('',*,*,#421,.T.);
#421 = EDGE_CURVE('',#168,#422,#424,.T.);
#422 = VERTEX_POINT('',#423);
#423 = CARTESIAN_POINT('',(9.06,1.42,-2.6));
#424 = LINE('',#425,#426);
#425 = CARTESIAN_POINT('',(9.06,1.42,0.));
#426 = VECTOR('',#427,1.);
#427 = DIRECTION('',(0.,0.,-1.));
#428 = ORIENTED_EDGE('',*,*,#429,.T.);
#429 = EDGE_CURVE('',#422,#422,#430,.T.);
#430 = CIRCLE('',#431,0.25);
#431 = AXIS2_PLACEMENT_3D('',#432,#433,#434);
#432 = CARTESIAN_POINT('',(8.81,1.42,-2.6));
#433 = DIRECTION('',(0.,0.,-1.));
#434 = DIRECTION('',(1.,0.,0.));
#435 = ORIENTED_EDGE('',*,*,#421,.F.);
#436 = ORIENTED_EDGE('',*,*,#167,.F.);
#437 = CYLINDRICAL_SURFACE('',#438,0.25);
#438 = AXIS2_PLACEMENT_3D('',#439,#440,#441);
#439 = CARTESIAN_POINT('',(8.81,1.42,0.));
#440 = DIRECTION('',(0.,0.,1.));
#441 = DIRECTION('',(1.,0.,0.));
#442 = ADVANCED_FACE('',(#443),#462,.T.);
#443 = FACE_BOUND('',#444,.F.);
#444 = EDGE_LOOP('',(#445,#453,#460,#461));
#445 = ORIENTED_EDGE('',*,*,#446,.T.);
#446 = EDGE_CURVE('',#179,#447,#449,.T.);
#447 = VERTEX_POINT('',#448);
#448 = CARTESIAN_POINT('',(9.060000000003,3.96,-2.6));
#449 = LINE('',#450,#451);
#450 = CARTESIAN_POINT('',(9.060000000003,3.96,0.));
#451 = VECTOR('',#452,1.);
#452 = DIRECTION('',(0.,0.,-1.));
#453 = ORIENTED_EDGE('',*,*,#454,.T.);
#454 = EDGE_CURVE('',#447,#447,#455,.T.);
#455 = CIRCLE('',#456,0.25);
#456 = AXIS2_PLACEMENT_3D('',#457,#458,#459);
#457 = CARTESIAN_POINT('',(8.810000000003,3.96,-2.6));
#458 = DIRECTION('',(0.,0.,-1.));
#459 = DIRECTION('',(1.,0.,0.));
#460 = ORIENTED_EDGE('',*,*,#446,.F.);
#461 = ORIENTED_EDGE('',*,*,#178,.F.);
#462 = CYLINDRICAL_SURFACE('',#463,0.25);
#463 = AXIS2_PLACEMENT_3D('',#464,#465,#466);
#464 = CARTESIAN_POINT('',(8.810000000003,3.96,0.));
#465 = DIRECTION('',(0.,0.,1.));
#466 = DIRECTION('',(1.,0.,0.));
#467 = ADVANCED_FACE('',(#468),#487,.T.);
#468 = FACE_BOUND('',#469,.F.);
#469 = EDGE_LOOP('',(#470,#478,#485,#486));
#470 = ORIENTED_EDGE('',*,*,#471,.T.);
#471 = EDGE_CURVE('',#190,#472,#474,.T.);
#472 = VERTEX_POINT('',#473);
#473 = CARTESIAN_POINT('',(9.060000000004,6.5,-2.6));
#474 = LINE('',#475,#476);
#475 = CARTESIAN_POINT('',(9.060000000004,6.5,0.));
#476 = VECTOR('',#477,1.);
#477 = DIRECTION('',(0.,0.,-1.));
#478 = ORIENTED_EDGE('',*,*,#479,.T.);
#479 = EDGE_CURVE('',#472,#472,#480,.T.);
#480 = CIRCLE('',#481,0.25);
#481 = AXIS2_PLACEMENT_3D('',#482,#483,#484);
#482 = CARTESIAN_POINT('',(8.810000000004,6.5,-2.6));
#483 = DIRECTION('',(0.,0.,-1.));
#484 = DIRECTION('',(1.,0.,0.));
#485 = ORIENTED_EDGE('',*,*,#471,.F.);
#486 = ORIENTED_EDGE('',*,*,#189,.F.);
#487 = CYLINDRICAL_SURFACE('',#488,0.25);
#488 = AXIS2_PLACEMENT_3D('',#489,#490,#491);
#489 = CARTESIAN_POINT('',(8.810000000004,6.5,0.));
#490 = DIRECTION('',(0.,0.,1.));
#491 = DIRECTION('',(1.,0.,0.));
#492 = ADVANCED_FACE('',(#493),#512,.T.);
#493 = FACE_BOUND('',#494,.F.);
#494 = EDGE_LOOP('',(#495,#503,#510,#511));
#495 = ORIENTED_EDGE('',*,*,#496,.T.);
#496 = EDGE_CURVE('',#201,#497,#499,.T.);
#497 = VERTEX_POINT('',#498);
#498 = CARTESIAN_POINT('',(1.439999999994,9.04,-2.6));
#499 = LINE('',#500,#501);
#500 = CARTESIAN_POINT('',(1.439999999994,9.04,0.));
#501 = VECTOR('',#502,1.);
#502 = DIRECTION('',(0.,0.,-1.));
#503 = ORIENTED_EDGE('',*,*,#504,.T.);
#504 = EDGE_CURVE('',#497,#497,#505,.T.);
#505 = CIRCLE('',#506,0.25);
#506 = AXIS2_PLACEMENT_3D('',#507,#508,#509);
#507 = CARTESIAN_POINT('',(1.189999999994,9.04,-2.6));
#508 = DIRECTION('',(0.,0.,-1.));
#509 = DIRECTION('',(1.,0.,0.));
#510 = ORIENTED_EDGE('',*,*,#496,.F.);
#511 = ORIENTED_EDGE('',*,*,#200,.F.);
#512 = CYLINDRICAL_SURFACE('',#513,0.25);
#513 = AXIS2_PLACEMENT_3D('',#514,#515,#516);
#514 = CARTESIAN_POINT('',(1.189999999994,9.04,0.));
#515 = DIRECTION('',(0.,0.,1.));
#516 = DIRECTION('',(1.,0.,0.));
#517 = ADVANCED_FACE('',(#518),#537,.T.);
#518 = FACE_BOUND('',#519,.F.);
#519 = EDGE_LOOP('',(#520,#528,#535,#536));
#520 = ORIENTED_EDGE('',*,*,#521,.T.);
#521 = EDGE_CURVE('',#212,#522,#524,.T.);
#522 = VERTEX_POINT('',#523);
#523 = CARTESIAN_POINT('',(1.439999999991,11.58,-2.6));
#524 = LINE('',#525,#526);
#525 = CARTESIAN_POINT('',(1.439999999991,11.58,0.));
#526 = VECTOR('',#527,1.);
#527 = DIRECTION('',(0.,0.,-1.));
#528 = ORIENTED_EDGE('',*,*,#529,.T.);
#529 = EDGE_CURVE('',#522,#522,#530,.T.);
#530 = CIRCLE('',#531,0.25);
#531 = AXIS2_PLACEMENT_3D('',#532,#533,#534);
#532 = CARTESIAN_POINT('',(1.189999999991,11.58,-2.6));
#533 = DIRECTION('',(0.,0.,-1.));
#534 = DIRECTION('',(1.,0.,0.));
#535 = ORIENTED_EDGE('',*,*,#521,.F.);
#536 = ORIENTED_EDGE('',*,*,#211,.F.);
#537 = CYLINDRICAL_SURFACE('',#538,0.25);
#538 = AXIS2_PLACEMENT_3D('',#539,#540,#541);
#539 = CARTESIAN_POINT('',(1.189999999991,11.58,0.));
#540 = DIRECTION('',(0.,0.,1.));
#541 = DIRECTION('',(1.,0.,0.));
#542 = ADVANCED_FACE('',(#543),#562,.T.);
#543 = FACE_BOUND('',#544,.F.);
#544 = EDGE_LOOP('',(#545,#553,#560,#561));
#545 = ORIENTED_EDGE('',*,*,#546,.T.);
#546 = EDGE_CURVE('',#223,#547,#549,.T.);
#547 = VERTEX_POINT('',#548);
#548 = CARTESIAN_POINT('',(9.060000000006,9.04,-2.6));
#549 = LINE('',#550,#551);
#550 = CARTESIAN_POINT('',(9.060000000006,9.04,0.));
#551 = VECTOR('',#552,1.);
#552 = DIRECTION('',(0.,0.,-1.));
#553 = ORIENTED_EDGE('',*,*,#554,.T.);
#554 = EDGE_CURVE('',#547,#547,#555,.T.);
#555 = CIRCLE('',#556,0.25);
#556 = AXIS2_PLACEMENT_3D('',#557,#558,#559);
#557 = CARTESIAN_POINT('',(8.810000000006,9.04,-2.6));
#558 = DIRECTION('',(0.,0.,-1.));
#559 = DIRECTION('',(1.,0.,0.));
#560 = ORIENTED_EDGE('',*,*,#546,.F.);
#561 = ORIENTED_EDGE('',*,*,#222,.F.);
#562 = CYLINDRICAL_SURFACE('',#563,0.25);
#563 = AXIS2_PLACEMENT_3D('',#564,#565,#566);
#564 = CARTESIAN_POINT('',(8.810000000006,9.04,0.));
#565 = DIRECTION('',(0.,0.,1.));
#566 = DIRECTION('',(1.,0.,0.));
#567 = ADVANCED_FACE('',(#568),#587,.T.);
#568 = FACE_BOUND('',#569,.F.);
#569 = EDGE_LOOP('',(#570,#578,#585,#586));
#570 = ORIENTED_EDGE('',*,*,#571,.T.);
#571 = EDGE_CURVE('',#234,#572,#574,.T.);
#572 = VERTEX_POINT('',#573);
#573 = CARTESIAN_POINT('',(9.060000000009,11.58,-2.6));
#574 = LINE('',#575,#576);
#575 = CARTESIAN_POINT('',(9.060000000009,11.58,0.));
#576 = VECTOR('',#577,1.);
#577 = DIRECTION('',(0.,0.,-1.));
#578 = ORIENTED_EDGE('',*,*,#579,.T.);
#579 = EDGE_CURVE('',#572,#572,#580,.T.);
#580 = CIRCLE('',#581,0.25);
#581 = AXIS2_PLACEMENT_3D('',#582,#583,#584);
#582 = CARTESIAN_POINT('',(8.810000000009,11.58,-2.6));
#583 = DIRECTION('',(0.,0.,-1.));
#584 = DIRECTION('',(1.,0.,0.));
#585 = ORIENTED_EDGE('',*,*,#571,.F.);
#586 = ORIENTED_EDGE('',*,*,#233,.F.);
#587 = CYLINDRICAL_SURFACE('',#588,0.25);
#588 = AXIS2_PLACEMENT_3D('',#589,#590,#591);
#589 = CARTESIAN_POINT('',(8.810000000009,11.58,0.));
#590 = DIRECTION('',(0.,0.,1.));
#591 = DIRECTION('',(1.,0.,0.));
#592 = ADVANCED_FACE('',(#593,#604,#638,#672,#683,#717,#749,#799,#831),
  #865,.T.);
#593 = FACE_BOUND('',#594,.T.);
#594 = EDGE_LOOP('',(#595,#596,#597,#598));
#595 = ORIENTED_EDGE('',*,*,#306,.T.);
#596 = ORIENTED_EDGE('',*,*,#258,.T.);
#597 = ORIENTED_EDGE('',*,*,#323,.T.);
#598 = ORIENTED_EDGE('',*,*,#599,.T.);
#599 = EDGE_CURVE('',#324,#299,#600,.T.);
#600 = LINE('',#601,#602);
#601 = CARTESIAN_POINT('',(10.,13.,6.95));
#602 = VECTOR('',#603,1.);
#603 = DIRECTION('',(-1.,0.,0.));
#604 = FACE_BOUND('',#605,.T.);
#605 = EDGE_LOOP('',(#606,#616,#624,#632));
#606 = ORIENTED_EDGE('',*,*,#607,.F.);
#607 = EDGE_CURVE('',#608,#610,#612,.T.);
#608 = VERTEX_POINT('',#609);
#609 = CARTESIAN_POINT('',(1.7,1.775,6.95));
#610 = VERTEX_POINT('',#611);
#611 = CARTESIAN_POINT('',(7.,1.775,6.95));
#612 = LINE('',#613,#614);
#613 = CARTESIAN_POINT('',(3.35,1.775,6.95));
#614 = VECTOR('',#615,1.);
#615 = DIRECTION('',(1.,0.,0.));
#616 = ORIENTED_EDGE('',*,*,#617,.T.);
#617 = EDGE_CURVE('',#608,#618,#620,.T.);
#618 = VERTEX_POINT('',#619);
#619 = CARTESIAN_POINT('',(2.45,2.525,6.95));
#620 = LINE('',#621,#622);
#621 = CARTESIAN_POINT('',(3.70625,3.78125,6.95));
#622 = VECTOR('',#623,1.);
#623 = DIRECTION('',(0.707106781187,0.707106781187,-0.));
#624 = ORIENTED_EDGE('',*,*,#625,.T.);
#625 = EDGE_CURVE('',#618,#626,#628,.T.);
#626 = VERTEX_POINT('',#627);
#627 = CARTESIAN_POINT('',(6.25,2.525,6.95));
#628 = LINE('',#629,#630);
#629 = CARTESIAN_POINT('',(3.725,2.525,6.95));
#630 = VECTOR('',#631,1.);
#631 = DIRECTION('',(1.,0.,0.));
#632 = ORIENTED_EDGE('',*,*,#633,.F.);
#633 = EDGE_CURVE('',#610,#626,#634,.T.);
#634 = LINE('',#635,#636);
#635 = CARTESIAN_POINT('',(5.31875,3.45625,6.95));
#636 = VECTOR('',#637,1.);
#637 = DIRECTION('',(-0.707106781187,0.707106781187,0.));
#638 = FACE_BOUND('',#639,.T.);
#639 = EDGE_LOOP('',(#640,#650,#658,#666));
#640 = ORIENTED_EDGE('',*,*,#641,.F.);
#641 = EDGE_CURVE('',#642,#644,#646,.T.);
#642 = VERTEX_POINT('',#643);
#643 = CARTESIAN_POINT('',(1.979117657202,6.555419200648,6.95));
#644 = VERTEX_POINT('',#645);
#645 = CARTESIAN_POINT('',(1.329117657202,2.205419200648,6.95));
#646 = LINE('',#647,#648);
#647 = CARTESIAN_POINT('',(2.008056013366,6.74908358421,6.95));
#648 = VECTOR('',#649,1.);
#649 = DIRECTION('',(-0.147784535061,-0.989019580795,0.));
#650 = ORIENTED_EDGE('',*,*,#651,.T.);
#651 = EDGE_CURVE('',#642,#652,#654,.T.);
#652 = VERTEX_POINT('',#653);
#653 = CARTESIAN_POINT('',(2.610043941502,5.702816113755,6.95));
#654 = LINE('',#655,#656);
#655 = CARTESIAN_POINT('',(2.526819059178,5.815282170951,6.95));
#656 = VECTOR('',#657,1.);
#657 = DIRECTION('',(0.59484300541,-0.803841899203,0.));
#658 = ORIENTED_EDGE('',*,*,#659,.T.);
#659 = EDGE_CURVE('',#652,#660,#662,.T.);
#660 = VERTEX_POINT('',#661);
#661 = CARTESIAN_POINT('',(2.181720744094,2.836345484949,6.95));
#662 = LINE('',#663,#664);
#663 = CARTESIAN_POINT('',(2.694401498315,6.267362840115,6.95));
#664 = VECTOR('',#665,1.);
#665 = DIRECTION('',(-0.147784535061,-0.989019580795,0.));
#666 = ORIENTED_EDGE('',*,*,#667,.F.);
#667 = EDGE_CURVE('',#644,#660,#668,.T.);
#668 = LINE('',#669,#670);
#669 = CARTESIAN_POINT('',(3.541857426625,3.842846630021,6.95));
#670 = VECTOR('',#671,1.);
#671 = DIRECTION('',(0.803841899203,0.59484300541,-0.));
#672 = FACE_BOUND('',#673,.T.);
#673 = EDGE_LOOP('',(#674));
#674 = ORIENTED_EDGE('',*,*,#675,.T.);
#675 = EDGE_CURVE('',#676,#676,#678,.T.);
#676 = VERTEX_POINT('',#677);
#677 = CARTESIAN_POINT('',(8.675,2.15,6.95));
#678 = CIRCLE('',#679,0.375);
#679 = AXIS2_PLACEMENT_3D('',#680,#681,#682);
#680 = CARTESIAN_POINT('',(8.3,2.15,6.95));
#681 = DIRECTION('',(0.,0.,-1.));
#682 = DIRECTION('',(1.,0.,0.));
#683 = FACE_BOUND('',#684,.T.);
#684 = EDGE_LOOP('',(#685,#695,#703,#711));
#685 = ORIENTED_EDGE('',*,*,#686,.F.);
#686 = EDGE_CURVE('',#687,#689,#691,.T.);
#687 = VERTEX_POINT('',#688);
#688 = CARTESIAN_POINT('',(8.020882342798,6.444580799352,6.95));
#689 = VERTEX_POINT('',#690);
#690 = CARTESIAN_POINT('',(7.168279255906,5.813654515051,6.95));
#691 = LINE('',#692,#693);
#692 = CARTESIAN_POINT('',(7.058142573375,5.732153369979,6.95));
#693 = VECTOR('',#694,1.);
#694 = DIRECTION('',(-0.803841899203,-0.59484300541,0.));
#695 = ORIENTED_EDGE('',*,*,#696,.T.);
#696 = EDGE_CURVE('',#687,#697,#699,.T.);
#697 = VERTEX_POINT('',#698);
#698 = CARTESIAN_POINT('',(7.370882342798,2.094580799352,6.95));
#699 = LINE('',#700,#701);
#700 = CARTESIAN_POINT('',(7.991943986634,6.25091641579,6.95));
#701 = VECTOR('',#702,1.);
#702 = DIRECTION('',(-0.147784535061,-0.989019580795,0.));
#703 = ORIENTED_EDGE('',*,*,#704,.T.);
#704 = EDGE_CURVE('',#697,#705,#707,.T.);
#705 = VERTEX_POINT('',#706);
#706 = CARTESIAN_POINT('',(6.739956058498,2.947183886245,6.95));
#707 = LINE('',#708,#709);
#708 = CARTESIAN_POINT('',(5.898180940822,4.084717829049,6.95));
#709 = VECTOR('',#710,1.);
#710 = DIRECTION('',(-0.59484300541,0.803841899203,0.));
#711 = ORIENTED_EDGE('',*,*,#712,.F.);
#712 = EDGE_CURVE('',#689,#705,#713,.T.);
#713 = LINE('',#714,#715);
#714 = CARTESIAN_POINT('',(7.194760100389,5.990872474288,6.95));
#715 = VECTOR('',#716,1.);
#716 = DIRECTION('',(-0.147784535061,-0.989019580795,0.));
#717 = FACE_BOUND('',#718,.T.);
#718 = EDGE_LOOP('',(#719,#727,#735,#743));
#719 = ORIENTED_EDGE('',*,*,#720,.F.);
#720 = EDGE_CURVE('',#721,#642,#723,.T.);
#721 = VERTEX_POINT('',#722);
#722 = CARTESIAN_POINT('',(2.629117657202,10.905419200648,6.95));
#723 = LINE('',#724,#725);
#724 = CARTESIAN_POINT('',(2.333056013366,8.92408358421,6.95));
#725 = VECTOR('',#726,1.);
#726 = DIRECTION('',(-0.147784535061,-0.989019580795,0.));
#727 = ORIENTED_EDGE('',*,*,#728,.T.);
#728 = EDGE_CURVE('',#721,#729,#731,.T.);
#729 = VERTEX_POINT('',#730);
#730 = CARTESIAN_POINT('',(3.260043941502,10.052816113755,6.95));
#731 = LINE('',#732,#733);
#732 = CARTESIAN_POINT('',(4.101819059178,8.915282170951,6.95));
#733 = VECTOR('',#734,1.);
#734 = DIRECTION('',(0.59484300541,-0.803841899203,0.));
#735 = ORIENTED_EDGE('',*,*,#736,.T.);
#736 = EDGE_CURVE('',#729,#737,#739,.T.);
#737 = VERTEX_POINT('',#738);
#738 = CARTESIAN_POINT('',(2.831720744094,7.186345484949,6.95));
#739 = LINE('',#740,#741);
#740 = CARTESIAN_POINT('',(3.019401498315,8.442362840115,6.95));
#741 = VECTOR('',#742,1.);
#742 = DIRECTION('',(-0.147784535061,-0.989019580795,0.));
#743 = ORIENTED_EDGE('',*,*,#744,.F.);
#744 = EDGE_CURVE('',#642,#737,#745,.T.);
#745 = LINE('',#746,#747);
#746 = CARTESIAN_POINT('',(2.941857426625,7.267846630021,6.95));
#747 = VECTOR('',#748,1.);
#748 = DIRECTION('',(0.803841899203,0.59484300541,-0.));
#749 = FACE_BOUND('',#750,.T.);
#750 = EDGE_LOOP('',(#751,#761,#769,#777,#785,#793));
#751 = ORIENTED_EDGE('',*,*,#752,.F.);
#752 = EDGE_CURVE('',#753,#755,#757,.T.);
#753 = VERTEX_POINT('',#754);
#754 = CARTESIAN_POINT('',(7.65,6.5,6.95));
#755 = VERTEX_POINT('',#756);
#756 = CARTESIAN_POINT('',(7.384621349186,6.858619798398,6.95));
#757 = LINE('',#758,#759);
#758 = CARTESIAN_POINT('',(7.181164383562,7.133561643836,6.95));
#759 = VECTOR('',#760,1.);
#760 = DIRECTION('',(-0.59484300541,0.803841899203,0.));
#761 = ORIENTED_EDGE('',*,*,#762,.T.);
#762 = EDGE_CURVE('',#753,#763,#765,.T.);
#763 = VERTEX_POINT('',#764);
#764 = CARTESIAN_POINT('',(7.165378650814,6.141380201602,6.95));
#765 = LINE('',#766,#767);
#766 = CARTESIAN_POINT('',(6.793835616438,5.866438356164,6.95));
#767 = VECTOR('',#768,1.);
#768 = DIRECTION('',(-0.803841899203,-0.59484300541,0.));
#769 = ORIENTED_EDGE('',*,*,#770,.T.);
#770 = EDGE_CURVE('',#763,#771,#773,.T.);
#771 = VERTEX_POINT('',#772);
#772 = CARTESIAN_POINT('',(2.615378650814,6.141380201602,6.95));
#773 = LINE('',#774,#775);
#774 = CARTESIAN_POINT('',(6.082689325407,6.141380201602,6.95));
#775 = VECTOR('',#776,1.);
#776 = DIRECTION('',(-1.,0.,0.));
#777 = ORIENTED_EDGE('',*,*,#778,.F.);
#778 = EDGE_CURVE('',#779,#771,#781,.T.);
#779 = VERTEX_POINT('',#780);
#780 = CARTESIAN_POINT('',(2.35,6.5,6.95));
#781 = LINE('',#782,#783);
#782 = CARTESIAN_POINT('',(2.818835616438,5.866438356164,6.95));
#783 = VECTOR('',#784,1.);
#784 = DIRECTION('',(0.59484300541,-0.803841899203,0.));
#785 = ORIENTED_EDGE('',*,*,#786,.T.);
#786 = EDGE_CURVE('',#779,#787,#789,.T.);
#787 = VERTEX_POINT('',#788);
#788 = CARTESIAN_POINT('',(2.834621349186,6.858619798398,6.95));
#789 = LINE('',#790,#791);
#790 = CARTESIAN_POINT('',(3.206164383562,7.133561643836,6.95));
#791 = VECTOR('',#792,1.);
#792 = DIRECTION('',(0.803841899203,0.59484300541,-0.));
#793 = ORIENTED_EDGE('',*,*,#794,.T.);
#794 = EDGE_CURVE('',#787,#755,#795,.T.);
#795 = LINE('',#796,#797);
#796 = CARTESIAN_POINT('',(3.917310674593,6.858619798398,6.95));
#797 = VECTOR('',#798,1.);
#798 = DIRECTION('',(1.,0.,0.));
#799 = FACE_BOUND('',#800,.T.);
#800 = EDGE_LOOP('',(#801,#809,#817,#825));
#801 = ORIENTED_EDGE('',*,*,#802,.T.);
#802 = EDGE_CURVE('',#803,#687,#805,.T.);
#803 = VERTEX_POINT('',#804);
#804 = CARTESIAN_POINT('',(8.670882342798,10.794580799352,6.95));
#805 = LINE('',#806,#807);
#806 = CARTESIAN_POINT('',(8.316943986634,8.42591641579,6.95));
#807 = VECTOR('',#808,1.);
#808 = DIRECTION('',(-0.147784535061,-0.989019580795,0.));
#809 = ORIENTED_EDGE('',*,*,#810,.T.);
#810 = EDGE_CURVE('',#687,#811,#813,.T.);
#811 = VERTEX_POINT('',#812);
#812 = CARTESIAN_POINT('',(7.389956058498,7.297183886245,6.95));
#813 = LINE('',#814,#815);
#814 = CARTESIAN_POINT('',(7.473180940822,7.184717829049,6.95));
#815 = VECTOR('',#816,1.);
#816 = DIRECTION('',(-0.59484300541,0.803841899203,0.));
#817 = ORIENTED_EDGE('',*,*,#818,.F.);
#818 = EDGE_CURVE('',#819,#811,#821,.T.);
#819 = VERTEX_POINT('',#820);
#820 = CARTESIAN_POINT('',(7.818279255906,10.163654515051,6.95));
#821 = LINE('',#822,#823);
#822 = CARTESIAN_POINT('',(7.519760100389,8.165872474288,6.95));
#823 = VECTOR('',#824,1.);
#824 = DIRECTION('',(-0.147784535061,-0.989019580795,0.));
#825 = ORIENTED_EDGE('',*,*,#826,.T.);
#826 = EDGE_CURVE('',#819,#803,#827,.T.);
#827 = LINE('',#828,#829);
#828 = CARTESIAN_POINT('',(6.031841029929,8.841690227829,6.95));
#829 = VECTOR('',#830,1.);
#830 = DIRECTION('',(0.803841899203,0.59484300541,-0.));
#831 = FACE_BOUND('',#832,.T.);
#832 = EDGE_LOOP('',(#833,#843,#851,#859));
#833 = ORIENTED_EDGE('',*,*,#834,.F.);
#834 = EDGE_CURVE('',#835,#837,#839,.T.);
#835 = VERTEX_POINT('',#836);
#836 = CARTESIAN_POINT('',(3.75,10.475,6.95));
#837 = VERTEX_POINT('',#838);
#838 = CARTESIAN_POINT('',(7.55,10.475,6.95));
#839 = LINE('',#840,#841);
#840 = CARTESIAN_POINT('',(4.375,10.475,6.95));
#841 = VECTOR('',#842,1.);
#842 = DIRECTION('',(1.,0.,0.));
#843 = ORIENTED_EDGE('',*,*,#844,.T.);
#844 = EDGE_CURVE('',#835,#845,#847,.T.);
#845 = VERTEX_POINT('',#846);
#846 = CARTESIAN_POINT('',(3.,11.225,6.95));
#847 = LINE('',#848,#849);
#848 = CARTESIAN_POINT('',(5.05625,9.16875,6.95));
#849 = VECTOR('',#850,1.);
#850 = DIRECTION('',(-0.707106781187,0.707106781187,0.));
#851 = ORIENTED_EDGE('',*,*,#852,.T.);
#852 = EDGE_CURVE('',#845,#853,#855,.T.);
#853 = VERTEX_POINT('',#854);
#854 = CARTESIAN_POINT('',(8.3,11.225,6.95));
#855 = LINE('',#856,#857);
#856 = CARTESIAN_POINT('',(4.,11.225,6.95));
#857 = VECTOR('',#858,1.);
#858 = DIRECTION('',(1.,0.,0.));
#859 = ORIENTED_EDGE('',*,*,#860,.F.);
#860 = EDGE_CURVE('',#837,#853,#861,.T.);
#861 = LINE('',#862,#863);
#862 = CARTESIAN_POINT('',(5.91875,8.84375,6.95));
#863 = VECTOR('',#864,1.);
#864 = DIRECTION('',(0.707106781187,0.707106781187,-0.));
#865 = PLANE('',#866);
#866 = AXIS2_PLACEMENT_3D('',#867,#868,#869);
#867 = CARTESIAN_POINT('',(5.,6.5,6.95));
#868 = DIRECTION('',(0.,0.,1.));
#869 = DIRECTION('',(1.,0.,0.));
#870 = ADVANCED_FACE('',(#871),#877,.F.);
#871 = FACE_BOUND('',#872,.F.);
#872 = EDGE_LOOP('',(#873,#874,#875,#876));
#873 = ORIENTED_EDGE('',*,*,#331,.T.);
#874 = ORIENTED_EDGE('',*,*,#599,.T.);
#875 = ORIENTED_EDGE('',*,*,#298,.F.);
#876 = ORIENTED_EDGE('',*,*,#282,.F.);
#877 = PLANE('',#878);
#878 = AXIS2_PLACEMENT_3D('',#879,#880,#881);
#879 = CARTESIAN_POINT('',(10.,13.,6.9));
#880 = DIRECTION('',(0.,-1.,0.));
#881 = DIRECTION('',(-1.,0.,0.));
#882 = ADVANCED_FACE('',(#883),#886,.F.);
#883 = FACE_BOUND('',#884,.T.);
#884 = EDGE_LOOP('',(#885));
#885 = ORIENTED_EDGE('',*,*,#354,.T.);
#886 = PLANE('',#887);
#887 = AXIS2_PLACEMENT_3D('',#888,#889,#890);
#888 = CARTESIAN_POINT('',(5.,6.5,-2.6));
#889 = DIRECTION('',(0.,0.,1.));
#890 = DIRECTION('',(1.,0.,0.));
#891 = ADVANCED_FACE('',(#892),#895,.F.);
#892 = FACE_BOUND('',#893,.T.);
#893 = EDGE_LOOP('',(#894));
#894 = ORIENTED_EDGE('',*,*,#379,.T.);
#895 = PLANE('',#896);
#896 = AXIS2_PLACEMENT_3D('',#897,#898,#899);
#897 = CARTESIAN_POINT('',(5.,6.5,-2.6));
#898 = DIRECTION('',(0.,0.,1.));
#899 = DIRECTION('',(1.,0.,0.));
#900 = ADVANCED_FACE('',(#901),#904,.F.);
#901 = FACE_BOUND('',#902,.T.);
#902 = EDGE_LOOP('',(#903));
#903 = ORIENTED_EDGE('',*,*,#404,.T.);
#904 = PLANE('',#905);
#905 = AXIS2_PLACEMENT_3D('',#906,#907,#908);
#906 = CARTESIAN_POINT('',(5.,6.5,-2.6));
#907 = DIRECTION('',(0.,0.,1.));
#908 = DIRECTION('',(1.,0.,0.));
#909 = ADVANCED_FACE('',(#910),#913,.F.);
#910 = FACE_BOUND('',#911,.T.);
#911 = EDGE_LOOP('',(#912));
#912 = ORIENTED_EDGE('',*,*,#429,.T.);
#913 = PLANE('',#914);
#914 = AXIS2_PLACEMENT_3D('',#915,#916,#917);
#915 = CARTESIAN_POINT('',(5.,6.5,-2.6));
#916 = DIRECTION('',(0.,0.,1.));
#917 = DIRECTION('',(1.,0.,0.));
#918 = ADVANCED_FACE('',(#919),#922,.F.);
#919 = FACE_BOUND('',#920,.T.);
#920 = EDGE_LOOP('',(#921));
#921 = ORIENTED_EDGE('',*,*,#454,.T.);
#922 = PLANE('',#923);
#923 = AXIS2_PLACEMENT_3D('',#924,#925,#926);
#924 = CARTESIAN_POINT('',(5.,6.5,-2.6));
#925 = DIRECTION('',(0.,0.,1.));
#926 = DIRECTION('',(1.,0.,0.));
#927 = ADVANCED_FACE('',(#928),#931,.F.);
#928 = FACE_BOUND('',#929,.T.);
#929 = EDGE_LOOP('',(#930));
#930 = ORIENTED_EDGE('',*,*,#479,.T.);
#931 = PLANE('',#932);
#932 = AXIS2_PLACEMENT_3D('',#933,#934,#935);
#933 = CARTESIAN_POINT('',(5.,6.5,-2.6));
#934 = DIRECTION('',(0.,0.,1.));
#935 = DIRECTION('',(1.,0.,0.));
#936 = ADVANCED_FACE('',(#937),#940,.F.);
#937 = FACE_BOUND('',#938,.T.);
#938 = EDGE_LOOP('',(#939));
#939 = ORIENTED_EDGE('',*,*,#504,.T.);
#940 = PLANE('',#941);
#941 = AXIS2_PLACEMENT_3D('',#942,#943,#944);
#942 = CARTESIAN_POINT('',(5.,6.5,-2.6));
#943 = DIRECTION('',(0.,0.,1.));
#944 = DIRECTION('',(1.,0.,0.));
#945 = ADVANCED_FACE('',(#946),#949,.F.);
#946 = FACE_BOUND('',#947,.T.);
#947 = EDGE_LOOP('',(#948));
#948 = ORIENTED_EDGE('',*,*,#529,.T.);
#949 = PLANE('',#950);
#950 = AXIS2_PLACEMENT_3D('',#951,#952,#953);
#951 = CARTESIAN_POINT('',(5.,6.5,-2.6));
#952 = DIRECTION('',(0.,0.,1.));
#953 = DIRECTION('',(1.,0.,0.));
#954 = ADVANCED_FACE('',(#955),#958,.F.);
#955 = FACE_BOUND('',#956,.T.);
#956 = EDGE_LOOP('',(#957));
#957 = ORIENTED_EDGE('',*,*,#554,.T.);
#958 = PLANE('',#959);
#959 = AXIS2_PLACEMENT_3D('',#960,#961,#962);
#960 = CARTESIAN_POINT('',(5.,6.5,-2.6));
#961 = DIRECTION('',(0.,0.,1.));
#962 = DIRECTION('',(1.,0.,0.));
#963 = ADVANCED_FACE('',(#964),#967,.F.);
#964 = FACE_BOUND('',#965,.T.);
#965 = EDGE_LOOP('',(#966));
#966 = ORIENTED_EDGE('',*,*,#579,.T.);
#967 = PLANE('',#968);
#968 = AXIS2_PLACEMENT_3D('',#969,#970,#971);
#969 = CARTESIAN_POINT('',(5.,6.5,-2.6));
#970 = DIRECTION('',(0.,0.,1.));
#971 = DIRECTION('',(1.,0.,0.));
#972 = ADVANCED_FACE('',(#973),#998,.F.);
#973 = FACE_BOUND('',#974,.F.);
#974 = EDGE_LOOP('',(#975,#976,#984,#992));
#975 = ORIENTED_EDGE('',*,*,#607,.F.);
#976 = ORIENTED_EDGE('',*,*,#977,.T.);
#977 = EDGE_CURVE('',#608,#978,#980,.T.);
#978 = VERTEX_POINT('',#979);
#979 = CARTESIAN_POINT('',(1.7,1.775,7.));
#980 = LINE('',#981,#982);
#981 = CARTESIAN_POINT('',(1.7,1.775,6.4));
#982 = VECTOR('',#983,1.);
#983 = DIRECTION('',(0.,0.,1.));
#984 = ORIENTED_EDGE('',*,*,#985,.T.);
#985 = EDGE_CURVE('',#978,#986,#988,.T.);
#986 = VERTEX_POINT('',#987);
#987 = CARTESIAN_POINT('',(7.,1.775,7.));
#988 = LINE('',#989,#990);
#989 = CARTESIAN_POINT('',(1.7,1.775,7.));
#990 = VECTOR('',#991,1.);
#991 = DIRECTION('',(1.,0.,0.));
#992 = ORIENTED_EDGE('',*,*,#993,.F.);
#993 = EDGE_CURVE('',#610,#986,#994,.T.);
#994 = LINE('',#995,#996);
#995 = CARTESIAN_POINT('',(7.,1.775,6.4));
#996 = VECTOR('',#997,1.);
#997 = DIRECTION('',(0.,0.,1.));
#998 = PLANE('',#999);
#999 = AXIS2_PLACEMENT_3D('',#1000,#1001,#1002);
#1000 = CARTESIAN_POINT('',(1.7,1.775,6.4));
#1001 = DIRECTION('',(0.,1.,0.));
#1002 = DIRECTION('',(1.,0.,0.));
#1003 = ADVANCED_FACE('',(#1004),#1022,.F.);
#1004 = FACE_BOUND('',#1005,.F.);
#1005 = EDGE_LOOP('',(#1006,#1007,#1008,#1016));
#1006 = ORIENTED_EDGE('',*,*,#633,.F.);
#1007 = ORIENTED_EDGE('',*,*,#993,.T.);
#1008 = ORIENTED_EDGE('',*,*,#1009,.T.);
#1009 = EDGE_CURVE('',#986,#1010,#1012,.T.);
#1010 = VERTEX_POINT('',#1011);
#1011 = CARTESIAN_POINT('',(6.25,2.525,7.));
#1012 = LINE('',#1013,#1014);
#1013 = CARTESIAN_POINT('',(7.,1.775,7.));
#1014 = VECTOR('',#1015,1.);
#1015 = DIRECTION('',(-0.707106781187,0.707106781187,0.));
#1016 = ORIENTED_EDGE('',*,*,#1017,.F.);
#1017 = EDGE_CURVE('',#626,#1010,#1018,.T.);
#1018 = LINE('',#1019,#1020);
#1019 = CARTESIAN_POINT('',(6.25,2.525,6.4));
#1020 = VECTOR('',#1021,1.);
#1021 = DIRECTION('',(0.,0.,1.));
#1022 = PLANE('',#1023);
#1023 = AXIS2_PLACEMENT_3D('',#1024,#1025,#1026);
#1024 = CARTESIAN_POINT('',(7.,1.775,6.4));
#1025 = DIRECTION('',(-0.707106781187,-0.707106781187,0.));
#1026 = DIRECTION('',(-0.707106781187,0.707106781187,0.));
#1027 = ADVANCED_FACE('',(#1028),#1046,.T.);
#1028 = FACE_BOUND('',#1029,.T.);
#1029 = EDGE_LOOP('',(#1030,#1031,#1039,#1045));
#1030 = ORIENTED_EDGE('',*,*,#625,.F.);
#1031 = ORIENTED_EDGE('',*,*,#1032,.T.);
#1032 = EDGE_CURVE('',#618,#1033,#1035,.T.);
#1033 = VERTEX_POINT('',#1034);
#1034 = CARTESIAN_POINT('',(2.45,2.525,7.));
#1035 = LINE('',#1036,#1037);
#1036 = CARTESIAN_POINT('',(2.45,2.525,6.4));
#1037 = VECTOR('',#1038,1.);
#1038 = DIRECTION('',(0.,0.,1.));
#1039 = ORIENTED_EDGE('',*,*,#1040,.T.);
#1040 = EDGE_CURVE('',#1033,#1010,#1041,.T.);
#1041 = LINE('',#1042,#1043);
#1042 = CARTESIAN_POINT('',(2.45,2.525,7.));
#1043 = VECTOR('',#1044,1.);
#1044 = DIRECTION('',(1.,0.,0.));
#1045 = ORIENTED_EDGE('',*,*,#1017,.F.);
#1046 = PLANE('',#1047);
#1047 = AXIS2_PLACEMENT_3D('',#1048,#1049,#1050);
#1048 = CARTESIAN_POINT('',(2.45,2.525,6.4));
#1049 = DIRECTION('',(0.,1.,0.));
#1050 = DIRECTION('',(1.,0.,0.));
#1051 = ADVANCED_FACE('',(#1052),#1063,.T.);
#1052 = FACE_BOUND('',#1053,.T.);
#1053 = EDGE_LOOP('',(#1054,#1055,#1056,#1062));
#1054 = ORIENTED_EDGE('',*,*,#617,.F.);
#1055 = ORIENTED_EDGE('',*,*,#977,.T.);
#1056 = ORIENTED_EDGE('',*,*,#1057,.T.);
#1057 = EDGE_CURVE('',#978,#1033,#1058,.T.);
#1058 = LINE('',#1059,#1060);
#1059 = CARTESIAN_POINT('',(1.7,1.775,7.));
#1060 = VECTOR('',#1061,1.);
#1061 = DIRECTION('',(0.707106781187,0.707106781187,0.));
#1062 = ORIENTED_EDGE('',*,*,#1032,.F.);
#1063 = PLANE('',#1064);
#1064 = AXIS2_PLACEMENT_3D('',#1065,#1066,#1067);
#1065 = CARTESIAN_POINT('',(1.7,1.775,6.4));
#1066 = DIRECTION('',(-0.707106781187,0.707106781187,0.));
#1067 = DIRECTION('',(0.707106781187,0.707106781187,0.));
#1068 = ADVANCED_FACE('',(#1069),#1094,.F.);
#1069 = FACE_BOUND('',#1070,.F.);
#1070 = EDGE_LOOP('',(#1071,#1072,#1080,#1088));
#1071 = ORIENTED_EDGE('',*,*,#641,.F.);
#1072 = ORIENTED_EDGE('',*,*,#1073,.T.);
#1073 = EDGE_CURVE('',#642,#1074,#1076,.T.);
#1074 = VERTEX_POINT('',#1075);
#1075 = CARTESIAN_POINT('',(1.979117657202,6.555419200648,7.));
#1076 = LINE('',#1077,#1078);
#1077 = CARTESIAN_POINT('',(1.979117657202,6.555419200648,6.4));
#1078 = VECTOR('',#1079,1.);
#1079 = DIRECTION('',(0.,0.,1.));
#1080 = ORIENTED_EDGE('',*,*,#1081,.T.);
#1081 = EDGE_CURVE('',#1074,#1082,#1084,.T.);
#1082 = VERTEX_POINT('',#1083);
#1083 = CARTESIAN_POINT('',(1.329117657202,2.205419200648,7.));
#1084 = LINE('',#1085,#1086);
#1085 = CARTESIAN_POINT('',(1.979117657202,6.555419200648,7.));
#1086 = VECTOR('',#1087,1.);
#1087 = DIRECTION('',(-0.147784535061,-0.989019580795,0.));
#1088 = ORIENTED_EDGE('',*,*,#1089,.F.);
#1089 = EDGE_CURVE('',#644,#1082,#1090,.T.);
#1090 = LINE('',#1091,#1092);
#1091 = CARTESIAN_POINT('',(1.329117657202,2.205419200648,6.4));
#1092 = VECTOR('',#1093,1.);
#1093 = DIRECTION('',(0.,0.,1.));
#1094 = PLANE('',#1095);
#1095 = AXIS2_PLACEMENT_3D('',#1096,#1097,#1098);
#1096 = CARTESIAN_POINT('',(1.979117657202,6.555419200648,6.4));
#1097 = DIRECTION('',(0.989019580795,-0.147784535061,0.));
#1098 = DIRECTION('',(-0.147784535061,-0.989019580795,0.));
#1099 = ADVANCED_FACE('',(#1100),#1118,.F.);
#1100 = FACE_BOUND('',#1101,.F.);
#1101 = EDGE_LOOP('',(#1102,#1103,#1104,#1112));
#1102 = ORIENTED_EDGE('',*,*,#667,.F.);
#1103 = ORIENTED_EDGE('',*,*,#1089,.T.);
#1104 = ORIENTED_EDGE('',*,*,#1105,.T.);
#1105 = EDGE_CURVE('',#1082,#1106,#1108,.T.);
#1106 = VERTEX_POINT('',#1107);
#1107 = CARTESIAN_POINT('',(2.181720744094,2.836345484949,7.));
#1108 = LINE('',#1109,#1110);
#1109 = CARTESIAN_POINT('',(1.329117657202,2.205419200648,7.));
#1110 = VECTOR('',#1111,1.);
#1111 = DIRECTION('',(0.803841899203,0.59484300541,0.));
#1112 = ORIENTED_EDGE('',*,*,#1113,.F.);
#1113 = EDGE_CURVE('',#660,#1106,#1114,.T.);
#1114 = LINE('',#1115,#1116);
#1115 = CARTESIAN_POINT('',(2.181720744094,2.836345484949,6.4));
#1116 = VECTOR('',#1117,1.);
#1117 = DIRECTION('',(0.,0.,1.));
#1118 = PLANE('',#1119);
#1119 = AXIS2_PLACEMENT_3D('',#1120,#1121,#1122);
#1120 = CARTESIAN_POINT('',(1.329117657202,2.205419200648,6.4));
#1121 = DIRECTION('',(-0.59484300541,0.803841899203,0.));
#1122 = DIRECTION('',(0.803841899203,0.59484300541,0.));
#1123 = ADVANCED_FACE('',(#1124),#1142,.T.);
#1124 = FACE_BOUND('',#1125,.T.);
#1125 = EDGE_LOOP('',(#1126,#1127,#1135,#1141));
#1126 = ORIENTED_EDGE('',*,*,#659,.F.);
#1127 = ORIENTED_EDGE('',*,*,#1128,.T.);
#1128 = EDGE_CURVE('',#652,#1129,#1131,.T.);
#1129 = VERTEX_POINT('',#1130);
#1130 = CARTESIAN_POINT('',(2.610043941502,5.702816113755,7.));
#1131 = LINE('',#1132,#1133);
#1132 = CARTESIAN_POINT('',(2.610043941502,5.702816113755,6.4));
#1133 = VECTOR('',#1134,1.);
#1134 = DIRECTION('',(0.,0.,1.));
#1135 = ORIENTED_EDGE('',*,*,#1136,.T.);
#1136 = EDGE_CURVE('',#1129,#1106,#1137,.T.);
#1137 = LINE('',#1138,#1139);
#1138 = CARTESIAN_POINT('',(2.610043941502,5.702816113755,7.));
#1139 = VECTOR('',#1140,1.);
#1140 = DIRECTION('',(-0.147784535061,-0.989019580795,0.));
#1141 = ORIENTED_EDGE('',*,*,#1113,.F.);
#1142 = PLANE('',#1143);
#1143 = AXIS2_PLACEMENT_3D('',#1144,#1145,#1146);
#1144 = CARTESIAN_POINT('',(2.610043941502,5.702816113755,6.4));
#1145 = DIRECTION('',(0.989019580795,-0.147784535061,0.));
#1146 = DIRECTION('',(-0.147784535061,-0.989019580795,0.));
#1147 = ADVANCED_FACE('',(#1148),#1159,.T.);
#1148 = FACE_BOUND('',#1149,.T.);
#1149 = EDGE_LOOP('',(#1150,#1151,#1152,#1158));
#1150 = ORIENTED_EDGE('',*,*,#651,.F.);
#1151 = ORIENTED_EDGE('',*,*,#1073,.T.);
#1152 = ORIENTED_EDGE('',*,*,#1153,.T.);
#1153 = EDGE_CURVE('',#1074,#1129,#1154,.T.);
#1154 = LINE('',#1155,#1156);
#1155 = CARTESIAN_POINT('',(1.979117657202,6.555419200648,7.));
#1156 = VECTOR('',#1157,1.);
#1157 = DIRECTION('',(0.59484300541,-0.803841899203,0.));
#1158 = ORIENTED_EDGE('',*,*,#1128,.F.);
#1159 = PLANE('',#1160);
#1160 = AXIS2_PLACEMENT_3D('',#1161,#1162,#1163);
#1161 = CARTESIAN_POINT('',(1.979117657202,6.555419200648,6.4));
#1162 = DIRECTION('',(0.803841899203,0.59484300541,0.));
#1163 = DIRECTION('',(0.59484300541,-0.803841899203,0.));
#1164 = ADVANCED_FACE('',(#1165),#1184,.T.);
#1165 = FACE_BOUND('',#1166,.F.);
#1166 = EDGE_LOOP('',(#1167,#1168,#1176,#1183));
#1167 = ORIENTED_EDGE('',*,*,#675,.T.);
#1168 = ORIENTED_EDGE('',*,*,#1169,.T.);
#1169 = EDGE_CURVE('',#676,#1170,#1172,.T.);
#1170 = VERTEX_POINT('',#1171);
#1171 = CARTESIAN_POINT('',(8.675,2.15,7.));
#1172 = LINE('',#1173,#1174);
#1173 = CARTESIAN_POINT('',(8.675,2.15,6.4));
#1174 = VECTOR('',#1175,1.);
#1175 = DIRECTION('',(0.,0.,1.));
#1176 = ORIENTED_EDGE('',*,*,#1177,.T.);
#1177 = EDGE_CURVE('',#1170,#1170,#1178,.T.);
#1178 = CIRCLE('',#1179,0.375);
#1179 = AXIS2_PLACEMENT_3D('',#1180,#1181,#1182);
#1180 = CARTESIAN_POINT('',(8.3,2.15,7.));
#1181 = DIRECTION('',(0.,0.,1.));
#1182 = DIRECTION('',(1.,0.,0.));
#1183 = ORIENTED_EDGE('',*,*,#1169,.F.);
#1184 = CYLINDRICAL_SURFACE('',#1185,0.375);
#1185 = AXIS2_PLACEMENT_3D('',#1186,#1187,#1188);
#1186 = CARTESIAN_POINT('',(8.3,2.15,6.4));
#1187 = DIRECTION('',(-0.,-0.,-1.));
#1188 = DIRECTION('',(1.,0.,0.));
#1189 = ADVANCED_FACE('',(#1190),#1215,.F.);
#1190 = FACE_BOUND('',#1191,.F.);
#1191 = EDGE_LOOP('',(#1192,#1193,#1201,#1209));
#1192 = ORIENTED_EDGE('',*,*,#686,.F.);
#1193 = ORIENTED_EDGE('',*,*,#1194,.T.);
#1194 = EDGE_CURVE('',#687,#1195,#1197,.T.);
#1195 = VERTEX_POINT('',#1196);
#1196 = CARTESIAN_POINT('',(8.020882342798,6.444580799352,7.));
#1197 = LINE('',#1198,#1199);
#1198 = CARTESIAN_POINT('',(8.020882342798,6.444580799352,6.4));
#1199 = VECTOR('',#1200,1.);
#1200 = DIRECTION('',(0.,0.,1.));
#1201 = ORIENTED_EDGE('',*,*,#1202,.T.);
#1202 = EDGE_CURVE('',#1195,#1203,#1205,.T.);
#1203 = VERTEX_POINT('',#1204);
#1204 = CARTESIAN_POINT('',(7.168279255906,5.813654515051,7.));
#1205 = LINE('',#1206,#1207);
#1206 = CARTESIAN_POINT('',(8.020882342798,6.444580799352,7.));
#1207 = VECTOR('',#1208,1.);
#1208 = DIRECTION('',(-0.803841899203,-0.59484300541,0.));
#1209 = ORIENTED_EDGE('',*,*,#1210,.F.);
#1210 = EDGE_CURVE('',#689,#1203,#1211,.T.);
#1211 = LINE('',#1212,#1213);
#1212 = CARTESIAN_POINT('',(7.168279255906,5.813654515051,6.4));
#1213 = VECTOR('',#1214,1.);
#1214 = DIRECTION('',(0.,0.,1.));
#1215 = PLANE('',#1216);
#1216 = AXIS2_PLACEMENT_3D('',#1217,#1218,#1219);
#1217 = CARTESIAN_POINT('',(8.020882342798,6.444580799352,6.4));
#1218 = DIRECTION('',(0.59484300541,-0.803841899203,0.));
#1219 = DIRECTION('',(-0.803841899203,-0.59484300541,0.));
#1220 = ADVANCED_FACE('',(#1221),#1239,.F.);
#1221 = FACE_BOUND('',#1222,.F.);
#1222 = EDGE_LOOP('',(#1223,#1224,#1225,#1233));
#1223 = ORIENTED_EDGE('',*,*,#712,.F.);
#1224 = ORIENTED_EDGE('',*,*,#1210,.T.);
#1225 = ORIENTED_EDGE('',*,*,#1226,.T.);
#1226 = EDGE_CURVE('',#1203,#1227,#1229,.T.);
#1227 = VERTEX_POINT('',#1228);
#1228 = CARTESIAN_POINT('',(6.739956058498,2.947183886245,7.));
#1229 = LINE('',#1230,#1231);
#1230 = CARTESIAN_POINT('',(7.168279255906,5.813654515051,7.));
#1231 = VECTOR('',#1232,1.);
#1232 = DIRECTION('',(-0.147784535061,-0.989019580795,0.));
#1233 = ORIENTED_EDGE('',*,*,#1234,.F.);
#1234 = EDGE_CURVE('',#705,#1227,#1235,.T.);
#1235 = LINE('',#1236,#1237);
#1236 = CARTESIAN_POINT('',(6.739956058498,2.947183886245,6.4));
#1237 = VECTOR('',#1238,1.);
#1238 = DIRECTION('',(0.,0.,1.));
#1239 = PLANE('',#1240);
#1240 = AXIS2_PLACEMENT_3D('',#1241,#1242,#1243);
#1241 = CARTESIAN_POINT('',(7.168279255906,5.813654515051,6.4));
#1242 = DIRECTION('',(0.989019580795,-0.147784535061,0.));
#1243 = DIRECTION('',(-0.147784535061,-0.989019580795,0.));
#1244 = ADVANCED_FACE('',(#1245),#1263,.T.);
#1245 = FACE_BOUND('',#1246,.T.);
#1246 = EDGE_LOOP('',(#1247,#1248,#1256,#1262));
#1247 = ORIENTED_EDGE('',*,*,#704,.F.);
#1248 = ORIENTED_EDGE('',*,*,#1249,.T.);
#1249 = EDGE_CURVE('',#697,#1250,#1252,.T.);
#1250 = VERTEX_POINT('',#1251);
#1251 = CARTESIAN_POINT('',(7.370882342798,2.094580799352,7.));
#1252 = LINE('',#1253,#1254);
#1253 = CARTESIAN_POINT('',(7.370882342798,2.094580799352,6.4));
#1254 = VECTOR('',#1255,1.);
#1255 = DIRECTION('',(0.,0.,1.));
#1256 = ORIENTED_EDGE('',*,*,#1257,.T.);
#1257 = EDGE_CURVE('',#1250,#1227,#1258,.T.);
#1258 = LINE('',#1259,#1260);
#1259 = CARTESIAN_POINT('',(7.370882342798,2.094580799352,7.));
#1260 = VECTOR('',#1261,1.);
#1261 = DIRECTION('',(-0.59484300541,0.803841899203,0.));
#1262 = ORIENTED_EDGE('',*,*,#1234,.F.);
#1263 = PLANE('',#1264);
#1264 = AXIS2_PLACEMENT_3D('',#1265,#1266,#1267);
#1265 = CARTESIAN_POINT('',(7.370882342798,2.094580799352,6.4));
#1266 = DIRECTION('',(-0.803841899203,-0.59484300541,0.));
#1267 = DIRECTION('',(-0.59484300541,0.803841899203,0.));
#1268 = ADVANCED_FACE('',(#1269),#1280,.T.);
#1269 = FACE_BOUND('',#1270,.T.);
#1270 = EDGE_LOOP('',(#1271,#1272,#1273,#1279));
#1271 = ORIENTED_EDGE('',*,*,#696,.F.);
#1272 = ORIENTED_EDGE('',*,*,#1194,.T.);
#1273 = ORIENTED_EDGE('',*,*,#1274,.T.);
#1274 = EDGE_CURVE('',#1195,#1250,#1275,.T.);
#1275 = LINE('',#1276,#1277);
#1276 = CARTESIAN_POINT('',(8.020882342798,6.444580799352,7.));
#1277 = VECTOR('',#1278,1.);
#1278 = DIRECTION('',(-0.147784535061,-0.989019580795,0.));
#1279 = ORIENTED_EDGE('',*,*,#1249,.F.);
#1280 = PLANE('',#1281);
#1281 = AXIS2_PLACEMENT_3D('',#1282,#1283,#1284);
#1282 = CARTESIAN_POINT('',(8.020882342798,6.444580799352,6.4));
#1283 = DIRECTION('',(0.989019580795,-0.147784535061,0.));
#1284 = DIRECTION('',(-0.147784535061,-0.989019580795,0.));
#1285 = ADVANCED_FACE('',(#1286),#1304,.F.);
#1286 = FACE_BOUND('',#1287,.F.);
#1287 = EDGE_LOOP('',(#1288,#1289,#1297,#1303));
#1288 = ORIENTED_EDGE('',*,*,#720,.F.);
#1289 = ORIENTED_EDGE('',*,*,#1290,.T.);
#1290 = EDGE_CURVE('',#721,#1291,#1293,.T.);
#1291 = VERTEX_POINT('',#1292);
#1292 = CARTESIAN_POINT('',(2.629117657202,10.905419200648,7.));
#1293 = LINE('',#1294,#1295);
#1294 = CARTESIAN_POINT('',(2.629117657202,10.905419200648,6.4));
#1295 = VECTOR('',#1296,1.);
#1296 = DIRECTION('',(0.,0.,1.));
#1297 = ORIENTED_EDGE('',*,*,#1298,.T.);
#1298 = EDGE_CURVE('',#1291,#1074,#1299,.T.);
#1299 = LINE('',#1300,#1301);
#1300 = CARTESIAN_POINT('',(2.629117657202,10.905419200648,7.));
#1301 = VECTOR('',#1302,1.);
#1302 = DIRECTION('',(-0.147784535061,-0.989019580795,0.));
#1303 = ORIENTED_EDGE('',*,*,#1073,.F.);
#1304 = PLANE('',#1305);
#1305 = AXIS2_PLACEMENT_3D('',#1306,#1307,#1308);
#1306 = CARTESIAN_POINT('',(2.629117657202,10.905419200648,6.4));
#1307 = DIRECTION('',(0.989019580795,-0.147784535061,0.));
#1308 = DIRECTION('',(-0.147784535061,-0.989019580795,0.));
#1309 = ADVANCED_FACE('',(#1310),#1328,.F.);
#1310 = FACE_BOUND('',#1311,.F.);
#1311 = EDGE_LOOP('',(#1312,#1313,#1314,#1322));
#1312 = ORIENTED_EDGE('',*,*,#744,.F.);
#1313 = ORIENTED_EDGE('',*,*,#1073,.T.);
#1314 = ORIENTED_EDGE('',*,*,#1315,.T.);
#1315 = EDGE_CURVE('',#1074,#1316,#1318,.T.);
#1316 = VERTEX_POINT('',#1317);
#1317 = CARTESIAN_POINT('',(2.831720744094,7.186345484949,7.));
#1318 = LINE('',#1319,#1320);
#1319 = CARTESIAN_POINT('',(1.979117657202,6.555419200648,7.));
#1320 = VECTOR('',#1321,1.);
#1321 = DIRECTION('',(0.803841899203,0.59484300541,0.));
#1322 = ORIENTED_EDGE('',*,*,#1323,.F.);
#1323 = EDGE_CURVE('',#737,#1316,#1324,.T.);
#1324 = LINE('',#1325,#1326);
#1325 = CARTESIAN_POINT('',(2.831720744094,7.186345484949,6.4));
#1326 = VECTOR('',#1327,1.);
#1327 = DIRECTION('',(0.,0.,1.));
#1328 = PLANE('',#1329);
#1329 = AXIS2_PLACEMENT_3D('',#1330,#1331,#1332);
#1330 = CARTESIAN_POINT('',(1.979117657202,6.555419200648,6.4));
#1331 = DIRECTION('',(-0.59484300541,0.803841899203,0.));
#1332 = DIRECTION('',(0.803841899203,0.59484300541,0.));
#1333 = ADVANCED_FACE('',(#1334),#1352,.T.);
#1334 = FACE_BOUND('',#1335,.T.);
#1335 = EDGE_LOOP('',(#1336,#1337,#1345,#1351));
#1336 = ORIENTED_EDGE('',*,*,#736,.F.);
#1337 = ORIENTED_EDGE('',*,*,#1338,.T.);
#1338 = EDGE_CURVE('',#729,#1339,#1341,.T.);
#1339 = VERTEX_POINT('',#1340);
#1340 = CARTESIAN_POINT('',(3.260043941502,10.052816113755,7.));
#1341 = LINE('',#1342,#1343);
#1342 = CARTESIAN_POINT('',(3.260043941502,10.052816113755,6.4));
#1343 = VECTOR('',#1344,1.);
#1344 = DIRECTION('',(0.,0.,1.));
#1345 = ORIENTED_EDGE('',*,*,#1346,.T.);
#1346 = EDGE_CURVE('',#1339,#1316,#1347,.T.);
#1347 = LINE('',#1348,#1349);
#1348 = CARTESIAN_POINT('',(3.260043941502,10.052816113755,7.));
#1349 = VECTOR('',#1350,1.);
#1350 = DIRECTION('',(-0.147784535061,-0.989019580795,0.));
#1351 = ORIENTED_EDGE('',*,*,#1323,.F.);
#1352 = PLANE('',#1353);
#1353 = AXIS2_PLACEMENT_3D('',#1354,#1355,#1356);
#1354 = CARTESIAN_POINT('',(3.260043941502,10.052816113755,6.4));
#1355 = DIRECTION('',(0.989019580795,-0.147784535061,0.));
#1356 = DIRECTION('',(-0.147784535061,-0.989019580795,0.));
#1357 = ADVANCED_FACE('',(#1358),#1369,.T.);
#1358 = FACE_BOUND('',#1359,.T.);
#1359 = EDGE_LOOP('',(#1360,#1361,#1362,#1368));
#1360 = ORIENTED_EDGE('',*,*,#728,.F.);
#1361 = ORIENTED_EDGE('',*,*,#1290,.T.);
#1362 = ORIENTED_EDGE('',*,*,#1363,.T.);
#1363 = EDGE_CURVE('',#1291,#1339,#1364,.T.);
#1364 = LINE('',#1365,#1366);
#1365 = CARTESIAN_POINT('',(2.629117657202,10.905419200648,7.));
#1366 = VECTOR('',#1367,1.);
#1367 = DIRECTION('',(0.59484300541,-0.803841899203,0.));
#1368 = ORIENTED_EDGE('',*,*,#1338,.F.);
#1369 = PLANE('',#1370);
#1370 = AXIS2_PLACEMENT_3D('',#1371,#1372,#1373);
#1371 = CARTESIAN_POINT('',(2.629117657202,10.905419200648,6.4));
#1372 = DIRECTION('',(0.803841899203,0.59484300541,0.));
#1373 = DIRECTION('',(0.59484300541,-0.803841899203,0.));
#1374 = ADVANCED_FACE('',(#1375),#1400,.F.);
#1375 = FACE_BOUND('',#1376,.F.);
#1376 = EDGE_LOOP('',(#1377,#1378,#1386,#1394));
#1377 = ORIENTED_EDGE('',*,*,#752,.F.);
#1378 = ORIENTED_EDGE('',*,*,#1379,.T.);
#1379 = EDGE_CURVE('',#753,#1380,#1382,.T.);
#1380 = VERTEX_POINT('',#1381);
#1381 = CARTESIAN_POINT('',(7.65,6.5,7.));
#1382 = LINE('',#1383,#1384);
#1383 = CARTESIAN_POINT('',(7.65,6.5,6.4));
#1384 = VECTOR('',#1385,1.);
#1385 = DIRECTION('',(0.,0.,1.));
#1386 = ORIENTED_EDGE('',*,*,#1387,.T.);
#1387 = EDGE_CURVE('',#1380,#1388,#1390,.T.);
#1388 = VERTEX_POINT('',#1389);
#1389 = CARTESIAN_POINT('',(7.384621349186,6.858619798398,7.));
#1390 = LINE('',#1391,#1392);
#1391 = CARTESIAN_POINT('',(7.65,6.5,7.));
#1392 = VECTOR('',#1393,1.);
#1393 = DIRECTION('',(-0.59484300541,0.803841899203,0.));
#1394 = ORIENTED_EDGE('',*,*,#1395,.F.);
#1395 = EDGE_CURVE('',#755,#1388,#1396,.T.);
#1396 = LINE('',#1397,#1398);
#1397 = CARTESIAN_POINT('',(7.384621349186,6.858619798398,6.4));
#1398 = VECTOR('',#1399,1.);
#1399 = DIRECTION('',(0.,0.,1.));
#1400 = PLANE('',#1401);
#1401 = AXIS2_PLACEMENT_3D('',#1402,#1403,#1404);
#1402 = CARTESIAN_POINT('',(7.65,6.5,6.4));
#1403 = DIRECTION('',(-0.803841899203,-0.59484300541,0.));
#1404 = DIRECTION('',(-0.59484300541,0.803841899203,0.));
#1405 = ADVANCED_FACE('',(#1406),#1424,.T.);
#1406 = FACE_BOUND('',#1407,.T.);
#1407 = EDGE_LOOP('',(#1408,#1409,#1417,#1423));
#1408 = ORIENTED_EDGE('',*,*,#794,.F.);
#1409 = ORIENTED_EDGE('',*,*,#1410,.T.);
#1410 = EDGE_CURVE('',#787,#1411,#1413,.T.);
#1411 = VERTEX_POINT('',#1412);
#1412 = CARTESIAN_POINT('',(2.834621349186,6.858619798398,7.));
#1413 = LINE('',#1414,#1415);
#1414 = CARTESIAN_POINT('',(2.834621349186,6.858619798398,6.4));
#1415 = VECTOR('',#1416,1.);
#1416 = DIRECTION('',(0.,0.,1.));
#1417 = ORIENTED_EDGE('',*,*,#1418,.T.);
#1418 = EDGE_CURVE('',#1411,#1388,#1419,.T.);
#1419 = LINE('',#1420,#1421);
#1420 = CARTESIAN_POINT('',(2.834621349186,6.858619798398,7.));
#1421 = VECTOR('',#1422,1.);
#1422 = DIRECTION('',(1.,0.,0.));
#1423 = ORIENTED_EDGE('',*,*,#1395,.F.);
#1424 = PLANE('',#1425);
#1425 = AXIS2_PLACEMENT_3D('',#1426,#1427,#1428);
#1426 = CARTESIAN_POINT('',(2.834621349186,6.858619798398,6.4));
#1427 = DIRECTION('',(0.,1.,0.));
#1428 = DIRECTION('',(1.,0.,0.));
#1429 = ADVANCED_FACE('',(#1430),#1448,.T.);
#1430 = FACE_BOUND('',#1431,.T.);
#1431 = EDGE_LOOP('',(#1432,#1433,#1441,#1447));
#1432 = ORIENTED_EDGE('',*,*,#786,.F.);
#1433 = ORIENTED_EDGE('',*,*,#1434,.T.);
#1434 = EDGE_CURVE('',#779,#1435,#1437,.T.);
#1435 = VERTEX_POINT('',#1436);
#1436 = CARTESIAN_POINT('',(2.35,6.5,7.));
#1437 = LINE('',#1438,#1439);
#1438 = CARTESIAN_POINT('',(2.35,6.5,6.4));
#1439 = VECTOR('',#1440,1.);
#1440 = DIRECTION('',(0.,0.,1.));
#1441 = ORIENTED_EDGE('',*,*,#1442,.T.);
#1442 = EDGE_CURVE('',#1435,#1411,#1443,.T.);
#1443 = LINE('',#1444,#1445);
#1444 = CARTESIAN_POINT('',(2.35,6.5,7.));
#1445 = VECTOR('',#1446,1.);
#1446 = DIRECTION('',(0.803841899203,0.59484300541,0.));
#1447 = ORIENTED_EDGE('',*,*,#1410,.F.);
#1448 = PLANE('',#1449);
#1449 = AXIS2_PLACEMENT_3D('',#1450,#1451,#1452);
#1450 = CARTESIAN_POINT('',(2.35,6.5,6.4));
#1451 = DIRECTION('',(-0.59484300541,0.803841899203,0.));
#1452 = DIRECTION('',(0.803841899203,0.59484300541,0.));
#1453 = ADVANCED_FACE('',(#1454),#1472,.F.);
#1454 = FACE_BOUND('',#1455,.F.);
#1455 = EDGE_LOOP('',(#1456,#1457,#1458,#1466));
#1456 = ORIENTED_EDGE('',*,*,#778,.F.);
#1457 = ORIENTED_EDGE('',*,*,#1434,.T.);
#1458 = ORIENTED_EDGE('',*,*,#1459,.T.);
#1459 = EDGE_CURVE('',#1435,#1460,#1462,.T.);
#1460 = VERTEX_POINT('',#1461);
#1461 = CARTESIAN_POINT('',(2.615378650814,6.141380201602,7.));
#1462 = LINE('',#1463,#1464);
#1463 = CARTESIAN_POINT('',(2.35,6.5,7.));
#1464 = VECTOR('',#1465,1.);
#1465 = DIRECTION('',(0.59484300541,-0.803841899203,0.));
#1466 = ORIENTED_EDGE('',*,*,#1467,.F.);
#1467 = EDGE_CURVE('',#771,#1460,#1468,.T.);
#1468 = LINE('',#1469,#1470);
#1469 = CARTESIAN_POINT('',(2.615378650814,6.141380201602,6.4));
#1470 = VECTOR('',#1471,1.);
#1471 = DIRECTION('',(0.,0.,1.));
#1472 = PLANE('',#1473);
#1473 = AXIS2_PLACEMENT_3D('',#1474,#1475,#1476);
#1474 = CARTESIAN_POINT('',(2.35,6.5,6.4));
#1475 = DIRECTION('',(0.803841899203,0.59484300541,0.));
#1476 = DIRECTION('',(0.59484300541,-0.803841899203,0.));
#1477 = ADVANCED_FACE('',(#1478),#1496,.T.);
#1478 = FACE_BOUND('',#1479,.T.);
#1479 = EDGE_LOOP('',(#1480,#1481,#1489,#1495));
#1480 = ORIENTED_EDGE('',*,*,#770,.F.);
#1481 = ORIENTED_EDGE('',*,*,#1482,.T.);
#1482 = EDGE_CURVE('',#763,#1483,#1485,.T.);
#1483 = VERTEX_POINT('',#1484);
#1484 = CARTESIAN_POINT('',(7.165378650814,6.141380201602,7.));
#1485 = LINE('',#1486,#1487);
#1486 = CARTESIAN_POINT('',(7.165378650814,6.141380201602,6.4));
#1487 = VECTOR('',#1488,1.);
#1488 = DIRECTION('',(0.,0.,1.));
#1489 = ORIENTED_EDGE('',*,*,#1490,.T.);
#1490 = EDGE_CURVE('',#1483,#1460,#1491,.T.);
#1491 = LINE('',#1492,#1493);
#1492 = CARTESIAN_POINT('',(7.165378650814,6.141380201602,7.));
#1493 = VECTOR('',#1494,1.);
#1494 = DIRECTION('',(-1.,0.,0.));
#1495 = ORIENTED_EDGE('',*,*,#1467,.F.);
#1496 = PLANE('',#1497);
#1497 = AXIS2_PLACEMENT_3D('',#1498,#1499,#1500);
#1498 = CARTESIAN_POINT('',(7.165378650814,6.141380201602,6.4));
#1499 = DIRECTION('',(0.,-1.,0.));
#1500 = DIRECTION('',(-1.,0.,0.));
#1501 = ADVANCED_FACE('',(#1502),#1513,.T.);
#1502 = FACE_BOUND('',#1503,.T.);
#1503 = EDGE_LOOP('',(#1504,#1505,#1506,#1512));
#1504 = ORIENTED_EDGE('',*,*,#762,.F.);
#1505 = ORIENTED_EDGE('',*,*,#1379,.T.);
#1506 = ORIENTED_EDGE('',*,*,#1507,.T.);
#1507 = EDGE_CURVE('',#1380,#1483,#1508,.T.);
#1508 = LINE('',#1509,#1510);
#1509 = CARTESIAN_POINT('',(7.65,6.5,7.));
#1510 = VECTOR('',#1511,1.);
#1511 = DIRECTION('',(-0.803841899203,-0.59484300541,0.));
#1512 = ORIENTED_EDGE('',*,*,#1482,.F.);
#1513 = PLANE('',#1514);
#1514 = AXIS2_PLACEMENT_3D('',#1515,#1516,#1517);
#1515 = CARTESIAN_POINT('',(7.65,6.5,6.4));
#1516 = DIRECTION('',(0.59484300541,-0.803841899203,0.));
#1517 = DIRECTION('',(-0.803841899203,-0.59484300541,0.));
#1518 = ADVANCED_FACE('',(#1519),#1537,.T.);
#1519 = FACE_BOUND('',#1520,.T.);
#1520 = EDGE_LOOP('',(#1521,#1522,#1530,#1536));
#1521 = ORIENTED_EDGE('',*,*,#802,.F.);
#1522 = ORIENTED_EDGE('',*,*,#1523,.T.);
#1523 = EDGE_CURVE('',#803,#1524,#1526,.T.);
#1524 = VERTEX_POINT('',#1525);
#1525 = CARTESIAN_POINT('',(8.670882342798,10.794580799352,7.));
#1526 = LINE('',#1527,#1528);
#1527 = CARTESIAN_POINT('',(8.670882342798,10.794580799352,6.4));
#1528 = VECTOR('',#1529,1.);
#1529 = DIRECTION('',(0.,0.,1.));
#1530 = ORIENTED_EDGE('',*,*,#1531,.T.);
#1531 = EDGE_CURVE('',#1524,#1195,#1532,.T.);
#1532 = LINE('',#1533,#1534);
#1533 = CARTESIAN_POINT('',(8.670882342798,10.794580799352,7.));
#1534 = VECTOR('',#1535,1.);
#1535 = DIRECTION('',(-0.147784535061,-0.989019580795,0.));
#1536 = ORIENTED_EDGE('',*,*,#1194,.F.);
#1537 = PLANE('',#1538);
#1538 = AXIS2_PLACEMENT_3D('',#1539,#1540,#1541);
#1539 = CARTESIAN_POINT('',(8.670882342798,10.794580799352,6.4));
#1540 = DIRECTION('',(0.989019580795,-0.147784535061,0.));
#1541 = DIRECTION('',(-0.147784535061,-0.989019580795,0.));
#1542 = ADVANCED_FACE('',(#1543),#1561,.T.);
#1543 = FACE_BOUND('',#1544,.T.);
#1544 = EDGE_LOOP('',(#1545,#1546,#1554,#1560));
#1545 = ORIENTED_EDGE('',*,*,#826,.F.);
#1546 = ORIENTED_EDGE('',*,*,#1547,.T.);
#1547 = EDGE_CURVE('',#819,#1548,#1550,.T.);
#1548 = VERTEX_POINT('',#1549);
#1549 = CARTESIAN_POINT('',(7.818279255906,10.163654515051,7.));
#1550 = LINE('',#1551,#1552);
#1551 = CARTESIAN_POINT('',(7.818279255906,10.163654515051,6.4));
#1552 = VECTOR('',#1553,1.);
#1553 = DIRECTION('',(0.,0.,1.));
#1554 = ORIENTED_EDGE('',*,*,#1555,.T.);
#1555 = EDGE_CURVE('',#1548,#1524,#1556,.T.);
#1556 = LINE('',#1557,#1558);
#1557 = CARTESIAN_POINT('',(7.818279255906,10.163654515051,7.));
#1558 = VECTOR('',#1559,1.);
#1559 = DIRECTION('',(0.803841899203,0.59484300541,0.));
#1560 = ORIENTED_EDGE('',*,*,#1523,.F.);
#1561 = PLANE('',#1562);
#1562 = AXIS2_PLACEMENT_3D('',#1563,#1564,#1565);
#1563 = CARTESIAN_POINT('',(7.818279255906,10.163654515051,6.4));
#1564 = DIRECTION('',(-0.59484300541,0.803841899203,0.));
#1565 = DIRECTION('',(0.803841899203,0.59484300541,0.));
#1566 = ADVANCED_FACE('',(#1567),#1585,.F.);
#1567 = FACE_BOUND('',#1568,.F.);
#1568 = EDGE_LOOP('',(#1569,#1570,#1571,#1579));
#1569 = ORIENTED_EDGE('',*,*,#818,.F.);
#1570 = ORIENTED_EDGE('',*,*,#1547,.T.);
#1571 = ORIENTED_EDGE('',*,*,#1572,.T.);
#1572 = EDGE_CURVE('',#1548,#1573,#1575,.T.);
#1573 = VERTEX_POINT('',#1574);
#1574 = CARTESIAN_POINT('',(7.389956058498,7.297183886245,7.));
#1575 = LINE('',#1576,#1577);
#1576 = CARTESIAN_POINT('',(7.818279255906,10.163654515051,7.));
#1577 = VECTOR('',#1578,1.);
#1578 = DIRECTION('',(-0.147784535061,-0.989019580795,0.));
#1579 = ORIENTED_EDGE('',*,*,#1580,.F.);
#1580 = EDGE_CURVE('',#811,#1573,#1581,.T.);
#1581 = LINE('',#1582,#1583);
#1582 = CARTESIAN_POINT('',(7.389956058498,7.297183886245,6.4));
#1583 = VECTOR('',#1584,1.);
#1584 = DIRECTION('',(0.,0.,1.));
#1585 = PLANE('',#1586);
#1586 = AXIS2_PLACEMENT_3D('',#1587,#1588,#1589);
#1587 = CARTESIAN_POINT('',(7.818279255906,10.163654515051,6.4));
#1588 = DIRECTION('',(0.989019580795,-0.147784535061,0.));
#1589 = DIRECTION('',(-0.147784535061,-0.989019580795,0.));
#1590 = ADVANCED_FACE('',(#1591),#1602,.T.);
#1591 = FACE_BOUND('',#1592,.T.);
#1592 = EDGE_LOOP('',(#1593,#1594,#1595,#1601));
#1593 = ORIENTED_EDGE('',*,*,#810,.F.);
#1594 = ORIENTED_EDGE('',*,*,#1194,.T.);
#1595 = ORIENTED_EDGE('',*,*,#1596,.T.);
#1596 = EDGE_CURVE('',#1195,#1573,#1597,.T.);
#1597 = LINE('',#1598,#1599);
#1598 = CARTESIAN_POINT('',(8.020882342798,6.444580799352,7.));
#1599 = VECTOR('',#1600,1.);
#1600 = DIRECTION('',(-0.59484300541,0.803841899203,0.));
#1601 = ORIENTED_EDGE('',*,*,#1580,.F.);
#1602 = PLANE('',#1603);
#1603 = AXIS2_PLACEMENT_3D('',#1604,#1605,#1606);
#1604 = CARTESIAN_POINT('',(8.020882342798,6.444580799352,6.4));
#1605 = DIRECTION('',(-0.803841899203,-0.59484300541,0.));
#1606 = DIRECTION('',(-0.59484300541,0.803841899203,0.));
#1607 = ADVANCED_FACE('',(#1608),#1633,.F.);
#1608 = FACE_BOUND('',#1609,.F.);
#1609 = EDGE_LOOP('',(#1610,#1611,#1619,#1627));
#1610 = ORIENTED_EDGE('',*,*,#834,.F.);
#1611 = ORIENTED_EDGE('',*,*,#1612,.T.);
#1612 = EDGE_CURVE('',#835,#1613,#1615,.T.);
#1613 = VERTEX_POINT('',#1614);
#1614 = CARTESIAN_POINT('',(3.75,10.475,7.));
#1615 = LINE('',#1616,#1617);
#1616 = CARTESIAN_POINT('',(3.75,10.475,6.4));
#1617 = VECTOR('',#1618,1.);
#1618 = DIRECTION('',(0.,0.,1.));
#1619 = ORIENTED_EDGE('',*,*,#1620,.T.);
#1620 = EDGE_CURVE('',#1613,#1621,#1623,.T.);
#1621 = VERTEX_POINT('',#1622);
#1622 = CARTESIAN_POINT('',(7.55,10.475,7.));
#1623 = LINE('',#1624,#1625);
#1624 = CARTESIAN_POINT('',(3.75,10.475,7.));
#1625 = VECTOR('',#1626,1.);
#1626 = DIRECTION('',(1.,0.,0.));
#1627 = ORIENTED_EDGE('',*,*,#1628,.F.);
#1628 = EDGE_CURVE('',#837,#1621,#1629,.T.);
#1629 = LINE('',#1630,#1631);
#1630 = CARTESIAN_POINT('',(7.55,10.475,6.4));
#1631 = VECTOR('',#1632,1.);
#1632 = DIRECTION('',(0.,0.,1.));
#1633 = PLANE('',#1634);
#1634 = AXIS2_PLACEMENT_3D('',#1635,#1636,#1637);
#1635 = CARTESIAN_POINT('',(3.75,10.475,6.4));
#1636 = DIRECTION('',(0.,1.,0.));
#1637 = DIRECTION('',(1.,0.,0.));
#1638 = ADVANCED_FACE('',(#1639),#1657,.F.);
#1639 = FACE_BOUND('',#1640,.F.);
#1640 = EDGE_LOOP('',(#1641,#1642,#1643,#1651));
#1641 = ORIENTED_EDGE('',*,*,#860,.F.);
#1642 = ORIENTED_EDGE('',*,*,#1628,.T.);
#1643 = ORIENTED_EDGE('',*,*,#1644,.T.);
#1644 = EDGE_CURVE('',#1621,#1645,#1647,.T.);
#1645 = VERTEX_POINT('',#1646);
#1646 = CARTESIAN_POINT('',(8.3,11.225,7.));
#1647 = LINE('',#1648,#1649);
#1648 = CARTESIAN_POINT('',(7.55,10.475,7.));
#1649 = VECTOR('',#1650,1.);
#1650 = DIRECTION('',(0.707106781187,0.707106781187,0.));
#1651 = ORIENTED_EDGE('',*,*,#1652,.F.);
#1652 = EDGE_CURVE('',#853,#1645,#1653,.T.);
#1653 = LINE('',#1654,#1655);
#1654 = CARTESIAN_POINT('',(8.3,11.225,6.4));
#1655 = VECTOR('',#1656,1.);
#1656 = DIRECTION('',(0.,0.,1.));
#1657 = PLANE('',#1658);
#1658 = AXIS2_PLACEMENT_3D('',#1659,#1660,#1661);
#1659 = CARTESIAN_POINT('',(7.55,10.475,6.4));
#1660 = DIRECTION('',(-0.707106781187,0.707106781187,0.));
#1661 = DIRECTION('',(0.707106781187,0.707106781187,0.));
#1662 = ADVANCED_FACE('',(#1663),#1681,.T.);
#1663 = FACE_BOUND('',#1664,.T.);
#1664 = EDGE_LOOP('',(#1665,#1666,#1674,#1680));
#1665 = ORIENTED_EDGE('',*,*,#852,.F.);
#1666 = ORIENTED_EDGE('',*,*,#1667,.T.);
#1667 = EDGE_CURVE('',#845,#1668,#1670,.T.);
#1668 = VERTEX_POINT('',#1669);
#1669 = CARTESIAN_POINT('',(3.,11.225,7.));
#1670 = LINE('',#1671,#1672);
#1671 = CARTESIAN_POINT('',(3.,11.225,6.4));
#1672 = VECTOR('',#1673,1.);
#1673 = DIRECTION('',(0.,0.,1.));
#1674 = ORIENTED_EDGE('',*,*,#1675,.T.);
#1675 = EDGE_CURVE('',#1668,#1645,#1676,.T.);
#1676 = LINE('',#1677,#1678);
#1677 = CARTESIAN_POINT('',(3.,11.225,7.));
#1678 = VECTOR('',#1679,1.);
#1679 = DIRECTION('',(1.,0.,0.));
#1680 = ORIENTED_EDGE('',*,*,#1652,.F.);
#1681 = PLANE('',#1682);
#1682 = AXIS2_PLACEMENT_3D('',#1683,#1684,#1685);
#1683 = CARTESIAN_POINT('',(3.,11.225,6.4));
#1684 = DIRECTION('',(0.,1.,0.));
#1685 = DIRECTION('',(1.,0.,0.));
#1686 = ADVANCED_FACE('',(#1687),#1698,.T.);
#1687 = FACE_BOUND('',#1688,.T.);
#1688 = EDGE_LOOP('',(#1689,#1690,#1691,#1697));
#1689 = ORIENTED_EDGE('',*,*,#844,.F.);
#1690 = ORIENTED_EDGE('',*,*,#1612,.T.);
#1691 = ORIENTED_EDGE('',*,*,#1692,.T.);
#1692 = EDGE_CURVE('',#1613,#1668,#1693,.T.);
#1693 = LINE('',#1694,#1695);
#1694 = CARTESIAN_POINT('',(3.75,10.475,7.));
#1695 = VECTOR('',#1696,1.);
#1696 = DIRECTION('',(-0.707106781187,0.707106781187,0.));
#1697 = ORIENTED_EDGE('',*,*,#1667,.F.);
#1698 = PLANE('',#1699);
#1699 = AXIS2_PLACEMENT_3D('',#1700,#1701,#1702);
#1700 = CARTESIAN_POINT('',(3.75,10.475,6.4));
#1701 = DIRECTION('',(-0.707106781187,-0.707106781187,0.));
#1702 = DIRECTION('',(-0.707106781187,0.707106781187,0.));
#1703 = ADVANCED_FACE('',(#1704),#1710,.T.);
#1704 = FACE_BOUND('',#1705,.T.);
#1705 = EDGE_LOOP('',(#1706,#1707,#1708,#1709));
#1706 = ORIENTED_EDGE('',*,*,#1057,.F.);
#1707 = ORIENTED_EDGE('',*,*,#985,.T.);
#1708 = ORIENTED_EDGE('',*,*,#1009,.T.);
#1709 = ORIENTED_EDGE('',*,*,#1040,.F.);
#1710 = PLANE('',#1711);
#1711 = AXIS2_PLACEMENT_3D('',#1712,#1713,#1714);
#1712 = CARTESIAN_POINT('',(5.087771805553,6.38430080177,7.));
#1713 = DIRECTION('',(0.,0.,1.));
#1714 = DIRECTION('',(1.,0.,0.));
#1715 = ADVANCED_FACE('',(#1716),#1722,.T.);
#1716 = FACE_BOUND('',#1717,.T.);
#1717 = EDGE_LOOP('',(#1718,#1719,#1720,#1721));
#1718 = ORIENTED_EDGE('',*,*,#1081,.T.);
#1719 = ORIENTED_EDGE('',*,*,#1105,.T.);
#1720 = ORIENTED_EDGE('',*,*,#1136,.F.);
#1721 = ORIENTED_EDGE('',*,*,#1153,.F.);
#1722 = PLANE('',#1723);
#1723 = AXIS2_PLACEMENT_3D('',#1724,#1725,#1726);
#1724 = CARTESIAN_POINT('',(5.087771805553,6.38430080177,7.));
#1725 = DIRECTION('',(0.,0.,1.));
#1726 = DIRECTION('',(1.,0.,0.));
#1727 = ADVANCED_FACE('',(#1728),#1731,.T.);
#1728 = FACE_BOUND('',#1729,.T.);
#1729 = EDGE_LOOP('',(#1730));
#1730 = ORIENTED_EDGE('',*,*,#1177,.T.);
#1731 = PLANE('',#1732);
#1732 = AXIS2_PLACEMENT_3D('',#1733,#1734,#1735);
#1733 = CARTESIAN_POINT('',(5.087771805553,6.38430080177,7.));
#1734 = DIRECTION('',(0.,0.,1.));
#1735 = DIRECTION('',(1.,0.,0.));
#1736 = ADVANCED_FACE('',(#1737),#1743,.T.);
#1737 = FACE_BOUND('',#1738,.T.);
#1738 = EDGE_LOOP('',(#1739,#1740,#1741,#1742));
#1739 = ORIENTED_EDGE('',*,*,#1202,.T.);
#1740 = ORIENTED_EDGE('',*,*,#1226,.T.);
#1741 = ORIENTED_EDGE('',*,*,#1257,.F.);
#1742 = ORIENTED_EDGE('',*,*,#1274,.F.);
#1743 = PLANE('',#1744);
#1744 = AXIS2_PLACEMENT_3D('',#1745,#1746,#1747);
#1745 = CARTESIAN_POINT('',(5.087771805553,6.38430080177,7.));
#1746 = DIRECTION('',(0.,0.,1.));
#1747 = DIRECTION('',(1.,0.,0.));
#1748 = ADVANCED_FACE('',(#1749),#1755,.T.);
#1749 = FACE_BOUND('',#1750,.T.);
#1750 = EDGE_LOOP('',(#1751,#1752,#1753,#1754));
#1751 = ORIENTED_EDGE('',*,*,#1298,.T.);
#1752 = ORIENTED_EDGE('',*,*,#1315,.T.);
#1753 = ORIENTED_EDGE('',*,*,#1346,.F.);
#1754 = ORIENTED_EDGE('',*,*,#1363,.F.);
#1755 = PLANE('',#1756);
#1756 = AXIS2_PLACEMENT_3D('',#1757,#1758,#1759);
#1757 = CARTESIAN_POINT('',(5.087771805553,6.38430080177,7.));
#1758 = DIRECTION('',(0.,0.,1.));
#1759 = DIRECTION('',(1.,0.,0.));
#1760 = ADVANCED_FACE('',(#1761),#1769,.T.);
#1761 = FACE_BOUND('',#1762,.F.);
#1762 = EDGE_LOOP('',(#1763,#1764,#1765,#1766,#1767,#1768));
#1763 = ORIENTED_EDGE('',*,*,#1507,.T.);
#1764 = ORIENTED_EDGE('',*,*,#1490,.T.);
#1765 = ORIENTED_EDGE('',*,*,#1459,.F.);
#1766 = ORIENTED_EDGE('',*,*,#1442,.T.);
#1767 = ORIENTED_EDGE('',*,*,#1418,.T.);
#1768 = ORIENTED_EDGE('',*,*,#1387,.F.);
#1769 = PLANE('',#1770);
#1770 = AXIS2_PLACEMENT_3D('',#1771,#1772,#1773);
#1771 = CARTESIAN_POINT('',(5.087771805553,6.38430080177,7.));
#1772 = DIRECTION('',(0.,0.,1.));
#1773 = DIRECTION('',(1.,0.,0.));
#1774 = ADVANCED_FACE('',(#1775),#1781,.T.);
#1775 = FACE_BOUND('',#1776,.T.);
#1776 = EDGE_LOOP('',(#1777,#1778,#1779,#1780));
#1777 = ORIENTED_EDGE('',*,*,#1596,.F.);
#1778 = ORIENTED_EDGE('',*,*,#1531,.F.);
#1779 = ORIENTED_EDGE('',*,*,#1555,.F.);
#1780 = ORIENTED_EDGE('',*,*,#1572,.T.);
#1781 = PLANE('',#1782);
#1782 = AXIS2_PLACEMENT_3D('',#1783,#1784,#1785);
#1783 = CARTESIAN_POINT('',(5.087771805553,6.38430080177,7.));
#1784 = DIRECTION('',(0.,0.,1.));
#1785 = DIRECTION('',(1.,0.,0.));
#1786 = ADVANCED_FACE('',(#1787),#1793,.T.);
#1787 = FACE_BOUND('',#1788,.F.);
#1788 = EDGE_LOOP('',(#1789,#1790,#1791,#1792));
#1789 = ORIENTED_EDGE('',*,*,#1692,.T.);
#1790 = ORIENTED_EDGE('',*,*,#1675,.T.);
#1791 = ORIENTED_EDGE('',*,*,#1644,.F.);
#1792 = ORIENTED_EDGE('',*,*,#1620,.F.);
#1793 = PLANE('',#1794);
#1794 = AXIS2_PLACEMENT_3D('',#1795,#1796,#1797);
#1795 = CARTESIAN_POINT('',(5.087771805553,6.38430080177,7.));
#1796 = DIRECTION('',(0.,0.,1.));
#1797 = DIRECTION('',(1.,0.,0.));
#1798 = ( GEOMETRIC_REPRESENTATION_CONTEXT(3) 
GLOBAL_UNCERTAINTY_ASSIGNED_CONTEXT((#1802)) 
GLOBAL_UNIT_ASSIGNED_CONTEXT((#1799,#1800,#1801)) REPRESENTATION_CONTEXT
('Context #1','3D Context with UNIT and UNCERTAINTY') );
#1799 = ( LENGTH_UNIT() NAMED_UNIT(*) SI_UNIT(.MILLI.,.METRE.) );
#1800 = ( NAMED_UNIT(*) PLANE_ANGLE_UNIT() SI_UNIT($,.RADIAN.) );
#1801 = ( NAMED_UNIT(*) SI_UNIT($,.STERADIAN.) SOLID_ANGLE_UNIT() );
#1802 = UNCERTAINTY_MEASURE_WITH_UNIT(LENGTH_MEASURE(2.E-06),#1799,
  'distance_accuracy_value','confusion accuracy');
#1803 = PRODUCT_RELATED_PRODUCT_CATEGORY('part',$,(#7));
#1804 = MECHANICAL_DESIGN_GEOMETRIC_PRESENTATION_REPRESENTATION('',(
    #1805,#1816,#1824,#1831,#1838,#1848,#1857,#1866,#1875,#1884,#1893,
    #1902,#1911,#1920,#1929,#1936,#1943,#1952,#1961,#1970,#1979,#1988,
    #1997,#2006,#2015,#2024,#2033,#2041,#2048,#2055,#2062,#2069,#2076,
    #2083,#2090,#2097,#2104,#2111,#2118,#2125,#2132,#2139,#2146,#2153,
    #2160,#2167,#2174,#2181,#2188,#2195,#2202,#2209,#2216,#2223,#2230,
    #2237,#2244,#2251,#2258,#2265,#2272,#2279,#2286,#2293,#2300),#1798);
#1805 = STYLED_ITEM('color',(#1806),#15);
#1806 = PRESENTATION_STYLE_ASSIGNMENT((#1807,#1813));
#1807 = SURFACE_STYLE_USAGE(.BOTH.,#1808);
#1808 = SURFACE_SIDE_STYLE('',(#1809));
#1809 = SURFACE_STYLE_FILL_AREA(#1810);
#1810 = FILL_AREA_STYLE('',(#1811));
#1811 = FILL_AREA_STYLE_COLOUR('',#1812);
#1812 = DRAUGHTING_PRE_DEFINED_COLOUR('white');
#1813 = CURVE_STYLE('',#1814,POSITIVE_LENGTH_MEASURE(0.1),#1815);
#1814 = DRAUGHTING_PRE_DEFINED_CURVE_FONT('continuous');
#1815 = COLOUR_RGB('',9.803921802644E-02,9.803921802644E-02,
  9.803921802644E-02);
#1816 = OVER_RIDING_STYLED_ITEM('overriding color',(#1817),#246,#1805);
#1817 = PRESENTATION_STYLE_ASSIGNMENT((#1818));
#1818 = SURFACE_STYLE_USAGE(.BOTH.,#1819);
#1819 = SURFACE_SIDE_STYLE('',(#1820));
#1820 = SURFACE_STYLE_FILL_AREA(#1821);
#1821 = FILL_AREA_STYLE('',(#1822));
#1822 = FILL_AREA_STYLE_COLOUR('',#1823);
#1823 = DRAUGHTING_PRE_DEFINED_COLOUR('black');
#1824 = OVER_RIDING_STYLED_ITEM('overriding color',(#1825),#294,#1805);
#1825 = PRESENTATION_STYLE_ASSIGNMENT((#1826));
#1826 = SURFACE_STYLE_USAGE(.BOTH.,#1827);
#1827 = SURFACE_SIDE_STYLE('',(#1828));
#1828 = SURFACE_STYLE_FILL_AREA(#1829);
#1829 = FILL_AREA_STYLE('',(#1830));
#1830 = FILL_AREA_STYLE_COLOUR('',#1823);
#1831 = OVER_RIDING_STYLED_ITEM('overriding color',(#1832),#318,#1805);
#1832 = PRESENTATION_STYLE_ASSIGNMENT((#1833));
#1833 = SURFACE_STYLE_USAGE(.BOTH.,#1834);
#1834 = SURFACE_SIDE_STYLE('',(#1835));
#1835 = SURFACE_STYLE_FILL_AREA(#1836);
#1836 = FILL_AREA_STYLE('',(#1837));
#1837 = FILL_AREA_STYLE_COLOUR('',#1823);
#1838 = OVER_RIDING_STYLED_ITEM('overriding color',(#1839),#342,#1805);
#1839 = PRESENTATION_STYLE_ASSIGNMENT((#1840));
#1840 = SURFACE_STYLE_USAGE(.BOTH.,#1841);
#1841 = SURFACE_SIDE_STYLE('',(#1842,#1846));
#1842 = SURFACE_STYLE_FILL_AREA(#1843);
#1843 = FILL_AREA_STYLE('',(#1844));
#1844 = FILL_AREA_STYLE_COLOUR('',#1845);
#1845 = COLOUR_RGB('',0.678430976034,0.709803998361,0.741176010593);
#1846 = SURFACE_STYLE_RENDERING_WITH_PROPERTIES(.NORMAL_SHADING.,#1845,(
    #1847));
#1847 = SURFACE_STYLE_TRANSPARENT(1.);
#1848 = OVER_RIDING_STYLED_ITEM('overriding color',(#1849),#367,#1805);
#1849 = PRESENTATION_STYLE_ASSIGNMENT((#1850));
#1850 = SURFACE_STYLE_USAGE(.BOTH.,#1851);
#1851 = SURFACE_SIDE_STYLE('',(#1852,#1855));
#1852 = SURFACE_STYLE_FILL_AREA(#1853);
#1853 = FILL_AREA_STYLE('',(#1854));
#1854 = FILL_AREA_STYLE_COLOUR('',#1845);
#1855 = SURFACE_STYLE_RENDERING_WITH_PROPERTIES(.NORMAL_SHADING.,#1845,(
    #1856));
#1856 = SURFACE_STYLE_TRANSPARENT(1.);
#1857 = OVER_RIDING_STYLED_ITEM('overriding color',(#1858),#392,#1805);
#1858 = PRESENTATION_STYLE_ASSIGNMENT((#1859));
#1859 = SURFACE_STYLE_USAGE(.BOTH.,#1860);
#1860 = SURFACE_SIDE_STYLE('',(#1861,#1864));
#1861 = SURFACE_STYLE_FILL_AREA(#1862);
#1862 = FILL_AREA_STYLE('',(#1863));
#1863 = FILL_AREA_STYLE_COLOUR('',#1845);
#1864 = SURFACE_STYLE_RENDERING_WITH_PROPERTIES(.NORMAL_SHADING.,#1845,(
    #1865));
#1865 = SURFACE_STYLE_TRANSPARENT(1.);
#1866 = OVER_RIDING_STYLED_ITEM('overriding color',(#1867),#417,#1805);
#1867 = PRESENTATION_STYLE_ASSIGNMENT((#1868));
#1868 = SURFACE_STYLE_USAGE(.BOTH.,#1869);
#1869 = SURFACE_SIDE_STYLE('',(#1870,#1873));
#1870 = SURFACE_STYLE_FILL_AREA(#1871);
#1871 = FILL_AREA_STYLE('',(#1872));
#1872 = FILL_AREA_STYLE_COLOUR('',#1845);
#1873 = SURFACE_STYLE_RENDERING_WITH_PROPERTIES(.NORMAL_SHADING.,#1845,(
    #1874));
#1874 = SURFACE_STYLE_TRANSPARENT(1.);
#1875 = OVER_RIDING_STYLED_ITEM('overriding color',(#1876),#442,#1805);
#1876 = PRESENTATION_STYLE_ASSIGNMENT((#1877));
#1877 = SURFACE_STYLE_USAGE(.BOTH.,#1878);
#1878 = SURFACE_SIDE_STYLE('',(#1879,#1882));
#1879 = SURFACE_STYLE_FILL_AREA(#1880);
#1880 = FILL_AREA_STYLE('',(#1881));
#1881 = FILL_AREA_STYLE_COLOUR('',#1845);
#1882 = SURFACE_STYLE_RENDERING_WITH_PROPERTIES(.NORMAL_SHADING.,#1845,(
    #1883));
#1883 = SURFACE_STYLE_TRANSPARENT(1.);
#1884 = OVER_RIDING_STYLED_ITEM('overriding color',(#1885),#467,#1805);
#1885 = PRESENTATION_STYLE_ASSIGNMENT((#1886));
#1886 = SURFACE_STYLE_USAGE(.BOTH.,#1887);
#1887 = SURFACE_SIDE_STYLE('',(#1888,#1891));
#1888 = SURFACE_STYLE_FILL_AREA(#1889);
#1889 = FILL_AREA_STYLE('',(#1890));
#1890 = FILL_AREA_STYLE_COLOUR('',#1845);
#1891 = SURFACE_STYLE_RENDERING_WITH_PROPERTIES(.NORMAL_SHADING.,#1845,(
    #1892));
#1892 = SURFACE_STYLE_TRANSPARENT(1.);
#1893 = OVER_RIDING_STYLED_ITEM('overriding color',(#1894),#492,#1805);
#1894 = PRESENTATION_STYLE_ASSIGNMENT((#1895));
#1895 = SURFACE_STYLE_USAGE(.BOTH.,#1896);
#1896 = SURFACE_SIDE_STYLE('',(#1897,#1900));
#1897 = SURFACE_STYLE_FILL_AREA(#1898);
#1898 = FILL_AREA_STYLE('',(#1899));
#1899 = FILL_AREA_STYLE_COLOUR('',#1845);
#1900 = SURFACE_STYLE_RENDERING_WITH_PROPERTIES(.NORMAL_SHADING.,#1845,(
    #1901));
#1901 = SURFACE_STYLE_TRANSPARENT(1.);
#1902 = OVER_RIDING_STYLED_ITEM('overriding color',(#1903),#517,#1805);
#1903 = PRESENTATION_STYLE_ASSIGNMENT((#1904));
#1904 = SURFACE_STYLE_USAGE(.BOTH.,#1905);
#1905 = SURFACE_SIDE_STYLE('',(#1906,#1909));
#1906 = SURFACE_STYLE_FILL_AREA(#1907);
#1907 = FILL_AREA_STYLE('',(#1908));
#1908 = FILL_AREA_STYLE_COLOUR('',#1845);
#1909 = SURFACE_STYLE_RENDERING_WITH_PROPERTIES(.NORMAL_SHADING.,#1845,(
    #1910));
#1910 = SURFACE_STYLE_TRANSPARENT(1.);
#1911 = OVER_RIDING_STYLED_ITEM('overriding color',(#1912),#542,#1805);
#1912 = PRESENTATION_STYLE_ASSIGNMENT((#1913));
#1913 = SURFACE_STYLE_USAGE(.BOTH.,#1914);
#1914 = SURFACE_SIDE_STYLE('',(#1915,#1918));
#1915 = SURFACE_STYLE_FILL_AREA(#1916);
#1916 = FILL_AREA_STYLE('',(#1917));
#1917 = FILL_AREA_STYLE_COLOUR('',#1845);
#1918 = SURFACE_STYLE_RENDERING_WITH_PROPERTIES(.NORMAL_SHADING.,#1845,(
    #1919));
#1919 = SURFACE_STYLE_TRANSPARENT(1.);
#1920 = OVER_RIDING_STYLED_ITEM('overriding color',(#1921),#567,#1805);
#1921 = PRESENTATION_STYLE_ASSIGNMENT((#1922));
#1922 = SURFACE_STYLE_USAGE(.BOTH.,#1923);
#1923 = SURFACE_SIDE_STYLE('',(#1924,#1927));
#1924 = SURFACE_STYLE_FILL_AREA(#1925);
#1925 = FILL_AREA_STYLE('',(#1926));
#1926 = FILL_AREA_STYLE_COLOUR('',#1845);
#1927 = SURFACE_STYLE_RENDERING_WITH_PROPERTIES(.NORMAL_SHADING.,#1845,(
    #1928));
#1928 = SURFACE_STYLE_TRANSPARENT(1.);
#1929 = OVER_RIDING_STYLED_ITEM('overriding color',(#1930),#592,#1805);
#1930 = PRESENTATION_STYLE_ASSIGNMENT((#1931));
#1931 = SURFACE_STYLE_USAGE(.BOTH.,#1932);
#1932 = SURFACE_SIDE_STYLE('',(#1933));
#1933 = SURFACE_STYLE_FILL_AREA(#1934);
#1934 = FILL_AREA_STYLE('',(#1935));
#1935 = FILL_AREA_STYLE_COLOUR('',#1823);
#1936 = OVER_RIDING_STYLED_ITEM('overriding color',(#1937),#870,#1805);
#1937 = PRESENTATION_STYLE_ASSIGNMENT((#1938));
#1938 = SURFACE_STYLE_USAGE(.BOTH.,#1939);
#1939 = SURFACE_SIDE_STYLE('',(#1940));
#1940 = SURFACE_STYLE_FILL_AREA(#1941);
#1941 = FILL_AREA_STYLE('',(#1942));
#1942 = FILL_AREA_STYLE_COLOUR('',#1823);
#1943 = OVER_RIDING_STYLED_ITEM('overriding color',(#1944),#882,#1805);
#1944 = PRESENTATION_STYLE_ASSIGNMENT((#1945));
#1945 = SURFACE_STYLE_USAGE(.BOTH.,#1946);
#1946 = SURFACE_SIDE_STYLE('',(#1947,#1950));
#1947 = SURFACE_STYLE_FILL_AREA(#1948);
#1948 = FILL_AREA_STYLE('',(#1949));
#1949 = FILL_AREA_STYLE_COLOUR('',#1845);
#1950 = SURFACE_STYLE_RENDERING_WITH_PROPERTIES(.NORMAL_SHADING.,#1845,(
    #1951));
#1951 = SURFACE_STYLE_TRANSPARENT(1.);
#1952 = OVER_RIDING_STYLED_ITEM('overriding color',(#1953),#891,#1805);
#1953 = PRESENTATION_STYLE_ASSIGNMENT((#1954));
#1954 = SURFACE_STYLE_USAGE(.BOTH.,#1955);
#1955 = SURFACE_SIDE_STYLE('',(#1956,#1959));
#1956 = SURFACE_STYLE_FILL_AREA(#1957);
#1957 = FILL_AREA_STYLE('',(#1958));
#1958 = FILL_AREA_STYLE_COLOUR('',#1845);
#1959 = SURFACE_STYLE_RENDERING_WITH_PROPERTIES(.NORMAL_SHADING.,#1845,(
    #1960));
#1960 = SURFACE_STYLE_TRANSPARENT(1.);
#1961 = OVER_RIDING_STYLED_ITEM('overriding color',(#1962),#900,#1805);
#1962 = PRESENTATION_STYLE_ASSIGNMENT((#1963));
#1963 = SURFACE_STYLE_USAGE(.BOTH.,#1964);
#1964 = SURFACE_SIDE_STYLE('',(#1965,#1968));
#1965 = SURFACE_STYLE_FILL_AREA(#1966);
#1966 = FILL_AREA_STYLE('',(#1967));
#1967 = FILL_AREA_STYLE_COLOUR('',#1845);
#1968 = SURFACE_STYLE_RENDERING_WITH_PROPERTIES(.NORMAL_SHADING.,#1845,(
    #1969));
#1969 = SURFACE_STYLE_TRANSPARENT(1.);
#1970 = OVER_RIDING_STYLED_ITEM('overriding color',(#1971),#909,#1805);
#1971 = PRESENTATION_STYLE_ASSIGNMENT((#1972));
#1972 = SURFACE_STYLE_USAGE(.BOTH.,#1973);
#1973 = SURFACE_SIDE_STYLE('',(#1974,#1977));
#1974 = SURFACE_STYLE_FILL_AREA(#1975);
#1975 = FILL_AREA_STYLE('',(#1976));
#1976 = FILL_AREA_STYLE_COLOUR('',#1845);
#1977 = SURFACE_STYLE_RENDERING_WITH_PROPERTIES(.NORMAL_SHADING.,#1845,(
    #1978));
#1978 = SURFACE_STYLE_TRANSPARENT(1.);
#1979 = OVER_RIDING_STYLED_ITEM('overriding color',(#1980),#918,#1805);
#1980 = PRESENTATION_STYLE_ASSIGNMENT((#1981));
#1981 = SURFACE_STYLE_USAGE(.BOTH.,#1982);
#1982 = SURFACE_SIDE_STYLE('',(#1983,#1986));
#1983 = SURFACE_STYLE_FILL_AREA(#1984);
#1984 = FILL_AREA_STYLE('',(#1985));
#1985 = FILL_AREA_STYLE_COLOUR('',#1845);
#1986 = SURFACE_STYLE_RENDERING_WITH_PROPERTIES(.NORMAL_SHADING.,#1845,(
    #1987));
#1987 = SURFACE_STYLE_TRANSPARENT(1.);
#1988 = OVER_RIDING_STYLED_ITEM('overriding color',(#1989),#927,#1805);
#1989 = PRESENTATION_STYLE_ASSIGNMENT((#1990));
#1990 = SURFACE_STYLE_USAGE(.BOTH.,#1991);
#1991 = SURFACE_SIDE_STYLE('',(#1992,#1995));
#1992 = SURFACE_STYLE_FILL_AREA(#1993);
#1993 = FILL_AREA_STYLE('',(#1994));
#1994 = FILL_AREA_STYLE_COLOUR('',#1845);
#1995 = SURFACE_STYLE_RENDERING_WITH_PROPERTIES(.NORMAL_SHADING.,#1845,(
    #1996));
#1996 = SURFACE_STYLE_TRANSPARENT(1.);
#1997 = OVER_RIDING_STYLED_ITEM('overriding color',(#1998),#936,#1805);
#1998 = PRESENTATION_STYLE_ASSIGNMENT((#1999));
#1999 = SURFACE_STYLE_USAGE(.BOTH.,#2000);
#2000 = SURFACE_SIDE_STYLE('',(#2001,#2004));
#2001 = SURFACE_STYLE_FILL_AREA(#2002);
#2002 = FILL_AREA_STYLE('',(#2003));
#2003 = FILL_AREA_STYLE_COLOUR('',#1845);
#2004 = SURFACE_STYLE_RENDERING_WITH_PROPERTIES(.NORMAL_SHADING.,#1845,(
    #2005));
#2005 = SURFACE_STYLE_TRANSPARENT(1.);
#2006 = OVER_RIDING_STYLED_ITEM('overriding color',(#2007),#945,#1805);
#2007 = PRESENTATION_STYLE_ASSIGNMENT((#2008));
#2008 = SURFACE_STYLE_USAGE(.BOTH.,#2009);
#2009 = SURFACE_SIDE_STYLE('',(#2010,#2013));
#2010 = SURFACE_STYLE_FILL_AREA(#2011);
#2011 = FILL_AREA_STYLE('',(#2012));
#2012 = FILL_AREA_STYLE_COLOUR('',#1845);
#2013 = SURFACE_STYLE_RENDERING_WITH_PROPERTIES(.NORMAL_SHADING.,#1845,(
    #2014));
#2014 = SURFACE_STYLE_TRANSPARENT(1.);
#2015 = OVER_RIDING_STYLED_ITEM('overriding color',(#2016),#954,#1805);
#2016 = PRESENTATION_STYLE_ASSIGNMENT((#2017));
#2017 = SURFACE_STYLE_USAGE(.BOTH.,#2018);
#2018 = SURFACE_SIDE_STYLE('',(#2019,#2022));
#2019 = SURFACE_STYLE_FILL_AREA(#2020);
#2020 = FILL_AREA_STYLE('',(#2021));
#2021 = FILL_AREA_STYLE_COLOUR('',#1845);
#2022 = SURFACE_STYLE_RENDERING_WITH_PROPERTIES(.NORMAL_SHADING.,#1845,(
    #2023));
#2023 = SURFACE_STYLE_TRANSPARENT(1.);
#2024 = OVER_RIDING_STYLED_ITEM('overriding color',(#2025),#963,#1805);
#2025 = PRESENTATION_STYLE_ASSIGNMENT((#2026));
#2026 = SURFACE_STYLE_USAGE(.BOTH.,#2027);
#2027 = SURFACE_SIDE_STYLE('',(#2028,#2031));
#2028 = SURFACE_STYLE_FILL_AREA(#2029);
#2029 = FILL_AREA_STYLE('',(#2030));
#2030 = FILL_AREA_STYLE_COLOUR('',#1845);
#2031 = SURFACE_STYLE_RENDERING_WITH_PROPERTIES(.NORMAL_SHADING.,#1845,(
    #2032));
#2032 = SURFACE_STYLE_TRANSPARENT(1.);
#2033 = OVER_RIDING_STYLED_ITEM('overriding color',(#2034),#972,#1805);
#2034 = PRESENTATION_STYLE_ASSIGNMENT((#2035));
#2035 = SURFACE_STYLE_USAGE(.BOTH.,#2036);
#2036 = SURFACE_SIDE_STYLE('',(#2037));
#2037 = SURFACE_STYLE_FILL_AREA(#2038);
#2038 = FILL_AREA_STYLE('',(#2039));
#2039 = FILL_AREA_STYLE_COLOUR('',#2040);
#2040 = DRAUGHTING_PRE_DEFINED_COLOUR('red');
#2041 = OVER_RIDING_STYLED_ITEM('overriding color',(#2042),#1003,#1805);
#2042 = PRESENTATION_STYLE_ASSIGNMENT((#2043));
#2043 = SURFACE_STYLE_USAGE(.BOTH.,#2044);
#2044 = SURFACE_SIDE_STYLE('',(#2045));
#2045 = SURFACE_STYLE_FILL_AREA(#2046);
#2046 = FILL_AREA_STYLE('',(#2047));
#2047 = FILL_AREA_STYLE_COLOUR('',#2040);
#2048 = OVER_RIDING_STYLED_ITEM('overriding color',(#2049),#1027,#1805);
#2049 = PRESENTATION_STYLE_ASSIGNMENT((#2050));
#2050 = SURFACE_STYLE_USAGE(.BOTH.,#2051);
#2051 = SURFACE_SIDE_STYLE('',(#2052));
#2052 = SURFACE_STYLE_FILL_AREA(#2053);
#2053 = FILL_AREA_STYLE('',(#2054));
#2054 = FILL_AREA_STYLE_COLOUR('',#2040);
#2055 = OVER_RIDING_STYLED_ITEM('overriding color',(#2056),#1051,#1805);
#2056 = PRESENTATION_STYLE_ASSIGNMENT((#2057));
#2057 = SURFACE_STYLE_USAGE(.BOTH.,#2058);
#2058 = SURFACE_SIDE_STYLE('',(#2059));
#2059 = SURFACE_STYLE_FILL_AREA(#2060);
#2060 = FILL_AREA_STYLE('',(#2061));
#2061 = FILL_AREA_STYLE_COLOUR('',#2040);
#2062 = OVER_RIDING_STYLED_ITEM('overriding color',(#2063),#1068,#1805);
#2063 = PRESENTATION_STYLE_ASSIGNMENT((#2064));
#2064 = SURFACE_STYLE_USAGE(.BOTH.,#2065);
#2065 = SURFACE_SIDE_STYLE('',(#2066));
#2066 = SURFACE_STYLE_FILL_AREA(#2067);
#2067 = FILL_AREA_STYLE('',(#2068));
#2068 = FILL_AREA_STYLE_COLOUR('',#2040);
#2069 = OVER_RIDING_STYLED_ITEM('overriding color',(#2070),#1099,#1805);
#2070 = PRESENTATION_STYLE_ASSIGNMENT((#2071));
#2071 = SURFACE_STYLE_USAGE(.BOTH.,#2072);
#2072 = SURFACE_SIDE_STYLE('',(#2073));
#2073 = SURFACE_STYLE_FILL_AREA(#2074);
#2074 = FILL_AREA_STYLE('',(#2075));
#2075 = FILL_AREA_STYLE_COLOUR('',#2040);
#2076 = OVER_RIDING_STYLED_ITEM('overriding color',(#2077),#1123,#1805);
#2077 = PRESENTATION_STYLE_ASSIGNMENT((#2078));
#2078 = SURFACE_STYLE_USAGE(.BOTH.,#2079);
#2079 = SURFACE_SIDE_STYLE('',(#2080));
#2080 = SURFACE_STYLE_FILL_AREA(#2081);
#2081 = FILL_AREA_STYLE('',(#2082));
#2082 = FILL_AREA_STYLE_COLOUR('',#2040);
#2083 = OVER_RIDING_STYLED_ITEM('overriding color',(#2084),#1147,#1805);
#2084 = PRESENTATION_STYLE_ASSIGNMENT((#2085));
#2085 = SURFACE_STYLE_USAGE(.BOTH.,#2086);
#2086 = SURFACE_SIDE_STYLE('',(#2087));
#2087 = SURFACE_STYLE_FILL_AREA(#2088);
#2088 = FILL_AREA_STYLE('',(#2089));
#2089 = FILL_AREA_STYLE_COLOUR('',#2040);
#2090 = OVER_RIDING_STYLED_ITEM('overriding color',(#2091),#1164,#1805);
#2091 = PRESENTATION_STYLE_ASSIGNMENT((#2092));
#2092 = SURFACE_STYLE_USAGE(.BOTH.,#2093);
#2093 = SURFACE_SIDE_STYLE('',(#2094));
#2094 = SURFACE_STYLE_FILL_AREA(#2095);
#2095 = FILL_AREA_STYLE('',(#2096));
#2096 = FILL_AREA_STYLE_COLOUR('',#2040);
#2097 = OVER_RIDING_STYLED_ITEM('overriding color',(#2098),#1189,#1805);
#2098 = PRESENTATION_STYLE_ASSIGNMENT((#2099));
#2099 = SURFACE_STYLE_USAGE(.BOTH.,#2100);
#2100 = SURFACE_SIDE_STYLE('',(#2101));
#2101 = SURFACE_STYLE_FILL_AREA(#2102);
#2102 = FILL_AREA_STYLE('',(#2103));
#2103 = FILL_AREA_STYLE_COLOUR('',#2040);
#2104 = OVER_RIDING_STYLED_ITEM('overriding color',(#2105),#1220,#1805);
#2105 = PRESENTATION_STYLE_ASSIGNMENT((#2106));
#2106 = SURFACE_STYLE_USAGE(.BOTH.,#2107);
#2107 = SURFACE_SIDE_STYLE('',(#2108));
#2108 = SURFACE_STYLE_FILL_AREA(#2109);
#2109 = FILL_AREA_STYLE('',(#2110));
#2110 = FILL_AREA_STYLE_COLOUR('',#2040);
#2111 = OVER_RIDING_STYLED_ITEM('overriding color',(#2112),#1244,#1805);
#2112 = PRESENTATION_STYLE_ASSIGNMENT((#2113));
#2113 = SURFACE_STYLE_USAGE(.BOTH.,#2114);
#2114 = SURFACE_SIDE_STYLE('',(#2115));
#2115 = SURFACE_STYLE_FILL_AREA(#2116);
#2116 = FILL_AREA_STYLE('',(#2117));
#2117 = FILL_AREA_STYLE_COLOUR('',#2040);
#2118 = OVER_RIDING_STYLED_ITEM('overriding color',(#2119),#1268,#1805);
#2119 = PRESENTATION_STYLE_ASSIGNMENT((#2120));
#2120 = SURFACE_STYLE_USAGE(.BOTH.,#2121);
#2121 = SURFACE_SIDE_STYLE('',(#2122));
#2122 = SURFACE_STYLE_FILL_AREA(#2123);
#2123 = FILL_AREA_STYLE('',(#2124));
#2124 = FILL_AREA_STYLE_COLOUR('',#2040);
#2125 = OVER_RIDING_STYLED_ITEM('overriding color',(#2126),#1285,#1805);
#2126 = PRESENTATION_STYLE_ASSIGNMENT((#2127));
#2127 = SURFACE_STYLE_USAGE(.BOTH.,#2128);
#2128 = SURFACE_SIDE_STYLE('',(#2129));
#2129 = SURFACE_STYLE_FILL_AREA(#2130);
#2130 = FILL_AREA_STYLE('',(#2131));
#2131 = FILL_AREA_STYLE_COLOUR('',#2040);
#2132 = OVER_RIDING_STYLED_ITEM('overriding color',(#2133),#1309,#1805);
#2133 = PRESENTATION_STYLE_ASSIGNMENT((#2134));
#2134 = SURFACE_STYLE_USAGE(.BOTH.,#2135);
#2135 = SURFACE_SIDE_STYLE('',(#2136));
#2136 = SURFACE_STYLE_FILL_AREA(#2137);
#2137 = FILL_AREA_STYLE('',(#2138));
#2138 = FILL_AREA_STYLE_COLOUR('',#2040);
#2139 = OVER_RIDING_STYLED_ITEM('overriding color',(#2140),#1333,#1805);
#2140 = PRESENTATION_STYLE_ASSIGNMENT((#2141));
#2141 = SURFACE_STYLE_USAGE(.BOTH.,#2142);
#2142 = SURFACE_SIDE_STYLE('',(#2143));
#2143 = SURFACE_STYLE_FILL_AREA(#2144);
#2144 = FILL_AREA_STYLE('',(#2145));
#2145 = FILL_AREA_STYLE_COLOUR('',#2040);
#2146 = OVER_RIDING_STYLED_ITEM('overriding color',(#2147),#1357,#1805);
#2147 = PRESENTATION_STYLE_ASSIGNMENT((#2148));
#2148 = SURFACE_STYLE_USAGE(.BOTH.,#2149);
#2149 = SURFACE_SIDE_STYLE('',(#2150));
#2150 = SURFACE_STYLE_FILL_AREA(#2151);
#2151 = FILL_AREA_STYLE('',(#2152));
#2152 = FILL_AREA_STYLE_COLOUR('',#2040);
#2153 = OVER_RIDING_STYLED_ITEM('overriding color',(#2154),#1374,#1805);
#2154 = PRESENTATION_STYLE_ASSIGNMENT((#2155));
#2155 = SURFACE_STYLE_USAGE(.BOTH.,#2156);
#2156 = SURFACE_SIDE_STYLE('',(#2157));
#2157 = SURFACE_STYLE_FILL_AREA(#2158);
#2158 = FILL_AREA_STYLE('',(#2159));
#2159 = FILL_AREA_STYLE_COLOUR('',#2040);
#2160 = OVER_RIDING_STYLED_ITEM('overriding color',(#2161),#1405,#1805);
#2161 = PRESENTATION_STYLE_ASSIGNMENT((#2162));
#2162 = SURFACE_STYLE_USAGE(.BOTH.,#2163);
#2163 = SURFACE_SIDE_STYLE('',(#2164));
#2164 = SURFACE_STYLE_FILL_AREA(#2165);
#2165 = FILL_AREA_STYLE('',(#2166));
#2166 = FILL_AREA_STYLE_COLOUR('',#2040);
#2167 = OVER_RIDING_STYLED_ITEM('overriding color',(#2168),#1429,#1805);
#2168 = PRESENTATION_STYLE_ASSIGNMENT((#2169));
#2169 = SURFACE_STYLE_USAGE(.BOTH.,#2170);
#2170 = SURFACE_SIDE_STYLE('',(#2171));
#2171 = SURFACE_STYLE_FILL_AREA(#2172);
#2172 = FILL_AREA_STYLE('',(#2173));
#2173 = FILL_AREA_STYLE_COLOUR('',#2040);
#2174 = OVER_RIDING_STYLED_ITEM('overriding color',(#2175),#1453,#1805);
#2175 = PRESENTATION_STYLE_ASSIGNMENT((#2176));
#2176 = SURFACE_STYLE_USAGE(.BOTH.,#2177);
#2177 = SURFACE_SIDE_STYLE('',(#2178));
#2178 = SURFACE_STYLE_FILL_AREA(#2179);
#2179 = FILL_AREA_STYLE('',(#2180));
#2180 = FILL_AREA_STYLE_COLOUR('',#2040);
#2181 = OVER_RIDING_STYLED_ITEM('overriding color',(#2182),#1477,#1805);
#2182 = PRESENTATION_STYLE_ASSIGNMENT((#2183));
#2183 = SURFACE_STYLE_USAGE(.BOTH.,#2184);
#2184 = SURFACE_SIDE_STYLE('',(#2185));
#2185 = SURFACE_STYLE_FILL_AREA(#2186);
#2186 = FILL_AREA_STYLE('',(#2187));
#2187 = FILL_AREA_STYLE_COLOUR('',#2040);
#2188 = OVER_RIDING_STYLED_ITEM('overriding color',(#2189),#1501,#1805);
#2189 = PRESENTATION_STYLE_ASSIGNMENT((#2190));
#2190 = SURFACE_STYLE_USAGE(.BOTH.,#2191);
#2191 = SURFACE_SIDE_STYLE('',(#2192));
#2192 = SURFACE_STYLE_FILL_AREA(#2193);
#2193 = FILL_AREA_STYLE('',(#2194));
#2194 = FILL_AREA_STYLE_COLOUR('',#2040);
#2195 = OVER_RIDING_STYLED_ITEM('overriding color',(#2196),#1518,#1805);
#2196 = PRESENTATION_STYLE_ASSIGNMENT((#2197));
#2197 = SURFACE_STYLE_USAGE(.BOTH.,#2198);
#2198 = SURFACE_SIDE_STYLE('',(#2199));
#2199 = SURFACE_STYLE_FILL_AREA(#2200);
#2200 = FILL_AREA_STYLE('',(#2201));
#2201 = FILL_AREA_STYLE_COLOUR('',#2040);
#2202 = OVER_RIDING_STYLED_ITEM('overriding color',(#2203),#1542,#1805);
#2203 = PRESENTATION_STYLE_ASSIGNMENT((#2204));
#2204 = SURFACE_STYLE_USAGE(.BOTH.,#2205);
#2205 = SURFACE_SIDE_STYLE('',(#2206));
#2206 = SURFACE_STYLE_FILL_AREA(#2207);
#2207 = FILL_AREA_STYLE('',(#2208));
#2208 = FILL_AREA_STYLE_COLOUR('',#2040);
#2209 = OVER_RIDING_STYLED_ITEM('overriding color',(#2210),#1566,#1805);
#2210 = PRESENTATION_STYLE_ASSIGNMENT((#2211));
#2211 = SURFACE_STYLE_USAGE(.BOTH.,#2212);
#2212 = SURFACE_SIDE_STYLE('',(#2213));
#2213 = SURFACE_STYLE_FILL_AREA(#2214);
#2214 = FILL_AREA_STYLE('',(#2215));
#2215 = FILL_AREA_STYLE_COLOUR('',#2040);
#2216 = OVER_RIDING_STYLED_ITEM('overriding color',(#2217),#1590,#1805);
#2217 = PRESENTATION_STYLE_ASSIGNMENT((#2218));
#2218 = SURFACE_STYLE_USAGE(.BOTH.,#2219);
#2219 = SURFACE_SIDE_STYLE('',(#2220));
#2220 = SURFACE_STYLE_FILL_AREA(#2221);
#2221 = FILL_AREA_STYLE('',(#2222));
#2222 = FILL_AREA_STYLE_COLOUR('',#2040);
#2223 = OVER_RIDING_STYLED_ITEM('overriding color',(#2224),#1607,#1805);
#2224 = PRESENTATION_STYLE_ASSIGNMENT((#2225));
#2225 = SURFACE_STYLE_USAGE(.BOTH.,#2226);
#2226 = SURFACE_SIDE_STYLE('',(#2227));
#2227 = SURFACE_STYLE_FILL_AREA(#2228);
#2228 = FILL_AREA_STYLE('',(#2229));
#2229 = FILL_AREA_STYLE_COLOUR('',#2040);
#2230 = OVER_RIDING_STYLED_ITEM('overriding color',(#2231),#1638,#1805);
#2231 = PRESENTATION_STYLE_ASSIGNMENT((#2232));
#2232 = SURFACE_STYLE_USAGE(.BOTH.,#2233);
#2233 = SURFACE_SIDE_STYLE('',(#2234));
#2234 = SURFACE_STYLE_FILL_AREA(#2235);
#2235 = FILL_AREA_STYLE('',(#2236));
#2236 = FILL_AREA_STYLE_COLOUR('',#2040);
#2237 = OVER_RIDING_STYLED_ITEM('overriding color',(#2238),#1662,#1805);
#2238 = PRESENTATION_STYLE_ASSIGNMENT((#2239));
#2239 = SURFACE_STYLE_USAGE(.BOTH.,#2240);
#2240 = SURFACE_SIDE_STYLE('',(#2241));
#2241 = SURFACE_STYLE_FILL_AREA(#2242);
#2242 = FILL_AREA_STYLE('',(#2243));
#2243 = FILL_AREA_STYLE_COLOUR('',#2040);
#2244 = OVER_RIDING_STYLED_ITEM('overriding color',(#2245),#1686,#1805);
#2245 = PRESENTATION_STYLE_ASSIGNMENT((#2246));
#2246 = SURFACE_STYLE_USAGE(.BOTH.,#2247);
#2247 = SURFACE_SIDE_STYLE('',(#2248));
#2248 = SURFACE_STYLE_FILL_AREA(#2249);
#2249 = FILL_AREA_STYLE('',(#2250));
#2250 = FILL_AREA_STYLE_COLOUR('',#2040);
#2251 = OVER_RIDING_STYLED_ITEM('overriding color',(#2252),#1703,#1805);
#2252 = PRESENTATION_STYLE_ASSIGNMENT((#2253));
#2253 = SURFACE_STYLE_USAGE(.BOTH.,#2254);
#2254 = SURFACE_SIDE_STYLE('',(#2255));
#2255 = SURFACE_STYLE_FILL_AREA(#2256);
#2256 = FILL_AREA_STYLE('',(#2257));
#2257 = FILL_AREA_STYLE_COLOUR('',#2040);
#2258 = OVER_RIDING_STYLED_ITEM('overriding color',(#2259),#1715,#1805);
#2259 = PRESENTATION_STYLE_ASSIGNMENT((#2260));
#2260 = SURFACE_STYLE_USAGE(.BOTH.,#2261);
#2261 = SURFACE_SIDE_STYLE('',(#2262));
#2262 = SURFACE_STYLE_FILL_AREA(#2263);
#2263 = FILL_AREA_STYLE('',(#2264));
#2264 = FILL_AREA_STYLE_COLOUR('',#2040);
#2265 = OVER_RIDING_STYLED_ITEM('overriding color',(#2266),#1727,#1805);
#2266 = PRESENTATION_STYLE_ASSIGNMENT((#2267));
#2267 = SURFACE_STYLE_USAGE(.BOTH.,#2268);
#2268 = SURFACE_SIDE_STYLE('',(#2269));
#2269 = SURFACE_STYLE_FILL_AREA(#2270);
#2270 = FILL_AREA_STYLE('',(#2271));
#2271 = FILL_AREA_STYLE_COLOUR('',#2040);
#2272 = OVER_RIDING_STYLED_ITEM('overriding color',(#2273),#1736,#1805);
#2273 = PRESENTATION_STYLE_ASSIGNMENT((#2274));
#2274 = SURFACE_STYLE_USAGE(.BOTH.,#2275);
#2275 = SURFACE_SIDE_STYLE('',(#2276));
#2276 = SURFACE_STYLE_FILL_AREA(#2277);
#2277 = FILL_AREA_STYLE('',(#2278));
#2278 = FILL_AREA_STYLE_COLOUR('',#2040);
#2279 = OVER_RIDING_STYLED_ITEM('overriding color',(#2280),#1748,#1805);
#2280 = PRESENTATION_STYLE_ASSIGNMENT((#2281));
#2281 = SURFACE_STYLE_USAGE(.BOTH.,#2282);
#2282 = SURFACE_SIDE_STYLE('',(#2283));
#2283 = SURFACE_STYLE_FILL_AREA(#2284);
#2284 = FILL_AREA_STYLE('',(#2285));
#2285 = FILL_AREA_STYLE_COLOUR('',#2040);
#2286 = OVER_RIDING_STYLED_ITEM('overriding color',(#2287),#1760,#1805);
#2287 = PRESENTATION_STYLE_ASSIGNMENT((#2288));
#2288 = SURFACE_STYLE_USAGE(.BOTH.,#2289);
#2289 = SURFACE_SIDE_STYLE('',(#2290));
#2290 = SURFACE_STYLE_FILL_AREA(#2291);
#2291 = FILL_AREA_STYLE('',(#2292));
#2292 = FILL_AREA_STYLE_COLOUR('',#2040);
#2293 = OVER_RIDING_STYLED_ITEM('overriding color',(#2294),#1774,#1805);
#2294 = PRESENTATION_STYLE_ASSIGNMENT((#2295));
#2295 = SURFACE_STYLE_USAGE(.BOTH.,#2296);
#2296 = SURFACE_SIDE_STYLE('',(#2297));
#2297 = SURFACE_STYLE_FILL_AREA(#2298);
#2298 = FILL_AREA_STYLE('',(#2299));
#2299 = FILL_AREA_STYLE_COLOUR('',#2040);
#2300 = OVER_RIDING_STYLED_ITEM('overriding color',(#2301),#1786,#1805);
#2301 = PRESENTATION_STYLE_ASSIGNMENT((#2302));
#2302 = SURFACE_STYLE_USAGE(.BOTH.,#2303);
#2303 = SURFACE_SIDE_STYLE('',(#2304));
#2304 = SURFACE_STYLE_FILL_AREA(#2305);
#2305 = FILL_AREA_STYLE('',(#2306));
#2306 = FILL_AREA_STYLE_COLOUR('',#2040);
ENDSEC;
END-ISO-10303-21;
